<mxfile host="app.diagrams.net" modified="2024-05-19T06:20:28.973Z" agent="Mozilla/5.0 (Windows NT 10.0; Win64; x64) AppleWebKit/537.36 (KHTML, like Gecko) Chrome/125.0.0.0 Safari/537.36" etag="WoJVP4iFWSjI7ZsB4Ln1" version="22.1.21" type="device">
  <diagram name="Page-1" id="dOmZzOSA5SX58wjLgI48">
    <mxGraphModel dx="1615" dy="832" grid="0" gridSize="10" guides="1" tooltips="1" connect="1" arrows="1" fold="1" page="1" pageScale="1" pageWidth="4681" pageHeight="3300" math="0" shadow="0">
      <root>
        <mxCell id="0" />
        <mxCell id="1" parent="0" />
        <mxCell id="LmYF8_jIb47NEIPZJP37-46" style="edgeStyle=orthogonalEdgeStyle;shape=connector;rounded=0;orthogonalLoop=1;jettySize=auto;html=1;exitX=1;exitY=0.75;exitDx=0;exitDy=0;labelBackgroundColor=default;strokeColor=#336600;strokeWidth=5;align=center;verticalAlign=middle;fontFamily=Helvetica;fontSize=11;fontColor=default;endArrow=classic;entryX=0;entryY=0.75;entryDx=0;entryDy=0;" edge="1" parent="1" source="LmYF8_jIb47NEIPZJP37-32" target="LmYF8_jIb47NEIPZJP37-28">
          <mxGeometry relative="1" as="geometry">
            <mxPoint x="1750" y="290" as="targetPoint" />
            <Array as="points">
              <mxPoint x="1900" y="237" />
              <mxPoint x="1900" y="290" />
              <mxPoint x="370" y="290" />
              <mxPoint x="370" y="237" />
            </Array>
          </mxGeometry>
        </mxCell>
        <mxCell id="LmYF8_jIb47NEIPZJP37-35" style="edgeStyle=orthogonalEdgeStyle;shape=connector;rounded=0;orthogonalLoop=1;jettySize=auto;html=1;exitX=0.5;exitY=1;exitDx=0;exitDy=0;entryX=0.5;entryY=0;entryDx=0;entryDy=0;labelBackgroundColor=default;strokeColor=#336600;strokeWidth=5;align=center;verticalAlign=middle;fontFamily=Helvetica;fontSize=11;fontColor=default;endArrow=classic;" edge="1" parent="1" source="LmYF8_jIb47NEIPZJP37-3" target="LmYF8_jIb47NEIPZJP37-28">
          <mxGeometry relative="1" as="geometry">
            <Array as="points">
              <mxPoint x="500" y="99" />
            </Array>
          </mxGeometry>
        </mxCell>
        <mxCell id="LmYF8_jIb47NEIPZJP37-3" value="" style="shape=image;verticalLabelPosition=bottom;labelBackgroundColor=default;verticalAlign=top;aspect=fixed;imageAspect=0;image=data:image/png,iVBORw0KGgoAAAANSUhEUgAABK4AAAErCAIAAAB4vVzkAAAgAElEQVR4Ae3dv45l55We8boCJbqB7pZmhhgMoNFU5NiRL8EgfAsm4Ntg7MhRBxM6cDQZJ/EtEBgYcCZ3IjDoAQERxIBtiEXVdHfVfqpq7fOus769H0Iw5LPqW39+36nee4nU6Obd7e2729sfv/32T998c/fv393e/rcvvvjNp3+98S8FFFBAAQXGC/zXL764f5bd/Zvv37796f3777766rPPv/vqq5/ev//42ffjt99++PDh3/7whz9++eXHPzx+aBtUQAEFFFDgzafb2+P/v99++tfN3dPus1Xw//3+9x8/Bf33CigQEvhff/M3ocymVeCkAv/wD58N/ugq+Mcvv/y3P/zhfuv7eC18//XXP/3rv77/+uvP8vj/VUCBSwn8y+9+d6lU5lFAgZcK/Ie/+qv7ffDPq+DdE/Hj/2T0v/z61zf+pYACCiigwGoC//nXv/7sofhwFfxsD3x3e/vZz/z47bc/fvvtfZ7VDOxXAQUUUECBTYG7v114tw3++yr4/du39489V8FNPAMKKKCAAoMFnlwF7/bAjzc9V8HB92lrCiiggAIXFrj/J0d/+9vf3nz31Vef/aeh725vXQUvTG46BRRQQIEWgSdXwR+//fb+nwu9/w9AP/sHRD/88MPH//FoS+MWUUABBRRQoEPgfhX8zW9+c/Ph578+fua5CnZcgjUUUEABBQICvArerXx3D767//f+/6LM+6+//vDDD48+EwNtmlIBBRRQQIHrCHyyCt7/Z6If/xv/ruB1bsaqCiiggAL7BB6ugh8/3Wr/fl9HnlZAAQUUUGCQgKvgoMuwFQUUUECBCwq4Cl4Q01QKKKCAAscTePPm3/9nJ375H5P47D8o9e8KHu/WnUgBBRQ4g4Cr4Blu2RkVUEABBcoCd/8LjHd/b/Dm//z8PyH4L7/73cf/+k+/+lU5uwcVUEABBRS4lsB//NWv/udf//Vl/3WtWayrgAIKKKDAxQXuVsG7vzd48+bNm3e3txevYUIFFFBAAQUUUEABBRRQQIFRAp+sgq9fv3YVHHU9NqOAAgoooIACCiiggAIKJATuV8E3b97cuAomiM2pgAIKKKCAAgoooIACCkwTeP369f026Co47XbsRwEFFFBAAQUUUEABBRSICLgKRlhNqoACCiiggAIKKKCAAgpMFnj98193f2PQvys4+absTQEFFFBAAQUUUEABBRS4mICr4MUoTaSAAgoooIACCiiggAIKrCLwySr46tUr/y+IrnJz9qmAAgoooIACCiiggAIKlAXuVsG7/8bgjatg2dGDCiiggAIKKKCAAgoooMBCAq9evbr/G4OuggtdnK0qoIACCiiggAIKKKCAAnUBV8G6nScVUEABBRRQQAEFFFBAgUUFXAUXvTjbVkABBRRQQAEFFFBAAQXqAver4OvXr/0HROuOnlRAAQUUUEABBRRQQAEFFhJ49fNfd/91QVfBhS7OVhVQQAEFFFBAAQUUUECBuoCrYN3OkwoooIACCiiggAIKKKDAogKugotenG0roIACCiiggAIKKKCAAnUBV8G6nScVUEABBRRQQAEFFFBAgUUFXAUXvTjbVkABBRRQQAEFFFBAAQXqAq6CdTtPKqCAAgoooIACCiiggAKLCrgKLnpxtq2AAgoooIACCiiggAIK1AVcBet2nlRAAQUUUEABBRRQQAEFFhVwFVz04mxbAQUUUEABBRRQQAEFFKgLuArW7TypgAIKKKCAAgoooIACCiwq4Cq46MXZtgIKKKCAAgoooIACCihQF3AVrNt5UgEFFFBAAQUUUEABBRRYVMBVcNGLs20FFFBAAQUUUEABBRRQoC7gKli386QCCiiggAIKKKCAAgoosKiAq+CiF2fbCiiggAIKKKCAAgoooEBdwFWwbudJBRRQQAEFFFBAAQUUUGBRAVfBRS/OthVQQAEFFFBAAQUUUECBuoCrYN3OkwoooIACCiiggAIKKKDAogKugotenG0roIACCiiggAIKKKCAAnUBV8G6nScVUEABBRRQQAEFFFBAgUUFXAUXvTjbVkABBRRQQAEFFFBAAQXqAq6CdTtPKqCAAgoooIACCiiggAKLCrgKLnpxtq2AAgoooIACCiiggAIK1AVcBet2nlRAAQUUUEABBRRQQAEFFhVwFVz04mxbAQUUUEABBRRQQAEFFKgLuArW7TypwNoCHz7cwL/mzAZNfvgwp81ZnQDarEbtRgEFniHgb/QzkPwRBRQoCLgKFtA8osAhBODdYtSKtUqfo74UgDaqT5tRQIHnCPgb/Rwlf0YBBV4u4Cr4cjNPKHAMAXi3cBVc/Yrhclcfzf4VOKGAv9EnvHRHVqBFwFWwhdkiCgwUgHcLV8GB9/WiluByX5THH1ZAgQkC/kZPuAV7UOCIAq6CR7xVZ1LgOQLwbuEq+BzAyT8Dlzu5bXtTQIFHBfyNfpTFDxVQYLeAq+BuQhMosKgAvFu4Ci56p/dtw+Xe/4z/RgEFVhHwN3qVm7JPBVYTcBVc7cbsV4FLCcC7havgpZCvlQcu91otWVcBBcoC/kaX6TyogAIo4CqIPAYVOLAAvFu4Cq5+73C5q49m/wqcUMDf6BNeuiMr0CLgKtjCbBEFBgrAu4Wr4MD7elFLcLkvyuMPK6DABAF/oyfcgj0ocEQBV8Ej3uqQmeDR1RwaAjKtDb6FOd2u0uccsZubG0Ab1afNKKDAcwT8jX6Okj+jgAIvF3AVfLmZJ54pAI+u5tAzGz7bj/EtzNFYpc85Yq6Co+7CZhTYLwB/DO5PbgYFFDixgKvgiS8/PTo8uppD6UkXzc+3MGeoVfqcI+YqOOoubEaB/QLwx+D+5GZQQIETC7gKnvjy06PDo6s5lJ500fx8C3OGWqXPOWKugqPuwmYU2C8AfwzuT24GBRQ4sYCr4IkvPz06PLqaQ+lJF83PtzBnqFX6nCPmKjjqLmxGgf0C8Mfg/uRmUECBEwu4Cp748tOjw6OrOZSedNH8fAtzhlqlzzliroKj7sJmFNgvAH8M7k9uBgUUOLGAq+CJLz89Ojy6mkPpSRfNz7cwZ6hV+pwj5io46i5sRoH9AvDH4P7kZlBAgRMLuAqe+PLTo8OjqzmUnnTR/HwLc4Zapc85Yq6Co+7CZhTYLwB/DO5PbgYFFDixgKvgiS8/PTo8uppD6UkXzc+3MGeoVfqcI+YqOOoubEaB/QLwx+D+5GZQQIETC7gKnvjy06M3P7qay6X1GvKD2IcPxfqr5OTxeIpalCtePApNXrwWJ4ROyiGumIiWW4WDS/TJTcJ0EOKciSg0Uw4l+oSc0CecMqSAAgo8JeAq+JSQ8bJA86OruVyZZc5BEHMVZJxCtPneocM5nUCTHGoegf8uK7cK0cQUUK4W4iYTObliLVrrk0/VOimfgmbKOT2ogAIK3Ny4CvotiAk0P7qay8XY+hKDmKsg4xSifff6cyXocE4n0CSHmkdwFdwC52vaim5ly32+1cmez3PdPpoZWn305/1QAQUUeJ6Aq+DznPypgkDzo6u5XAFk2hEQcxVknEK0+fahwzmdQJMcah7BVXALnK9pK7qVLff5Vid7Ps91+2hmaPXRn/dDBRRQ4HkCroLPc/KnCgLNj67mcgWQaUdAzFWQcQrR5tuHDud0Ak1yqHkEV8EtcL6mrehWttznW53s+TzX7aOZodVHf94PFVBAgecJuAo+z8mfKgg0P7qayxVAph0BMVdBxilEm28fOpzTCTTJoeYRXAW3wPmatqJb2XKfb3Wy5/Nct49mhlYf/Xk/VEABBZ4n4Cr4PCd/qiDQ/OhqLlcAmXYExFwFGacQbb596HBOJ9Akh5pHcBXcAudr2opuZct9vtXJns9z3T6aGVp99Of9UAEFFHiegKvg85z8qYJA86OruVwBZNoREHMVZJxCtPn2ocM5nUCTHGoewVVwC5yvaSu6lS33+VYnez7PdftoZmj10Z/3QwUUUOB5Aq6Cz3PypwoCzY+u5nIFkGlHQMxVkHEK0ebbhw7ndAJNcqh5BFfBLXC+pq3oVrbc51ud7Pk81+2jmaHVR3/eDxVQQIHnCbgKPs/JnyoIND+6mssVQKYdATFXQcYpRJtvHzqc0wk0yaHmEVwFt8D5mraiW9lyn291sufzXLePZoZWH/15P1RAAQWeJ+Aq+Dwnf6og0Pzoai5XAJl2BMQOvwomZuf7hYp8sBY9bblRX12+u8QdXTwnJBxFneiz//qgIgwIpwwpoIACTwm4Cj4lZLws0Pzoai5XZplzEMQO/5KXmJ1vFirywVr0tOVGfXX57hJ3dPGckHAUdaLP/uuDijAgnDKkgAIKPCXgKviUkPGyQPOjq7lcmWXOQRA7/EteYna+WajIB2vR05Yb9dXlu0vc0cVzQsJR1Ik++68PKsKAcMqQAgoo8JSAq+BTQsbLAs2PruZyZZY5B0Hs8C95idn5ZqEiH6xFT1tu1FeX7y5xRxfPCQlHUSf67L8+qAgDwilDCiigwFMCroJPCRkvCzQ/uprLlVnmHASxw7/kJWbnm4WKfLAWPW25UV9dvrvEHV08JyQcRZ3os//6oCIMCKcMKaCAAk8JuAo+JWS8LND86GouV2aZcxDEDv+Sl5idbxYq8sFa9LTlRn11+e4Sd3TxnJBwFHWiz/7rg4owIJwypIACCjwl4Cr4lJDxskDzo6u5XJllzkEQO/xLXmJ2vlmoyAdr0dOWG/XV5btL3NHFc0LCUdSJPvuvDyrCgHDKkAIKKPCUgKvgU0LGywLNj67mcmWWOQdB7PAveYnZ+WahIh+sRU9bbtRXl+8ucUcXzwkJR1En+uy/PqgIA8IpQwoooMBTAq6CTwkZLws0P7qay5VZ5hwEscO/5CVm55uFinywFj1tuVFfXb67xB1dPCckHEWd6LP/+qAiDAinDCmggAJPCbgKPiVkvCzQ/OhqLldmmXMQxA7/kpeYnW8WKvLBWvTY5WomfArEyr8O5Yp8EKIwBZyCECQss6ySE1hubm5gCj5YizaXqzXpKQUUWFDAVXDBS1ul5eZHV3O5VW4B+gSxw7/kJWYH6sO/OIIns8yJwgjlXweeDiryQYhePCckLLOskhOcD/8bzbMbVUCBAwm4Ch7oMqeNAs/7RKvN5RIjNOcEscO/5CVm5+uDinywFj12uZoJnwKx8q9DuSIfhChMAacgBAnLLKvkBBZXQcYxqoAC6wi4Cq5zV8t1Cs/7xCzN5RIjNOcEscO/5CVm5+uDinywFj12uZoJnwKx8q9DuSIfhChMAacgBAnLLKvkBBZXQcYxqoAC6wi4Cq5zV8t1Cs/7xCzN5RIjNOcEscO/5CVm5+uDinywFj12uZoJnwKx8q9DuSIfhChMAacgBAnLLKvkBBZXQcYxqoAC6wi4Cq5zV8t1Cs/7xCzN5RIjNOcEscO/5CVm5+uDinywFj12uZoJnwKx8q9DuSIfhChMAacgBAnLLKvkBBZXQcYxqoAC6wi4Cq5zV8t1Cs/7xCzN5RIjNOcEscO/5CVm5+uDinywFj12uZoJnwKx8q9DuSIfhChMAacgBAnLLKvkBBZXQcYxqoAC6wi4Cq5zV8t1Cs/7xCzN5RIjNOcEscO/5CVm5+uDinywFj12uZoJnwKx8q9DuSIfhChMAacgBAnLLKvkBBZXQcYxqoAC6wi4Cq5zV8t1Cs/7xCzN5RIjNOcEscO/5CVm5+uDinywFj12uZoJnwKx8q9DuSIfhChMAacgBAnLLKvkBBZXQcYxqoAC6wi4Cq5zV9FO+dl88Whilos3WX7RSUyXyMlitYrHyMlTXDxao+ZT0CQfrEWby9Wa5FMwQuiPAqjIrUL04jkhYZmlPydXvHgULqgcgibLOT2ogAIK3Ny4Cvot+FkAHjOJUEJ9lT4Ts9dystiZc7LMxaM1aj4FTfLBWrS5XK1JPgUjlHeeckU+CFGYAk5BCBKWWfpzcsWLR8GzHIImyzk9qIACCrgK+h34RQAeM4lQwn2VPhOz13Ky2JlzsszFozVqPgVN8sFatLlcrUk+BSOUd55yRT4IUZgCTkEIEpZZ+nNyxYtHwbMcgibLOT2ogAIKuAr6HfhFAB4ziVDCfZU+E7PXcrLYmXOyzMWjNWo+BU3ywVq0uVytST4FI5R3nnJFPghRmAJOQQgSlln6c3LFi0fBsxyCJss5PaiAAgq4Cvod+EUAHjOJUMJ9lT4Ts9dystiZc7LMxaM1aj4FTfLBWrS5XK1JPgUjlHeeckU+CFGYAk5BCBKWWfpzcsWLR8GzHIImyzk9qIACCrgK+h34RQAeM4lQwn2VPhOz13Ky2JlzsszFozVqPgVN8sFatLlcrUk+BSOUd55yRT4IUZgCTkEIEpZZ+nNyxYtHwbMcgibLOT2ogAIKuAr6HfhFAB4ziVDCfZU+E7PXcrLYmXOyzMWjNWo+BU3ywVq0uVytST4FI5R3nnJFPghRmAJOQQgSlln6c3LFi0fBsxyCJss5PaiAAgq4Cvod+EUAHjOJUMJ9lT4Ts9dystiZc7LMxaM1aj4FTfLBWrS5XK1JPgUjlHeeckU+CFGYAk5BCBKWWfpzcsWLR8GzHIImyzk9qIACCrgK+h34RQAeM4lQwn2VPhOz13Ky2JlzsszFozVqPgVN8sFatLlcrUk+BSOUd55yRT4IUZgCTkEIEpZZ+nNyxYtHwbMcgibLOT2ogAIKuAr6HfhFIPGYSeSEC0uUS+SEEZpDMN1CL3k1tMTstU5Cp2DARMXmcs0jlH8duM8E2sVzQsIyyyo5+fqao4DW3InlFFDgWAL+T8wf6z7L0yQeM4mcMGCiXCInjNAcgukO/5KXmL35+rgcDMgHa9HmcrUm+RSMUP51KFfkgxCFKeAUhCBhmWWVnMDSHwK0/masqIACBxJwFTzQZe4ZJfGYSeSEGRPlEjlhhOYQTHf4l7zE7M3Xx+VgQD5YizaXqzXJp2CE8q9DuSIfhChMAacgBAnLLKvkBJb+EKD1N2NFBRQ4kICr4IEuc88oicdMIifMmCiXyAkjNIdgusO/5CVmb74+LgcD8sFatLlcrUk+BSOUfx3KFfkgRGEKOAUhSFhmWSUnsPSHAK2/GSsqoMCBBFwFD3SZe0ZJPGYSOWHGRLlEThihOQTTHf4lLzF78/VxORiQD9aizeVqTfIpGKH861CuyAchClPAKQhBwjLLKjmBpT8EaP3NWFEBBQ4k4Cp4oMvcM0riMZPICTMmyiVywgjNIZju8C95idmbr4/LwYB8sBZtLldrkk/BCOVfh3JFPghRmAJOQQgSlllWyQks/SFA62/GigoocCABV8EDXeaeURKPmUROmDFRLpETRmgOwXSHf8lLzN58fVwOBuSDtWhzuVqTfApGKP86lCvyQYjCFHAKQpCwzLJKTmDpDwFafzNWVECBAwm4Ch7oMveMknjMJHLCjIlyiZwwQnMIpjv8S15i9ubr43IwIB+sRZvL1ZrkUzBC+dehXJEPQhSmgFMQgoRlllVyAkt/CND6m7GiAgocSMBV8ECXuWeUxGMmkRNmTJRL5IQRmkMw3eFf8hKzN18fl4MB+WAt2lyu1iSfghHKvw7linwQojAFnIIQJCyzrJITWPpDgNbfjBUVUOBAAq6CB7rMPaMkHjOJnDBjolwiJ4zQHILpDv+Sl5i9+fq4HAzIB2vR5nK1JvkUjFD+dShX5IMQhSngFIQgYZlllZzA0h8CtP5mrKiAAgcScBU80GXyKPAgMVQQYO0lojx1bYQz52QxkOGDtehpy43aT/juEneUyMlTFKLQ5Mmvr4DpEQUUUGCfgKvgPr+FTvPT1+hLBRa6+q1WeeStU/z5mXOWZfhgLQoXUUvIp+aUO/ku0XwR/K3YikKTJ7++LTE/V0ABBWICroIx2mmJ+elr9KUC0+630A+PXEh4c3Nz5pwsBjJ8sBY9bbmT7xLN937xL+fJr6/m6SkFFFBgh4Cr4A68tY7CK4KhgsBat/9otzz1o0ee/PDMORkHZPhgLXraciffJZrv/eJfzpNfX83TUwoooMAOAVfBHXhrHYVXBEMFgbVu/9FueepHjzz54ZlzMg7I8MFa9LTlTr5LNN/7xb+cJ7++mqenFFBAgR0CroI78NY6Cq8IhgoCa93+o93y1I8eefLDM+dkHJDhg7XoacudfJdovveLfzlPfn01T08poIACOwRcBXfgrXUUXhEMFQTWuv1Hu+WpHz3y5Idnzsk4IMMHa9HTljv5LtF87xf/cp78+mqenlJAAQV2CLgK7sBb6yi8IhgqCKx1+492y1M/euTJD8+ck3FAhg/Woqctd/JdovneL/7lPPn11Tw9pYACCuwQcBXcgbfWUXhFMFQQWOv2H+2Wp370yJMfnjkn44AMH6xFT1vu5LtE871f/Mt58uureXpKAQUU2CHgKrgDb+DRJd4DBroVWgLq8ttMoY3cER5wK8r9bJ3izzlnIsr91KKJPms5of9aQj4F5cohrpiIlluFg819JsrVcoJJ6A9PrliL1mYvn4Imyzk9qIACCtzcuAoe61vg06LtPoE69DbTNtpdIR5wK8pNbp3izzlnIsr91KKJPms5of9aQj4F5cohrpiIlluFg819JsrVcoJJ6A9PrliL1mYvn4Imyzk9qIACCrgKHu074NOi7UaBOvQ20zbaXSEecCvKTW6d4s85ZyLK/dSiiT5rOaH/WkI+BeXKIa6YiJZbhYPNfSbK1XKCSegPT65Yi9ZmL5+CJss5PaiAAgq4Ch7tO+DTou1GgTr0NtM22l0hHnAryk1uneLPOWciyv3Uook+azmh/1pCPgXlyiGumIiWW4WDzX0mytVygknoD0+uWIvWZi+fgibLOT2ogAIKuAoe7Tvg06LtRoE69DbTNtpdIR5wK8pNbp3izzlnIsr91KKJPms5of9aQj4F5cohrpiIlluFg819JsrVcoJJ6A9PrliL1mYvn4Imyzk9qIACCrgKHu074NOi7UaBOvQ20zbaXSEecCvKTW6d4s85ZyLK/dSiiT5rOaH/WkI+BeXKIa6YiJZbhYPNfSbK1XKCSegPT65Yi9ZmL5+CJss5PaiAAgq4Ch7tO+DTou1GgTr0NtM22l0hHnAryk1uneLPOWciyv3Uook+azmh/1pCPgXlyiGumIiWW4WDzX0mytVygknoD0+uWIvWZi+fgibLOT2ogAIKuAoe7Tvg06LtRoE69DbTNtpdIR5wK8pNbp3izzlnIsr91KKJPms5of9aQj4F5cohrpiIlluFg819JsrVcoJJ6A9PrliL1mYvn4Imyzk9qIACCrgKHu074NOi7UaBOvQ20zbaXSEecCvKTW6d4s85ZyLK/dSiiT5rOaH/WkI+BeXKIa6YiJZbhYPNfSbK1XKCSegPT65Yi9ZmL5+CJss5PaiAAgq4Ch7tO+DTYsiNehFDLsI2FFBAAQUUUEABBTYE/J+Y34BZ9GM3kCEX50UMuQjbUEABBRRQQAEFFNgQcBXcgFn0YzeQIRfnRQy5CNtQQAEFFFBAAQUU2BBwFdyAWfRjN5AhF+dFDLkI21BAAQUUUEABBRTYEHAV3IBZ9GM3kCEX50UMuQjbUEABBRRQQAEFFNgQcBXcgFn0YzeQIRfnRQy5CNtQQAEFFFBAAQUU2BBwFdyAWfRjN5AhF+dFDLkI21BAAQUUUEABBRTYEHAV3IBZ9GM3kCEX50UMuQjbUEABBRRQQAEFFNgQcBXcgFn0YzeQIRfnRQy5CNtQQAEFFFBAAQUU2BBwFdyAWfRjN5AhF+dFDLkI21BAAQUUUEABBRTYEPhkFfzHv/u7d7e3/+PNm0f/9d9fv95I4sdjBFbZQKDPRKj/fmCK/masqIACCiiggAIKKKDAA4FPVsF3t7fwr//7+98/OO4HwwRW2UCgz0So/5Zgiv5mrKiAAgoooIACCiigwAMBV8EHJEt/sMoGAn0mQv13ClP0N2NFBRRQQAEFFFBAAQUeCLgKPiBZ+oNVNhDoMxHqv1OYor8ZKyqggAIKKKCAAgoo8EDgkVXwT9988+Evf33/9u39PzLqPyD6QG/eB6tsINBnItR/UTBFfzNWVEABBRRQQAEFFFDggcDnq+D3b9/+9P79d1999e729vu3bz/88MP7r7++2wZdBR/ozftglQ0E+kyE+i8KpuhvxooKKKCAAgoooIACCjwQ+HwVvP97gO9ub7/76quf3r+//xuDroIP9OZ9sMoGAn0mQv0XBVP0N2NFBRRQQAEFFFBAAQUeCLgKPiBZ+oNVNhDoMxHqv1OYor8ZKyqggAIKKKCAAgoo8ECAVsE/ffPN/T8s+u721r8r+EBv3gerbCDQZyLUf1EwRX8zVlRAAQUUUEABBRRQ4IHAJ6vgH7/88v4fEP3zf1Hww4f7fzrUVfAB3cgPVtlAoE8OgTochFOh0KhmajPCCOVQrRNPKaCAAtME4I/Baa3ajwIKKLAt8MkqeP9/IebhHugquG04KbLKwwn65BBgw0E4FQqNaqY2I4xQDtU68ZQCCigwTQD+GJzWqv0ooIAC2wKfrIKP/h8Ovf/7hP4DotuMYyKrPJygTw6BNByEU6HQqGZqM8II5VCtE08poIAC0wTgj8FprdqPAgoosC3wySr47vb2/ddff/jhh4//uVBXwW29eZFVHk7QJ4eAHA7CqVBoVDO1GWGEcqjWiacUUECBaQLwx+C0Vu1HAQUU2Bb4fBX8+H9f/u5/Z/5P33xztw36dwW3GcdEVnk4QZ8cAmk4CKdCoVHN1GaEEcqhWieeUkABBaYJwB+D01q1HwUUUGBb4PNV8P7vAT78N66C24xjIqs8nKBPDoE0HIRTodCoZmozwgjlUK0TTymggALTBOCPwWmt2o8CCiiwLeAquG2zYmSVhxP0ySG4FDgIp0KhUc3UZoQRyqFaJ55SQAEFpgnAH4PTWrUfBRRQYFvAVXDbZsXIKg8n6JNDcClwEE6FQqOaqc0II/191rYAABh2SURBVJRDtU48pYACCkwTgD8Gp7VqPwoooMC2wCer4P/++79/d3v7z3/7t4/+65+++GI7j5EZAqs8nKBPDgEzHIRTodCoZmozwgjlUK0TTymggALTBOCPwWmt2o8CCiiwLfDJKvjq1at3t7fbP2xkZQF4bn340D0YNFNuJZHzGM1sTQFioa8EVNxqcs/nzeX2tOrZqwvAtyX063D1kW1gjwB8Yfak9awCCijQK+Aq2Ot9xWrw3Op/0YFmykSJnMdoZmsKEAt9JaDiVpN7Pm8ut6dVz15dAL4toV+Hq49sA3sE4AuzJ61nFVBAgV4BV8Fe7ytWg+dW/4sONFMmSuQ8RjNbU4BY6CsBFbea3PN5c7k9rXr26gLwbQn9Olx9ZBvYIwBfmD1pPauAAgr0CrgK9npfsRo8t/pfdKCZMlEi5zGa2ZoCxEJfCai41eSez5vL7WnVs1cXgG9L6Nfh6iPbwB4B+MLsSetZBRRQoFfAVbDX+4rV4LnV/6IDzZSJEjmP0czWFCAW+kpAxa0m93zeXG5Pq569ugB8W0K/Dlcf2Qb2CMAXZk9azyqggAK9Aq6Cvd5XrAbPrf4XHWimTJTIeYxmtqYAsdBXAipuNbnn8+Zye1r17NUF4NsS+nW4+sg2sEcAvjB70npWAQUU6BVwFez1vmI1eG71v+hAM2WiRM5jNLM1BYiFvhJQcavJPZ83l9vTqmevLgDfltCvw9VHtoE9AvCF2ZPWswoooECvgKtgr/cVq8Fzq/9FB5opEyVyHqOZrSlALPSVgIpbTe75vLncnlY9e3UB+LaEfh2uPrIN7BGAL8yetJ5VQAEFegVcBXu9r1gNnlv9LzrQTJkokfMYzWxNAWKhrwRU3Gpyz+fN5fa06tmrC8C3JfTrcPWRbWCPAHxh9qT1rAIKKNAr4CrY633FavDc6n/RgWbKRImcx2hmawoQC30loOJWk3s+by63p1XPXl0Avi2hX4erj2wDewTgC7MnrWcVUECBXgFXwV7vsdXgqdYcKhM198nlylN0HjzACDc3NzzFxaOJC7p4k6HVBfoss0BOCDWXg044lOiznBMOwhRwikOQMxHiZhJRmCJRzpwKKKBARsBVMOO6XFZ4qjWHynTNfXK58hSdBw8wgqvg1iUmvkhbtfZsnpATQuXpIGcilOiznBMOwuxwikOQMxHiZhJRmCJRzpwKKKBARsBVMOO6XFZ4qjWHynTNfXK58hSdBw8wgqvg1iUmvkhbtVwFt2TKt7CVcA81NJMoBzkTIZguFIIpQhVNq4ACCgQEXAUDqCumhKdac6is19wnlytP0XnwACO4Cm5dYuKLtFVrz34COSFUng5yJkKJPss54SDMDqc4BDkTIW4mEYUpEuXMqYACCmQEXAUzrstlhadac6hM19wnlytP0XnwACO4Cm5dYuKLtFXLVXBLpnwLWwn3UEMziXKQMxGC6UIhmCJU0bQKKKBAQMBVMIC6Ykp4qjWHynrNfXK58hSdBw8wgqvg1iUmvkhbtfbsJ5ATQuXpIGcilOiznBMOwuxwikOQMxHiZhJRmCJRzpwKKKBARsBVMOO6XFZ4qjWHynTNfXK58hSdBw8wgqvg1iUmvkhbtVwFt2TKt7CVcA81NJMoBzkTIZguFIIpQhVNq4ACCgQEXAUDqCumhKdac6is19wnlytP0XnwACO4Cm5dYuKLtFVrz34COSFUng5yJkKJPss54SDMDqc4BDkTIW4mEYUpEuXMqYACCmQEXAUzrstlhadac6hM19wnlytP0XnwACO4Cm5dYuKLtFXLVXBLpnwLWwn3UEMziXKQMxGC6UIhmCJU0bQKKKBAQMBVMIBqyicF4CGaCD3Zzzl/gKkPYAID9k/X3EyiXC0nnAotNrXLHdUnNFObjk8lyiVywhRQLvQ1g4rQpyEFFFBgmICr4LALOUk78BBNhE6i+tIxmfql2Qb+PAzY321zM4lytZxwKvSOXrvcUX1CM7Xp+FSiXCInTAHlQl8zqAh9GlJAAQWGCbgKDruQk7QDD9FE6CSqLx2TqV+abeDPw4D93TY3kyhXywmnQu/otcsd1Sc0U5uOTyXKJXLCFFAu9DWDitCnIQUUUGCYgKvgsAs5STvwEE2ETqL60jGZ+qXZBv48DNjfbXMziXK1nHAq9I5eu9xRfUIzten4VKJcIidMAeVCXzOoCH0aUkABBYYJuAoOu5CTtAMP0UToJKovHZOpX5pt4M/DgP3dNjeTKFfLCadC7+i1yx3VJzRTm45PJcolcsIUUC70NYOK0KchBRRQYJiAq+CwCzlJO/AQTYROovrSMZn6pdkG/jwM2N9tczOJcrWccCr0jl673FF9QjO16fhUolwiJ0wB5UJfM6gIfRpSQAEFhgm4Cg67kJO0Aw/RROgkqi8dk6lfmm3gz8OA/d02N5MoV8sJp0Lv6LXLHdUnNFObjk8lyiVywhRQLvQ1g4rQpyEFFFBgmICr4LALOUk78BBNhE6i+tIxmfql2Qb+PAzY321zM4lytZxwKvSOXrvcUX1CM7Xp+FSiXCInTAHlQl8zqAh9GlJAAQWGCbgKDruQk7QDD9FE6CSqLx2TqV+abeDPw4D93TY3kyhXywmnQu/otcsd1Sc0U5uOTyXKJXLCFFAu9DWDitCnIQUUUGCYgKvgsAuxHQWGCMCLTjnUPBr02dxJf7nE7JATQv2z1yrCCKFdAvqEZuBUOZQol8gJA0K50PVBRejTkAIKKDBMwFVw2IXYjgJDBOBFpxxqHg36bO6kv1xidsgJof7ZaxVhhNAuAX1CM3CqHEqUS+SEAaFc6PqgIvRpSAEFFBgm4Co47EJsR4EhAvCiUw41jwZ9NnfSXy4xO+SEUP/stYowQmiXgD6hGThVDiXKJXLCgFAudH1QEfo0pIACCgwTcBUcdiG2o8AQAXjRKYeaR4M+mzvpL5eYHXJCqH/2WkUYIbRLQJ/QDJwqhxLlEjlhQCgXuj6oCH0aUkABBYYJuAoOuxDbUWCIALzolEPNo0GfzZ30l0vMDjkh1D97rSKMENoloE9oBk6VQ4lyiZwwIJQLXR9UhD4NKaCAAsMEXAWHXYjtKDBEAF50yqHm0aDP5k76yyVmh5wQ6p+9VhFGCO0S0Cc0A6fKoUS5RE4YEMqFrg8qQp+GFFBAgWECroLDLsR2FBgiAC865VDzaNBncyf95RKzQ04I9c9eqwgjhHYJ6BOagVPlUKJcIicMCOVC1wcVoU9DCiigwDABV8FhF2I7CgwRgBedcqh5NOizuZP+conZISeE+mevVYQRQrsE9AnNwKlyKFEukRMGhHKh64OK0KchBRRQYJiAq+CwC7EdBYYIwItOOdQ8GvTZ3El/ucTskBNC/bPXKsIIoV0C+oRm4FQ5lCiXyAkDQrnQ9UFF6NOQAgooMEzAVXDYhdiOAkME4EWnHGoeDfps7qS/XGJ2yAmh/tlrFWGE0C4BfUIzcKocSpRL5IQBoVzo+qAi9GlIAQUUGCbgKjjsQmxHgQMLNL88NZcrXxz0mQgl+iznnHOQqZv7hGYSnSTKJXLC7FDOVRDcDCmgwOkFXAVP/xUQQIE2AXhdS/TQXK48AvSZCCX6LOecc5Cpm/uEZhKdJMolcsLsUM5VENwMKaDA6QVcBU//FRBAgTYBeF1L9NBcrjwC9JkIJfos55xzkKmb+4RmEp0kyiVywuxQzlUQ3AwpoMDpBVwFT/8VEECBNgF4XUv00FyuPAL0mQgl+iznnHOQqZv7hGYSnSTKJXLC7FDOVRDcDCmgwOkFXAVP/xUQQIE2AXhdS/TQXK48AvSZCCX6LOecc5Cpm/uEZhKdJMolcsLsUM5VENwMKaDA6QVcBU//FRBAgTYBeF1L9NBcrjwC9JkIJfos55xzkKmb+4RmEp0kyiVywuxQzlUQ3AwpoMDpBVwFT/8VEECBNgF4XUv00FyuPAL0mQgl+iznnHOQqZv7hGYSnSTKJXLC7FDOVRDcDCmgwOkFXAVP/xUQQIE2AXhdS/TQXK48AvSZCCX6LOecc5Cpm/uEZhKdJMolcsLsUM5VENwMKaDA6QVcBU//FRBAgTYBeF1L9NBcrjwC9JkIJfos55xzkKmb+4RmEp0kyiVywuxQzlUQ3AwpoMDpBVwFT/8VEECBNgF4XUv00FyOR2huJlEukZPROqMwXWiXgOmgGThVDiXKJXLCgFAudH1QEfo0pIACCgwTcBUcdiG2o8CBBZpfnprL8cU1N5Mol8jJaJ1RmC60S8B00AycKocS5RI5YUAoF7o+qAh9GlJAAQWGCbgKDrsQ21HgwALNL0/N5fjimptJlEvkZLTOKEwX2iVgOmgGTpVDiXKJnDAglAtdH1SEPg0poIACwwRcBYddiO0ocGCB5pen5nJ8cc3NJMolcjJaZxSmC+0SMB00A6fKoUS5RE4YEMqFrg8qQp+GFFBAgWECroLDLsR2FDiwQPPLU3M5vrjmZhLlEjkZrTMK04V2CZgOmoFT5VCiXCInDAjlQtcHFaFPQwoooMAwAVfBYRdiOwocWKD55am5HF9cczOJcomcjNYZhelCuwRMB83AqXIoUS6REwaEcqHrg4rQpyEFFFBgmICr4LALsR0FDizQ/PLUXI4vrrmZRLlETkbrjMJ0oV0CpoNm4FQ5lCiXyAkDQrnQ9UFF6NOQAgooMEzAVXDYhdiOAgcWaH55ai7HF9fcTKJcIiejdUZhutAuAdNBM3CqHEqUS+SEAaFc6PqgIvRpSAEFFBgm4Co47EJsR4EDCzS/PDWX44trbiZRLpGT0TqjMF1ol4DpoBk4VQ4lyiVywoBQLnR9UBH6NKSAAgoME3AVHHYhtqNAmwC8yhzj5QkGbEO+L9TcTKJcIue9z9X/DUwX+nWAkaEZOFUOJcolcsKAUK7/+qBPQwoooMAwAVfBYRdiOwq0CfS/PEHFxNTN5XiE5mYS5RI5Ga0zCtP17xLQTMIkUS6RE2aHcv3XB30aUkABBYYJuAoOuxDbUaBNoP/lCSompm4uxyM0N5Mol8jJaJ1RmK5/l4BmEiaJcomcMDuU678+6NOQAgooMEzAVXDYhdiOAm0C/S9PUDExdXM5HqG5mUS5RE5G64zCdP27BDSTMEmUS+SE2aFc//VBn4YUUECBYQKugsMuxHYUaBPof3mCiompm8vxCM3NJMolcjJaZxSm698loJmESaJcIifMDuX6rw/6NKSAAgoME3AVHHYhtqNAm0D/yxNUTEzdXI5HaG4mUS6Rk9E6ozBd/y4BzSRMEuUSOWF2KNd/fdCnIQUUUGCYgKvgsAuxHQXaBPpfnqBiYurmcjxCczOJcomcjNYZhen6dwloJmGSKJfICbNDuf7rgz4NKaCAAsMEXAWHXYjtKNAm0P/yBBUTUzeX4xGam0mUS+RktM4oTNe/S0AzCZNEuUROmB3K9V8f9GlIAQUUGCbgKjjsQmxHgTaB/pcnqJiYurkcj9DcTKJcIiejdUZhuv5dAppJmCTKJXLC7FCu//qgT0MKKKDAMAFXwWEXYjsKtAn0vzxBxcTUzeV4hOZmEuUSORmtMwrT9e8S0EzCJFEukRNmh3L91wd9GlJAAQWGCbgKDrsQ21FgiAC/WtWiQ0a7ubmp9R96pyw3UztYvgUoV865ykGYHUKJ6aBcObRKnzBgYgTOOaoZbtWoAgoosC3gKrhtY0SBMwvAi045NMdz1AjlZmoHy7cA5co5VzkIs0MoMR2UK4dW6RMGTIzAOUc1w60aVUABBbYFXAW3bYwocGYBeNEph+Z4jhqh3EztYPkWoFw55yoHYXYIJaaDcuXQKn3CgIkROOeoZrhVowoooMC2gKvgto0RBc4sAC865dAcz1EjlJupHSzfApQr51zlIMwOocR0UK4cWqVPGDAxAucc1Qy3alQBBRTYFnAV3LYxosCZBeBFpxya4zlqhHIztYPlW4By5ZyrHITZIZSYDsqVQ6v0CQMmRuCco5rhVo0qoIAC2wKugts2RhQ4swC86JRDczxHjVBupnawfAtQrpxzlYMwO4QS00G5cmiVPmHAxAicc1Qz3KpRBRRQYFvAVXDbxogCZxaAF51yaI7nqBHKzdQOlm8BypVzrnIQZodQYjooVw6t0icMmBiBc45qhls1qoACCmwLuApu2xhR4MwC8KJTDs3xHDVCuZnawfItQLlyzlUOwuwQSkwH5cqhVfqEARMjcM5RzXCrRhVQQIFtAVfBbRsjCpxZAF50yqE5nqNGKDdTO1i+BShXzrnKQZgdQonpoFw5tEqfMGBiBM45qhlu1agCCiiwLeAquG1jRAEFFFBAAQUKAm5KBTSPKKCAAu0CroLt5BZUQAEFFFDg2AKugse+X6dTQIGjCLgKHuUmnUMBBRRQQIEhAq6CQy7CNhRQQAEUcBVEHoMKKKCAAgoo8FIBV8GXivnzCiigwDUEXAWvoW5NBRRQQAEFDizgKnjgy3U0BRQ4kICr4IEu01EUUEABBRSYIOAqOOEW7EEBBRR4SsBV8Ckh4woooIACCijwIgFXwRdx+cMKKKDAlQRcBa8Eb1kFFFBAAQWOKuAqeNSbdS4FFDiWgKvgse7TaRRQQAEFFLi6gKvg1a/ABhRQQIFnCLgKPgPJH1FAAQUUUECB5wu4Cj7fyp9UQAEFrifgKng9eysroIACCihwSAFXwUNeq0MpoMDhBFwFD3elDqSAAgoooMB1BVwFr+tvdQUUUOB5Aq6Cz3PypxRQQAEFFFDgmQKugs+E8scUUECBqwq4Cl6V3+IKKKCAAgocT8BV8Hh36kQKKHBEAVfBI96qMymggAIKKHBFAVfBK+JbWgEFFHi2gKvgs6n8QQUUUEABBRR4joCr4HOU/BkFFFDg2gKugte+AesroIACCihwMAFXwYNdqOMooMBBBVwFD3qxjqWAAgoooMC1BFwFryVvXQUUUOAlAq6CL9HyZxVQQAEFFFDgSQFXwSeJ/AEFFFBggICr4IBLsAUFFFBAAQUUUEABBRRQoFfAVbDX22oKKKCAAgoooIACCiigwAABV8EBl2ALCiiggAIKKKCAAgoooECvgKtgr7fVFFBAAQUUUEABBRRQQIEBAq6CAy7BFhRQQAEFFFBAAQUUUECBXgFXwV5vqymggAIKKKCAAgoooIACAwRcBQdcgi0ooIACCiiggAIKKKCAAr0CroK93lZTQAEFFFBAAQUUUEABBQYIuAoOuARbUEABBRRQQAEFFFBAAQV6BVwFe72tpoACCiiggAIKKKCAAgoMEHAVHHAJtqCAAgoooIACCiiggAIK9Aq4CvZ6W00BBRRQQAEFFFBAAQUUGCDgKjjgEmxBAQUUUEABBRRQQAEFFOgVcBXs9baaAgoooIACCiiggAIKKDBAwFVwwCXYggIKKKCAAgoooIACCijQK+Aq2OttNQUUUEABBRRQQAEFFFBggICr4IBLsAUFFFBAAQUUUEABBRRQoFfAVbDX22oKKKCAAgoooIACCiigwAABV8EBl2ALCiiggAIKKKCAAgoooECvgKtgr7fVFFBAAQUUUEABBRRQQIEBAq6CAy7BFhRQQAEFFFBAAQUUUECBXgFXwV5vqymggAIKKKCAAgoooIACAwRcBQdcgi0ooIACCiiggAIKKKCAAr0CroK93lZTQAEFFFBAAQUUUEABBQYIuAoOuARbUEABBRRQQAEFFFBAAQV6BVwFe72tpoACCiiggAIKKKCAAgoMEHAVHHAJtqCAAgoooIACCiiggAIK9Aq4CvZ6W00BBRRQQAEFFFBAAQUUGCDgKjjgEmxBAQUUUEABBRRQQAEFFOgVcBXs9baaAgoooIACCiiggAIKKDBAwFVwwCXYggIKKKCAAgoooIACCijQK+Aq2OttNQUUUEABBRRQQAEFFFBggICr4IBLsAUFFFBAAQUUUEABBRRQoFfAVbDX22oKKKCAAgoooIACCiigwAABV8EBl2ALCiiggAIKKKCAAgoooECvgKtgr7fVFFBAAQUUUEABBRRQQIEBAq6CAy7BFhRQQAEFFFBAAQUUUECBXgFXwV5vqymggAIKKKCAAgoooIACAwRevXr1+i9/3bx69erd7e2ArmxBAQUUUEABBRRQQAEFFFAgKHC/Cr5588ZVMAhtagUUUEABBRRQQAEFFFBgjoCr4Jy7sBMFFFBAAQUUUEABBRRQoEnAVbAJ2jIKKKCAAgoooIACCiigwByBv/z3BF/7D4jOuRQ7UUABBRRQQAEFFFBAAQWyAp+sgq9fv/b/bEzW2+wKKKCAAgoooIACCiigwACBu1Xwzc9/3bgKDrgRW1BAAQUUUEABBRRQQAEF4gKugnFiCyiggAIKKKCAAgoooIAC0wRev/7zf0vw7q//DylMD+rBmCqyAAAAAElFTkSuQmCC;" vertex="1" parent="1">
          <mxGeometry x="399.84" y="50" width="198" height="49.42" as="geometry" />
        </mxCell>
        <mxCell id="LmYF8_jIb47NEIPZJP37-15" value="" style="shape=image;verticalLabelPosition=bottom;labelBackgroundColor=default;verticalAlign=top;aspect=fixed;imageAspect=0;image=data:image/png,iVBORw0KGgoAAAANSUhEUgAABK4AAAEsCAYAAADq2vsLAAAAAXNSR0IArs4c6QAAAARnQU1BAACxjwv8YQUAAAAJcEhZcwAADsMAAA7DAcdvqGQAAAtqSURBVHhe7d2BTtvIGoDRzD5JIvH+b1Qpb+IL1O2FaApuCeZLOEf6tY7U7Q5jh6w+Ocl4eHhYDn9hWf7qjwMAAADAK2OM9eht/63/fNNTrPo1AAAAAPARL1vTW73pzXD13r8MAAAAAB/1pwY1favg38QqYQsAAACAt2x9a+Avv/78q3D1FKF+/PixPgIAAACAr/Hw8PD/twq6cwoAAACAiqdW9RyuRCsAAAAAav4TrQAAAAAoevNbBQEAAADgq7wKV+6+AgAAAKDCh7MDAAAAkPP7w9kBAAAAoMa3CgIAAACQ5FsFAQAAAEjy4ewAAAAAJPmMKwAAAAByXn04u7utAAAAAChxxxUAAAAASb5VEAAAAIAkd1wBAAAAkPQqXLnzCgAAAIAKd1wBAAAAkPP8rYLusgIAAACg6PcdVwIWAAAAACXeKggAAABAknAFAAAAQJJwBQAAAECScAUAAABAknAFAAAAQJJwBQAAAECScAUAAABAknAFAAAAQJJwBQAAAECScAUAAABAknAFAAAAQNJzuFqW5fkBAAAAAFS44woAAACAJOEKAAAAgCThCgAAAIAk4QoAAACAJOEKAAAAgCThCgAAAIAk4QoAAACAJOEKAAAAgCThCgAAAIAk4QoAAACAJOEKAAAAgCThCgAAAIAk4QoAAACAJOEKAAAAgCThCgAAAIAk4QpgT8uy7wA/zZ4fs7mW2d89G+Cn2fNjNgB8O8IVAAAAAEnCFQAAAABJwhUAAAAAScIVAAAAAEnCFQAAAABJwhUAAAAAScIVAAAAAEnCFQAAAABJwhXsYVmuNzTNztVsxth3Zmu4HAAAgCjhCgAAAIAk4QoAAACAJOEKAAAAgCThCgAAAIAk4QoAAACAJOEKAAAAgCThCgAAAIAk4QoAAACAJOEK4J6N8f7sbVn2naLZOj9zimbr/Mypmq31M2dvszVczt5ma7icvc3W8JkDADdEuAIAAAAgSbgCAAAAIEm4AgAAACBJuAIAAAAgSbgCAAAAIEm4AgAAACBJuAIAAAAgSbgCAAAAIEm4AgAAACBpnE6n5dH68HA4n8/rEXA1L55jHzbGekDK1nN87+dvyz7svQd7r8ke3O4ePLnWuvb+723lWrAHT251TU/2XhcAX+p4PLrjCgAAAIAm4QoAAACAJOEKAAAAgCThCgAAAIAk4QoAAACAJOEKAAAAgCThCgAAAIAk4QoAAACAJOGK72lZrjdFs3X+69A0O1f/OgAAAFHCFQAAAABJwhUAAAAAScIVAAAAAEnCFQAAAABJwhUAAAAAScIVAAAAAEnCFQAAAABJwhUAAAAAScIV92dZ3p8xrjdFs3X+68z273LY3+xczQaAvtlr62cOANwQ4QoAAACAJOEKAAAAgCThCgAAAIAk4QoAAACAJOEKAAAAgCThCgAAAIAk4QoAAACAJOEKAAAAgCThCgAAvtIYvQGACOEKAAAAgCThCgAAAIAk4QoAAACAJOEKAAAAgCThCgAAAIAk4QoAAACAJOEKAAAAgCThCgAAAIAk4QoAAACAJOGK27Is788Y78/eZmv419nbbA2XMzsPswHge5m9ZlzO7PXiM4f5vlzO3mbXxmwA+HaEKwAAAACShCsAAAAAkoQrAAAAAJKEKwAAAACShCsAAAAAkoQrAAAAAJKEKwAAAACShCsAAAAAksbpdFoerQ8Ph/P5vB5B0Itr9Y/GWA/YzZbz8sS52b5Xe9r7vOy9B8Xrzh40nwtPrrVX9/7z3bIt58bvxf1t3QPXMMC3cjwe3XEFAAAAQJNwBQAAAECScAUAAABAknAFAAAAQJJwBQAAAECScAUAAABAknAFAAAAQJJwBQAAAEDSOJ1Oy6P14eFwPp/XIwh6ca3+0RjrAbvZcl6eODcA30vxddv/SwDAzTgej+64AgAAAKBJuAIAAAAgSbgCAAAAIEm4AgAAACBJuAIAAAAgSbgCAAAAIEm4AgAAACBJuAIAAAAgSbgCAAAAIEm4AgDgc4zx/izLvjNbw+UAABnCFQAAAABJwhUAAAAAScIVAAAAAEnCFQAAAABJwhUAAAAAScIVAAAAAEnCFQAAAABJwhUAAAAAScIVt2WM92dZ3h+2m+3f5czOw2yY799nzt5ma7gc4Ppmz7XZFM1eLz5z4NbNntuXA3BHhCsAAAAAkoQrAAAAAJKEKwAAAACShCsAAAAAkoQrAAAAAJKEKwAAAACShCsAAAAAkoQrAAAAAJKEK4BrWJZtM8a+M1vD5cBXmF2LswEA4FsTrgAAAABIEq4AAAAASBKuAAAAAEgSrgAAAABIEq4AAAAASBKuAAAAAEgSrgAAAABIEq4AAAAASBKuAAAAAEgap9NpebQ+PBzO5/N6BHfsxTX/YWOsByH3/vMVbd3ze9/Pa15717L3nm/Zg3tfk+uguQdP7nkfqj/b3uu6lr1/Ps+Z7bbs1a1edwAXjsejO64AAAAAaBKuAAAAAEgSrgAAAABIEq4AAAAASBKuAAAAAEgSrgAAAABIEq4AAAAASBKuAAAAAEgap9NpebQ+PBzO5/N6BGzy4vmTMcZ6wG62Xgf3fm627MPee7D3muzBNrf8nLGfzfNnD67Lfv60ZV3WBPBpjsejO64AAAAAaBKuAAAAAEgSrgAAAABIEq4AAAAASBKuAAAAAEgSrgAAAABIEq4AAAAASBKuAAAAAEgSruCjxugN+5udh9ksy74DwH2Y/Y6fDQDcGeEKAAAAgCThCgAAAIAk4QoAAACAJOEKAAAAgCThCgAAAIAk4QoAAACAJOEKAAAAgCThCgAAAIAk4QoAAACAJOEKYE9j7DvL8v4AAABECVcAAAAAJAlXAAAAACQJVwAAAAAkCVcAAAAAJAlXAAAAACQJVwAAAAAkCVcAAAAAJAlXAAAAACQJVwAAAAAkCVcAAAAAJAlXAAAAACQJVwAAAAAkCVcAAAAAJAlXAAAAACQJVwAAAAAkCVcAAAAAJAlXAAAAACQJVwDXsCzbBgDgI8Z4fwDuiHAFAAAAQJJwBQAAAECScAUAAABAknAFAAAAQJJwBQAAAECScAUAAABAknAFAAAAQJJwBQAAAECScAUAAABA0jidTsuj9eHhcD6f1yMAru7F79tdjLEe7GTLz2dN938dXNO19urez/FW97wP1et872v43p8zxXVZE8CnOR6P7rgCAAAAoEm4AgAAACBJuAIAAAAgSbgCAAAAIEm4AgAAACBJuAIAAAAgSbgCAAAAIEm4AgAAACBpnE6n5dH68HA4n8/rEQAAAAB8jePx6I4rAAAAAJqEKwAAAACShCsAAAAAkoQrAAAAAJKEKwAAAACShCsAAAAAkoQrAAAAAJKEKwAAAACShCsAAAAAkoQrAAAAAJKEKwAAAACShCsAAAAAkoQrAAAAAJKEKwAAAACShCsAAAAAkoQrAAAAAJKEKwAAAACShCsAAAAAkoQrAAAAAJKEKwAAAACShCsAAAAAkoQrAAAAAJKEKwAAAACShCsAAAAAkoQrAAAAAJKEKwAAAACShCsAAAAAkoQrAAAAAJKEKwAAAACShCsAAAAAkoQrAAAAAJKEKwAAAACShCsAAAAAkoQrAAAAAJKEKwAAAACShCsAAAAAkoQrAAAAAJKEKwAAAACShCsAAAAAkoQrAAAAAJKEKwAAAACShCsAAAAAkoQrAAAAAJKEKwAAAACShCsAAAAAkp7D1Rjj+QEAAAAAVLjjCgAAAIAk4QoAAACAJOEKAAAAgCThCgAAAIAk4QoAAACAJOEKAAAAgCThCgAAAIAk4QoAAACAJOEKAAAAgCThCgAAAIAk4QoAAACApN/haoyxHgEAAADA1/tPsAIAAACgyFsFAQAAAMh5utlKuAIAAAAg6VW48rZBAAAAABoOh/8BwkfcQC91ndAAAAAASUVORK5CYII=;" vertex="1" parent="1">
          <mxGeometry x="1680" y="400" width="199.66" height="50" as="geometry" />
        </mxCell>
        <mxCell id="LmYF8_jIb47NEIPZJP37-61" style="edgeStyle=orthogonalEdgeStyle;shape=connector;rounded=0;orthogonalLoop=1;jettySize=auto;html=1;exitX=1;exitY=0.25;exitDx=0;exitDy=0;entryX=0;entryY=0.25;entryDx=0;entryDy=0;labelBackgroundColor=default;strokeColor=#336600;strokeWidth=5;align=center;verticalAlign=middle;fontFamily=Helvetica;fontSize=11;fontColor=default;endArrow=classic;" edge="1" parent="1" source="LmYF8_jIb47NEIPZJP37-17" target="LmYF8_jIb47NEIPZJP37-18">
          <mxGeometry relative="1" as="geometry" />
        </mxCell>
        <mxCell id="LmYF8_jIb47NEIPZJP37-63" style="edgeStyle=orthogonalEdgeStyle;shape=connector;rounded=0;orthogonalLoop=1;jettySize=auto;html=1;exitX=0.75;exitY=0;exitDx=0;exitDy=0;labelBackgroundColor=default;strokeColor=#336600;strokeWidth=5;align=center;verticalAlign=middle;fontFamily=Helvetica;fontSize=11;fontColor=default;endArrow=oval;endFill=1;" edge="1" parent="1" source="LmYF8_jIb47NEIPZJP37-17">
          <mxGeometry relative="1" as="geometry">
            <mxPoint x="870" y="325" as="targetPoint" />
          </mxGeometry>
        </mxCell>
        <mxCell id="LmYF8_jIb47NEIPZJP37-17" value="" style="shape=image;verticalLabelPosition=bottom;labelBackgroundColor=default;verticalAlign=top;aspect=fixed;imageAspect=0;image=data:image/png,iVBORw0KGgoAAAANSUhEUgAABKwAAAEwCAYAAACaO+nWAAAAAXNSR0IArs4c6QAAAARnQU1BAACxjwv8YQUAAAAJcEhZcwAADsMAAA7DAcdvqGQAAA5pSURBVHhe7d0Nbhu3GgVQMSthgOx/RwW4E74nhxUKZRTTDUvfGZ8DEGXQRsOfj1JxQVvlx48f/QYAAAAAIZYFVr3LvQAAAAD4qZQyeh/3bfxzyj2UetUAAAAA4G9H+dG9zXg3sProCwIAAADAK//Mml7lTS8Dq9/9JQAAAABY4SiD+uV3WH0kpBJoAQAAAPA7H/1dVvf//hFY3cOnv/766+1fAAAAAMBnefuRQDelAAAAAEjxTVgFAAAAQJJ3vyUQAAAAAHYSWAEAAAAQ5RFY+dFAAAAAABL4pesAAAAARPEjgQAAAABE8S2BAAAAAERxwwoAAACAKH7pOgAAAABR3LACAAAAIIpvCQQAAAAgihtWAAAAAETxLYEAAAAARHHDCgAAAIAoviUQAAAAgChuWAEAAAAQRWAFAAAAQJS3wMqPAwIAAACQwg0rAAAAAKIIrAAAAACIIrACAAAAIIrACgAAAIAoAisAAAAAogisAAAAAIgisAIAAAAgisAKAAAAgCjl+/fv/f/e/tBae/snG42136aU0fmN3WOaNTN21pqphd37knhmVrr6/FZSn+aXSh2s5X1qrd1j2l0vK5259gAuwA0rAAAAAKIIrAAAAACI8u3vHwcEAAAAgARuWAEAAAAQRWAFAAAAQBSBFQAAAABRBFYAAAAARBFYAQAAABCl1FofXxPYWhs9osx+k2Mpo/OHdj9v1sy4do/pzFZ9Q+jKNU/c45Vjuvr8VllVm3fqc25Ms2uuPs87prtVtWDN59d8xsqxrxrX7vXcbeWZAeA/44YVAAAAAFEEVgAAAABEEVgBAAAAEEVgBQAAAEAUgRUAAAAAUQRWAAAAAEQRWAEAAAAQRWAFAAAAQBSBFQAAAABRBFZ8Pb3Ptasr5f3GWkdr/Nw4XpejxvG6PDeu72jfjxrrHK3vUdvtaAzPDQBOQmAFAAAAQBSBFQAAAABRBFYAAAAARBFYAQAAABBFYAUAAABAFIEVAAAAAFEEVgAAAABEEVgBAAAAEKXUWvvo31pro0eU/tii3ytldP7Q7PN2WzU/5s3Uwsp92f28GYljWunM8ztrfc68zqzE87BSYu2trLtV66kOcq2sl1USx7TS1ecH8IW4YQUAAABAFIEVAAAAAFEEVgAAAABEEVgBAAAAEEVgBQAAAEAUgRUAAAAAUQRWAAAAAEQRWAEAAAAQpdRa++jfWmujR5T+2KLfK2V0/tDu55FrphZ218Fsfe6UehYS92+l3fNbVXu7xzTzvNm57a6XxBpeVQd3q8a+cv/Ouua7xzTLeq515rED8GFuWAEAAAAQRWAFAAAAQBSBFQAAAABRBFYAAAAARBFYAQAAABBFYAUAAABAFIEVAAAAAFEEVgAAAABEEVgBAAAAEEVgBZxLKXtbot7n2tF8nhtrHa3xc+P6jvb9qAE/HX2GHbWjc/TcALgMgRUAAAAAUQRWAAAAAEQRWAEAAAAQRWAFAAAAQBSBFQAAAABRBFYAAAAARBFYAQAAABBFYAUAAABAFIEVX0/vc439jvbhuV3d0ZyfWylzDQA+29Hn2HM7+gw7agB8KQIrAAAAAKIIrAAAAACIIrACAAAAIIrACgAAAIAoAisAAAAAogisAAAAAIgisAIAAAAgisAKAAAAgCil1tpH/9ZaGz226Y/l36OU0fmN2THNvBa5EmtvxlnHfbd77KvMrsHM/Fa+B61y5j1eOfYZZ53f7Lh3P28VdTBvZuwzz0tdg8RxrVpzAL4cN6wAAAAAiCKwAgAAACCKwAoAAACAKAIrAAAAAKIIrAAAAACIIrACAAAAIIrACgAAAIAoAisAAAAAopRaax/9W2tt9AAAAADgc7hhBQAAAEAUgRUAAAAAUQRWAAAAAEQRWAEAAAAQRWAFAAAAQBSBFQAAAABRBFYAAAAARBFYAQAAABBFYAUAAABAlFJr7aN/a62NHlH6Y4v2KGV0Ftg99hm757fyeSudeeyrWAP4GGdmv92fo4n7t3sNVjrrejrHAARwwwoAAACAKAIrAAAAAKIIrAAAAACIIrACAAAAIIrACgAAAIAoAisAAAAAogisAAAAAIgisAIAAAAgSqm19tG/tdZGj236Y/lfK2V0NpkZ093MuMxv//xmnXnsq1gD+BhnZq3E9bTHc2bW6S5x/2bYY4DrOPFnuxtWAAAAAEQRWAEAAAAQRWAFAAAAQBSBFQAAAABRBFYAAAAARBFYAQAAABBFYAUAAABAFIEVAAAAAFFKrbWP/q21Nnps0x/L/1opo3NCifObGdPdzLjOvH9Xr70Z1mD+PKySet5Xufr8Zsyswey4nb/Mmrr6vszYXcMrn2ePAb6W2c+QGZs/H9ywAgAAACCKwAoAAACAKAIrAAAAAKIIrAAAAACIIrACAAAAIIrACgAAAIAoAisAAAAAogisAAAAAIgisAIAAAAgSqm19tG/tdZGj236Y/lfK2V0TmhmfrutXM8z79/Va2+G87d/ftZ8bn4zr3Nn/87NGc20ew2u/jyAr2TmPfbqFn6GuGEFAAAAQBSBFQAAAABRBFYAAAAARBFYAQAAABBFYAUAAABAFIEVAAAAAFEEVgAAAABEEVgBAAAAEEVgxecrZW8Dvo7e9zYg29G5fW5H/+/w3HY7Gue/bTOO/t5RA4BnR58Xz22SwAoAAACAKAIrAAAAAKIIrAAAAACIIrACAAAAIIrACgAAAIAoAisAAAAAogisAAAAAIgisAIAAAAgSqm19tG/tdZGj236Y/lfK2V0Tsj8cud39b2ZoT73z2/lmK48v5nXuTvz/nHtGt4t9cwkco4BvpbZz8gZmz8f3LACAAAAIIrACgAAAIAoAisAAAAAogisAAAAAIgisAIAAAAgisAKAAAAgCgCKwAAAACiCKwAAAAAiCKwAgAAACCKwIpf9T7XAODfOPpMOWpwd1Qbz62UuQYA/OroM/OobSawAgAAACCKwAoAAACAKAIrAAAAAKIIrAAAAACIIrACAAAAIIrACgAAAIAoAisAAAAAogisAAAAAIhSaq199G+ttdEjSn9s0R6ljM4CM2Nf+bxEu/dv1tXXfUbq3rxn9xldaXfdJe7xmfdvhveWtc58RmfGPvO8Va/DT9YTgJNwwwoAAACAKAIrAAAAAKIIrAAAAACIIrACAAAAIIrACgAAAIAoAisAAAAAogisAAAAAIgisAIAAAAgSqm19tG/tdZGDwAAAAA+hxtWAAAAAEQRWAEAAAAQRWAFAAAAQBSBFQAAAABRBFYAAAAARBFYAQAAABBFYAUAAABAFIEVAAAAAFEEVgAAAABEKbXWPvq31trosU1/LP9rpYzOCV19fpBs5vyttPssJ76/XH3NV5ldp8T5nbnurnweznoWVkusz5VWzW9nbc5SwwC/cMMKAAAAgCgCKwAAAACiCKwAAAAAiCKwAgAAACCKwAoAAACAKAIrAAAAAKIIrAAAAACIIrACAAAAIEqptfbRv7XWRo9t+mP5/1wpo7PJqrHvHjec3ezZS3xPmBlT6vviqvmtlDimGWeu4Rm7627WqnEl7l9qTe2WWMMzdte5GgY4BTesAAAAAIgisAIAAAAgisAKAAAAgCgCKwAAAACiCKwAAAAAiCKwAgAAACCKwAoAAACAKAIrAAAAAKKUWmsf/VtrbfTYpj+W/7VSRucdq15r5nXuVr3W7PxmzI59lauPfeWYVq3V7ppiXuJ5P/PzZhjTnJkx3c2M6+rzm7H7eTMSx/QZVtXnyvVcNaa7xPmtkjgmgE/mhhUAAAAAUQRWAAAAAEQRWAEAAAAQRWAFAAAAQBSBFQAAAABRBFYAAAAARBFYAQAAABBFYAUAAABAFIEVAAAAAFFKrbWP/q21Nnps0x/L/1opo7PAmZ+3e+wzzjy/qz+P/dTU3JhWSjwzV6+DM9fdlc9D4ln4DM7f3PN21uYsNQzwCzesAAAAAIgisAIAAAAgisAKAAAAgCgCKwAAAACiCKwAAAAAiCKwAgAAACCKwAoAAACAKAIrAAAAAKKUWmsf/VtrbfTYpj+W/7VSRueEVs5v5rUSrZzfylq4+vNYZ/bs7d4/NWwN7mbrM9GqtZpdg7M+b0bimD5D4hldadX81DDAKbhhBQAAAEAUgRUAAAAAUQRWAAAAAEQRWAEAAAAQRWAFAAAAQBSBFQAAAABRBFYAAAAARBFYAQAAABBFYMW1lJLXIFnv77ejuj5q8BmOavG/bDOO/t5RAwDgJYEVAAAAAFEEVgAAAABEEVgBAAAAEEVgBQAAAEAUgRUAAAAAUQRWAAAAAEQRWAEAAAAQRWAFAAAAQBSBFQAAAABRBFbwJ3p/v7HW0Ro/N346WpvnVsr7jes7qo2jdlQfzw0AABYQWAEAAAAQRWAFAAAAQBSBFQAAAABRBFYAAAAARBFYAQAAABBFYAUAAABAFIEVAAAAAFEEVgAAAABEKbXWPvq31trosU1/LP9rpYzOCe2e38zzVto9ds/jbnedrzSzx1c/xyutGvvsuJ3R/e9lzsMctfnT7vrcbdX8dp+rGWoY4BduWAEAAAAQRWAFAAAAQBSBFQAAAABRBFYAAAAARBFYAQAAABBFYAUAAABAFIEVAAAAAFEEVgAAAABEKbXWPvq31troAQAAAMDncMMKAAAAgCgCKwAAAACiCKwAAAAAiCKwAgAAACCKwAoAAACAKAIrAAAAAKIIrAAAAACIIrACAAAAIMq3UsroAgAAAMDnc8MKAAAAgCgCKwAAAACiCKwAAAAAiCKwAgAAACCKwAoAAACAKAIrAAAAAKIIrAAAAACIIrACAAAAIIrACgAAAIAoAisAAAAAogisAAAAAIjyFliVUt7+AAAAAACfzQ0rAAAAAKIIrAAAAACIIrACAAAAIMojsPJ7rAAAAABI8E1QBQAAAEASPxIIAAAAQJDb7X/CiKEQUeqLqAAAAABJRU5ErkJggg==;" vertex="1" parent="1">
          <mxGeometry x="600" y="400" width="196.71" height="50" as="geometry" />
        </mxCell>
        <mxCell id="LmYF8_jIb47NEIPZJP37-62" style="edgeStyle=orthogonalEdgeStyle;shape=connector;rounded=0;orthogonalLoop=1;jettySize=auto;html=1;exitX=0;exitY=0.75;exitDx=0;exitDy=0;entryX=1;entryY=0.75;entryDx=0;entryDy=0;labelBackgroundColor=default;strokeColor=#336600;strokeWidth=5;align=center;verticalAlign=middle;fontFamily=Helvetica;fontSize=11;fontColor=default;endArrow=classic;" edge="1" parent="1" source="LmYF8_jIb47NEIPZJP37-18" target="LmYF8_jIb47NEIPZJP37-17">
          <mxGeometry relative="1" as="geometry" />
        </mxCell>
        <mxCell id="LmYF8_jIb47NEIPZJP37-18" value="" style="shape=image;verticalLabelPosition=bottom;labelBackgroundColor=default;verticalAlign=top;aspect=fixed;imageAspect=0;image=data:image/png,iVBORw0KGgoAAAANSUhEUgAABKcAAAErCAYAAAALyuB5AAAAAXNSR0IArs4c6QAAAARnQU1BAACxjwv8YQUAAAAJcEhZcwAADsMAAA7DAcdvqGQAAAuhSURBVHhe7dpRiuS4FkXR1BtLzX+Kehaur6bovA2qe6TItUC0P7IjZEmOgo3Hr1+/5uOr6r/8LQAAAAA/zxjj99X31l+qTQAAAABE/O/3fwEAAACgnTgFAAAAQIw4BQAAAECMOAUAAABAjDgFAAAAQIw4BQAAAECMOAUAAABAjDgFAAAAQIw4BQAAAECMOAUAAABAjDgFAAAAQIw4BQAAAECMOAUAAABAjDgFAAAAQIw4BQAAAECMOAUAAABAjDgFAAAAQIw4BQAAAECMOAUAAABAjDgFAAAAQIw4BQAAAECMOAUAAABAjDgFAAAAQIw4BQAAAECMOAUAAABAjDgFAAAAQIw4BQAAAECMOAUAAABAjDgFAAAAQIw4BQAAAECMOAUAAABAjDgFAAAAQIw4BQAAAECMOAUAAABAjDgFAAAAQIw4BQAAAECMOAUAAABAjDgFAAAAQIw4BQAAAECMOAUAAABAjDgFAAAAQIw4BQAAAECMOAUAAABAjDgFAAAAQIw4BQAAAECMOAUAAABAzHjGfC9pMy9e8rGODEBI5fdz5+/Urb/XlTXovreb98W/fQAAf5U3pwAAAACIEacAAAAAiBGnAAAAAIgRpwAAAACIEacAAAAAiBGnAAAAAIgRpwAAAACIEacAAAAAiBnPmO8lV5qF7RtrmwEOVvktq9r5m/fJv7HVNa/c3851OnHNP/kcAAAcwJtTAAAAAMSIUwAAAADEiFMAAAAAxIhTAAAAAMSIUwAAAADEiFMAAAAAxIhTAAAAAMSIUwAAAADEjGfM95IrzcL2jbXNh6nMe6eda3Di3HfO6ea1qth1f9V7O/H561ZZq+o67fysiu7v69T9fJ66xwAAxHlzCgAAAIAYcQoAAACAGHEKAAAAgBhxCgAAAIAYcQoAAACAGHEKAAAAgBhxCgAAAIAYcQoAAACAGHEKAAAAgJjxjPlecqVZ2L6xtrnRrXNaKvPqvr+bv+/Ws9A9p5t5Hvp9+vn0jAIA/DjenAIAAAAgRpwCAAAAIEacAgAAACBGnAIAAAAgRpwCAAAAIEacAgAAACBGnAIAAAAgRpwCAAAAIGY8Y76XXGkWtm+sbW5UmdOpKmvVveY3f9+t57N7TjerrOeJbt7jTz/DnlEAgB/Hm1MAAAAAxIhTAAAAAMSIUwAAAADEiFMAAAAAxIhTAAAAAMSIUwAAAADEiFMAAAAAxIhTAAAAAMSMZ8z3kivNwvaNtc2NTpzTTt33d/P3OZ/sZv8+fw3sMQDAj+PNKQAAAABixCkAAAAAYsQpAAAAAGLEKQAAAABixCkAAAAAYsQpAAAAAGLEKQAAAABixCkAAAAAYsYz5nvJlWZh+8ba5ka3zmmpzKv7/m7+vlvPwq5zsHTf36e7+XnY5cQ57WTNAQB+HG9OAQAAABAjTgEAAAAQI04BAAAAECNOAQAAABAjTgEAAAAQI04BAAAAECNOAQAAABAjTgEAAAAQI04BAAAAEDOeMd9LrjQL2zfWNh+mMu+ddq5B95rf/H3d+1xx4vNAXffzUNF9zp1haw4A8GG8OQUAAABAjDgFAAAAQIw4BQAAAECMOAUAAABAjDgFAAAAQIw4BQAAAECMOAUAAABAjDgFAAAAQMx4xnwvLzQLUx/rFoEIzygAAADf8OYUAAAAADHiFAAAAAAx4hQAAAAAMeIUAAAAADHiFAAAAAAx4hQAAAAAMeIUAAAAADHiFAAAAAAx4xnzvWwye7/ua6xbBCIqz7tnFAAA4Efz5hQAAAAAMeIUAAAAADHiFAAAAAAx4hQAAAAAMeIUAAAAADHiFAAAAAAx4hQAAAAAMeIUAAAAADHiFAAAAAAx4xnzvfwX8/s/4bexlhQAAACACm9OAQAAABAjTgEAAAAQI04BAAAAECNOAQAAABAjTgEAAAAQI04BAAAAECNOAQAAABAjTgEAAAAQM54x38sN5r6PutZYSwoAAABAhTenAAAAAIgRpwAAAACIEacAAAAAiBGnAAAAAIgRpwAAAACIEacAAAAAiBGnAAAAAIgRpwAAAACIGc+Y72WT2ft1X2Pd4mEqa3DivJeb5479g7+h+9+1XW5+1v2W3Xvulsre2OO7dZ9PZwHget6cAgAAACBGnAIAAAAgRpwCAAAAIEacAgAAACBGnAIAAAAgRpwCAAAAIEacAgAAACBGnAIAAAAgRpwCAAAAIGY8Y76XF5qFqY91i4e5dd7LzXM/kfUE/oZP/23x21lbg+XWdbDH5zpxb5wXgOt5cwoAAACAGHEKAAAAgBhxCgAAAIAYcQoAAACAGHEKAAAAgBhxCgAAAIAYcQoAAACAGHEKAAAAgJjxjPle0mYWlnysrTnQrrlXPidh17p331913rfuX/ecdp2DqlPPS8WuM8Ve3fvSfYYrPv3cVdf81nVwps716b/7nWevuk675uQMAwfz5hQAAAAAMeIUAAAAADHiFAAAAAAx4hQAAAAAMeIUAAAAADHiFAAAAAAx4hQAAAAAMeIUAAAAADHjGfO9pM0sLPlYW3OgXXOvfM7SvQ7de3Pr93Xv38370j33ihPnRN3Nz8MuznBtDRJ2rfut525x9mprsPMM71zzzrPXfaacYeBg3pwCAAAAIEacAgAAACBGnAIAAAAgRpwCAAAAIEacAgAAACBGnAIAAAAgRpwCAAAAIEacAgAAACBGnAIAAAAgZjxjvpe0mYUlH2trDrRr7pXPWbrXoXtvbv2+7v27eV+qa3WanetJTfdzVdX9/FWcOCdeu/bm1nO3fPrZq67Dd3au087z0nn2us+UMwwczJtTAAAAAMSIUwAAAADEiFMAAAAAxIhTAAAAAMSIUwAAAADEiFMAAAAAxIhTAAAAAMSIUwAAAADEjGfM95I2s7DkY23NgXbNvfI5S/c6dO/Nrd/XvX8370v33DnTzefgxLl7rs61a29uPXfLp5+9T/9N6Ly/7jPlDAMH8+YUAAAAADHiFAAAAAAx4hQAAAAAMeIUAAAAADHiFAAAAAAx4hQAAAAAMeIUAAAAADHiFAAAAAAx4hTATzPn96PqT//vP8en+9M9/3OM8f2A/+JP5+xPAwDgAuIUAAAAADHiFAAAAAAx4hQAAAAAMeIUAAAAADHiFAAAAAAx4hQAAAAAMeIUAAAAADHiFAAAAAAx4hQAAAAAMeMZ873kKPPQbRnryGzw6fe3U2WtqvPe9VnV/es8Lzv37sTv22nn3Ok/LyfqPsMVzvnr1t+XE5+r6lo6e/eeu6Xz7HWfKWcYOJg3pwAAAACIEacAAAAAiBGnAAAAAIgRpwAAAACIEacAAAAAiBGnAAAAAIgRpwAAAACIEacAAAAAiBnPmO8lNJrFYzfWEQUAAAA+lTenAAAAAIgRpwAAAACIEacAAAAAiBGnAAAAAIgRpwAAAACIEacAAAAAiBGnAAAAAIgRpwAAAACIEacAAAAAiBGnAAAAAIgRpwAAAACIEacAAAAAiBGnAAAAAIgRpwAAAACIEacAAAAAiBGnAAAAAIgRpwAAAACIEacAAAAAiBnPmO8lAAAAAPTy5hQAAAAAMeIUAAAAADHiFAAAAAAx4hQAAAAAMeIUAAAAADHiFAAAAAAx4hQAAAAAMeIUAAAAADHiFAAAAAAx4hQAAAAAMeIUAAAAADHiFAAAAAAx4hQAAAAAMeIUAAAAADHiFAAAAAAx4hQAAAAAMeIUAAAAADHiFAAAAAAx4hQAAAAAMeIUAAAAADHiFAAAAAAx4hQAAAAAMeIUAAAAADHiFAAAAAAx4hQAAAAAMeIUAAAAADHiFAAAAAAx4hQAAAAAMeIUAAAAADHiFAAAAAAx4hQAAAAAMeIUAAAAADHiFAAAAAAx4hQAAAAAMeIUAAAAADHiFAAAAAAx4hQAAAAAMeIUAAAAADHiFAAAAAAx4hQAAAAAMeIUAAAAADHiFAAAAAAx4hQAAAAAMeIUAAAAADHiFAAAAAAhX1//B+ao+2miJW5rAAAAAElFTkSuQmCC;" vertex="1" parent="1">
          <mxGeometry x="880" y="400" width="199.16" height="50" as="geometry" />
        </mxCell>
        <mxCell id="LmYF8_jIb47NEIPZJP37-22" value="btn_enter" style="text;html=1;align=center;verticalAlign=middle;resizable=0;points=[];autosize=1;strokeColor=none;fillColor=none;fontSize=14;fontFamily=Helvetica;fontColor=default;fontStyle=1" vertex="1" parent="1">
          <mxGeometry x="682" y="298" width="90" height="30" as="geometry" />
        </mxCell>
        <mxCell id="LmYF8_jIb47NEIPZJP37-24" value="btn_right" style="text;html=1;align=center;verticalAlign=middle;resizable=0;points=[];autosize=1;strokeColor=none;fillColor=none;fontSize=14;fontFamily=Helvetica;fontColor=default;fontStyle=1" vertex="1" parent="1">
          <mxGeometry x="791.71" y="385" width="80" height="30" as="geometry" />
        </mxCell>
        <mxCell id="LmYF8_jIb47NEIPZJP37-25" value="btn_left" style="text;html=1;align=center;verticalAlign=middle;resizable=0;points=[];autosize=1;strokeColor=none;fillColor=none;fontSize=14;fontFamily=Helvetica;fontColor=default;fontStyle=1" vertex="1" parent="1">
          <mxGeometry x="801.71" y="442" width="70" height="30" as="geometry" />
        </mxCell>
        <mxCell id="LmYF8_jIb47NEIPZJP37-26" value="timer delay..." style="text;html=1;align=center;verticalAlign=middle;resizable=0;points=[];autosize=1;strokeColor=none;fillColor=none;fontSize=14;fontFamily=Helvetica;fontColor=default;fontStyle=1" vertex="1" parent="1">
          <mxGeometry x="490" y="110" width="110" height="30" as="geometry" />
        </mxCell>
        <mxCell id="LmYF8_jIb47NEIPZJP37-37" style="edgeStyle=orthogonalEdgeStyle;shape=connector;rounded=0;orthogonalLoop=1;jettySize=auto;html=1;exitX=1;exitY=0.25;exitDx=0;exitDy=0;entryX=0;entryY=0.25;entryDx=0;entryDy=0;labelBackgroundColor=default;strokeColor=#336600;strokeWidth=5;align=center;verticalAlign=middle;fontFamily=Helvetica;fontSize=11;fontColor=default;endArrow=classic;" edge="1" parent="1" source="LmYF8_jIb47NEIPZJP37-28" target="LmYF8_jIb47NEIPZJP37-29">
          <mxGeometry relative="1" as="geometry" />
        </mxCell>
        <mxCell id="LmYF8_jIb47NEIPZJP37-45" style="edgeStyle=orthogonalEdgeStyle;shape=connector;rounded=0;orthogonalLoop=1;jettySize=auto;html=1;exitX=0;exitY=0.25;exitDx=0;exitDy=0;entryX=1;entryY=0.25;entryDx=0;entryDy=0;labelBackgroundColor=default;strokeColor=#336600;strokeWidth=5;align=center;verticalAlign=middle;fontFamily=Helvetica;fontSize=11;fontColor=default;endArrow=classic;" edge="1" parent="1" source="LmYF8_jIb47NEIPZJP37-28" target="LmYF8_jIb47NEIPZJP37-32">
          <mxGeometry relative="1" as="geometry">
            <Array as="points">
              <mxPoint x="380" y="212" />
              <mxPoint x="380" y="180" />
              <mxPoint x="1910" y="180" />
              <mxPoint x="1910" y="212" />
            </Array>
          </mxGeometry>
        </mxCell>
        <mxCell id="LmYF8_jIb47NEIPZJP37-28" value="" style="shape=image;verticalLabelPosition=bottom;labelBackgroundColor=default;verticalAlign=top;aspect=fixed;imageAspect=0;image=data:image/png,iVBORw0KGgoAAAANSUhEUgAABKkAAAEqCAIAAABRPZQ4AAAgAElEQVR4Ae3X0Y4bOQ4F0Pz/T2exCDD9kK6btlykKdVZ7MPAbIm8R3KV8+uX/xEgQIAAAQIECBAgQIAAAQIECBAgQIAAAQIECBAgQIAAAQIECBAgQIAAAQIECBAgQIAAAQIECBAgQIAAAQIECBAgQIAAAQIECBAgQIAAAQIECBAgQIAAAQIECBAgQIAAAQIECBAgQIAAAQIECBAgQIAAAQIECBAgQIAAAQIECBAgQIAAAQIECBAgQIAAAQIECBAgQIAAAQIECBAgQIAAAQIECBAgQIAAAQIECBAgQIAAAQIECBAgQIAAAQIECBAgQIAAAQIECBAgQIAAAQIECBAgQIAAAQIECBAgQIAAAQIECBAgQIAAAQIECBAgQIAAAQIECBAgQIAAAQIECBAgQIAAAQIECBAgQIAAAQIECBAgQIAAAQIECBAgQIAAAQIECBAgQIAAAQIECBAgQIAAAQIECBAgQIAAAQIECBAgQIAAAQIECBAgQIAAAQIECBAgQIAAAQIECBAgQIAAAQIECBAgQIAAAQIECBAgQIAAAQIECBAgQIAAAQIECBAgQIAAAQIECBAgQIAAAQIECBAgQIAAAQIECBAgQIAAAQIECBAgQIAAAQIECBAgQIAAAQIECBAgQIAAAQIECBAgQIAAAQIECBAgQIAAAQIECBAgQIAAAQIECBAgQIAAAQIECBAgQIAAAQIECBAgQIAAAQIECBAgQIAAAQIECBAgQIAAAQIECBAgQIAAAQIECBAgQIAAAQIECBAgQIAAAQIECBAgQIAAAQIECBAgQIAAAQIECBAgQIAAAQIECBAgQIAAAQIECBAgQIAAAQIECBAgQIAAAQIECBAgQIAAAQIECBAgQIAAAQIECBAgQIAAAQIECBAgQIAAAQIECBAgQIAAAQIECBAgQIAAAQIECBAgQIAAAQIECBAgQIAAAQIECBAgQIAAAQIECBAgQIAAAQIECBAgQIAAAQIECBAgQIAAAQIECBAgQIAAAQIECBAgQIAAAQIECBAgQIAAAQIECBAgQIAAAQIECBAgQIAAAQIECBAgQIAAAQIECBAgQIAAAQIECBAgQIAAAQIECBAgQIAAAQIECBAgQIAAAQIECBAgQIAAAQIECBAgQIAAAQIECBAgQIAAAQIECBAgQIAAAQIECBAgQIAAAQIECBAgQIAAAQIECBAgQIAAAQIECBAgQIAAAQIECBAgQIAAAQIECBAgQIAAAQIECBAgQIAAAQIECBAgQIAAAQIECBAgQIAAAQIECBAgQIAAAQIECBAgQIAAAQIECBAgQIAAAQIECBAgQIAAAQIECBAgQIAAAQIECBAgQIAAAQIECBAgQIAAAQIECBAgQIAAAQIECBAgQIAAAQIECBAgQIAAAQIECBAgQIAAAQIECBAgQIAAAQIECBAgQIAAAQIECBAgQIAAAQIECBAgQIAAAQIECBAgQIAAAQIECBAgQIAAAQIECBAgQIAAAQIECBAgQIAAAQIECBAgQIAAAQIECBAgQIAAAQIECBAgQIAAAQIECBAgQIAAAQIECBAgQIAAAQIECBAgQIAAAQIECBAgQIAAAQIECBAgQIAAAQIECBAgQIAAAQIECBAgQIAAAQIECBDYReD371/+/5LALicb5nwp7y1/HIZR+lYgsH/79z4kQGBfAd/3trML1KHUNp5GBAgQKBcIDzulbwXKj6S+wbe5Sj+sz3Rah3Acp0WVh8DjBXzf265AoA6ltvE0IkCAQLlAeNgpfStQfiT1Db7NVfphfabTOoTjOC2qPAQeL+D73nYFAnUotY2nEQECBMoFwsNO6VuB8iOpb/BtrtIP6zOd1iEcx2lR5SHweAHf97YrEKhDqW08jQgQIFAuEB52St8KlB9JfYNvc5V+WJ/ptA7hOE6LKg+Bxwv4vrddgUAdSm3jaUSAAIFygfCwU/pWoPxI6ht8m6v0w/pMp3UIx3FaVHkIPF7A973tCgTqUGobTyMCBAiUC4SHndK3AuVHUt/g21ylH9ZnOq1DOI7TospD4PECvu9tVyBQh1LbeBoRIECgXCA87JS+FSg/kvoG3+Yq/bA+02kdwnGcFlUeAo8X8H1vuwKBOpTaxtOIAAEC5QLhYaf0rUD5kdQ3+DZX6Yf1mU7rEI7jtKjyEHi8gO972xUI1KHUNp5GBAgQKBfwsPuW+GyWkO7372893v0wdHx3a+sJ/EDADfwBkj/5mID7eSN9wCx6wd04vK0IECBQLhCekuW9Bzc4myWkK3o1ho6Db4HRzhFwA885yxOTuJ83nmrALHrB3Ti8rQgQIFAuEJ6S5b0HNzibJaQrejWGjoNvgdHOEXADzznLE5O4nzeeasAsesHdOLytCBAgUC4QnpLlvQc3OJslpCt6NYaOg2+B0c4RcAPPOcsTk7ifN55qwCx6wd04vK0IECBQLhCekuW9Bzc4myWkK3o1ho6Db4HRzhFwA885yxOTuJ83nmrALHrB3Ti8rQgQIFAuEJ6S5b0HNzibJaQrejWGjoNvgdHOEXADzznLE5O4nzeeasAsesHdOLytCBAgUC4QnpLlvQc3OJslpCt6NYaOg2+B0c4RcAPPOcsTk7ifN55qwCx6wd04vK0IECBQLhCekuW9Bzc4myWkK3o1ho6Db4HRzhFwA885yxOTuJ83nmrALHrB3Ti8rQgQIFAuEJ6S5b0HNzibJaQrejWGjoNvgdHOEXADzznLE5O4nzeeasAsesHdOLytCBAgcINAfg6qvipww5F8eoscuWK60HG5XfOeFe1C9jntwiTvlEL25dI78yysXZ4zLFwY459LQrvlUmhasWdFu+U5KxY2BwztKkoVYmHPHCEsbC7lOdeqzRG0I0BgqMDaE8SqK4Ghx/zKWFfR/nz+yk4//dvQ8adb/PV3zXtWtPsr09cHc9qFSd4pfUW977/emWdh7X2Df+20MMY/l3ztft9/habLTcKeobTcbtTC5oChXUWpmTpHaB4mtMtzrlVDOyUCBB4ksPYEsepK4ICrcxXtz+cVAUPH5XbNe1a0C9nntAuTvFMK2ZdL78yzsHZ5zrBwYYx/LgntlkuhacWeFe2W56xY2BwwtKsoVYiFPXOEsLC5lOdcqzZH0I4AgaECa08Qq64Ehh7zK2NdRfvz+Ss7/fRvQ8efbvHX3zXvWdHur0xfH8xpFyZ5p/QV9b7/emeehbX3Df6108IY/1zytft9/xWaLjcJe4bScrtRC5sDhnYVpWbqHKF5mNAuz7lWDe2UCBB4kMDaE8SqK4EDrs5VtD+fVwQMHZfbNe9Z0S5kn9MuTPJOKWRfLr0zz8La5TnDwoUx/rkktFsuhaYVe1a0W56zYmFzwNCuolQhFvbMEcLC5lKec63aHEE7AgSGCqw9Qay6Ehh6zK+MdRXtz+ev7PTTvw0df7rFX3/XvGdFu78yfX0wp12Y5J3SV9T7/uudeRbW3jf4104LY/xzydfu9/1XaLrcJOwZSsvtRi1sDhjaVZSaqXOE5mFCuzznWjW0UyJA4EECa08Qq64EDrg6V9H+fF4RMHRcbte8Z0W7kH1OuzDJO6WQfbn0zjwLa5fnDAsXxvjnktBuuRSaVuxZ0W55zoqFzQFDu4pShVjYM0cIC5tLec61anME7QgQGCqw9gSx6kpg6DG/MtZVtD+fv7LTT/82dPzpFn/9XfOeFe3+yvT1wZx2YZJ3Sl9R7/uvd+ZZWHvf4F87LYzxzyVfu9/3X6HpcpOwZygttxu1sDlgaFdRaqbOEZqHCe3ynGvV0E6JAIEHCaw9Qay6Ejjg6lxF+/N5RcDQcbld854V7UL2Oe3CJO+UQvbl0jvzLKxdnjMsXBjjn0tCu+VSaFqxZ0W75TkrFjYHDO0qShViYc8cISxsLuU516rNEbQjQOCTAuEx8cmxTuwdqHNpDkb/nKHjMsvanmHV79/Ls9y/MMx5f7Nfv0K7IpbQsTlgRbu85wHZ1yKEVUXXLB/EnGqQqRjygHYhQkVp+RTCMMt7hoWh3cO/YgFNicCuAuELv2ukqXMH6lyaE6h/ztBxmWVtz7Bq1KsxzLksFhaGdkUsoWOYc7nU3C7P2TxMRbu1PcOqomuWD2JONchUDHlAuxChorR8CmGY5T3DwtDu4V+xgKZEYFeB8IXfNdLUuQN1Ls0J1D9n6LjMsrZnWDXq1RjmXBYLC0O7IpbQMcy5XGpul+dsHqai3dqeYVXRNcsHMacaZCqGPKBdiFBRWj6FMMzynmFhaPfwr1hAUyKwq0D4wu8aaercgTqX5gTqnzN0XGZZ2zOsGvVqDHMui4WFoV0RS+gY5lwuNbfLczYPU9Fubc+wquia5YOYUw0yFUMe0C5EqCgtn0IYZnnPsDC0e/hXLKApEdhVIHzhd400de5AnUtzAvXPGTous6ztGVaNejWGOZfFwsLQrogldAxzLpea2+U5m4epaLe2Z1hVdM3yQcypBpmKIQ9oFyJUlJZPIQyzvGdYGNo9/CsW0JQI7CoQvvC7Rpo6d6DOpTmB+ucMHZdZ1vYMq0a9GsOcy2JhYWhXxBI6hjmXS83t8pzNw1S0W9szrCq6Zvkg5lSDTMWQB7QLESpKy6cQhlneMywM7R7+FQtoSgR2FQhf+F0jTZ07UOfSnED9c4aOyyxre4ZVo16NYc5lsbAwtCtiCR3DnMul5nZ5zuZhKtqt7RlWFV2zfBBzqkGmYsgD2oUIFaXlUwjDLO8ZFoZ2D/+KBTQlArsKhC/8rpGmzh2oc2lOoP45Q8dllrU9w6pRr8Yw57JYWBjaFbGEjmHO5VJzuzxn8zAV7db2DKuKrlk+iDnVIFMx5AHtQoSK0vIphGGW9wwLQ7uHf8UCmhKBXQXCF37XSFPnDtS5NCdQ/5yh4zLL2p5h1ahXY5hzWSwsDO2KWELHMOdyqbldnrN5mIp2a3uGVUXXLB/EnGqQqRjygHYhQkVp+RTCMMt7hoWh3cO/YgFNicCuAuELv2ukqXMH6lyaE6h/ztBxmWVtz7Bq1KsxzLksFhaGdkUsoWOYc7nU3C7P2TxMRbu1PcOqomuWD2JONchUDHlAuxChorR8CmGY5T3DwtDu4V+xgKZEYFeB8IXfNdJxc885ozBJUaniMNdGrZikYs+Qrrld0S+GOQErPPOeB2QPEUIpszy52oz22HZFT7NwdedQ92cPLEoECNwg0Px8uWHi520x54zCJEWlitNeG7Vikoo9Q7rmdkW/GOYErPDMex6QPUQIpczy5Goz2mPbFT3NwtWdQ92fPbAoESBwg0Dz8+WGiZ+3xZwzCpMUlSpOe23Uikkq9gzpmtsV/WKYE7DCM+95QPYQIZQyy5OrzWiPbVf0NAtXdw51f/bAokSAwA0Czc+XGyZ+3hZzzihMUlSqOO21USsmqdgzpGtuV/SLYU7ACs+85wHZQ4RQyixPrjajPbZd0dMsXN051P3ZA4sSAQI3CDQ/X26Y+HlbzDmjMElRqeK010atmKRiz5CuuV3RL4Y5ASs8854HZA8RQimzPLnajPbYdkVPs3B151D3Zw8sSgQI3CDQ/Hy5YeLnbTHnjMIkRaWK014btWKSij1DuuZ2Rb8Y5gSs8Mx7HpA9RAilzPLkajPaY9sVPc3C1Z1D3Z89sCgRIHCDQPPz5YaJn7fFnDMKkxSVKk57bdSKSSr2DOma2xX9YpgTsMIz73lA9hAhlDLLk6vNaI9tV/Q0C1d3DnV/9sCiRIDADQLNz5cbJn7eFnPOKExSVKo47bVRKyap2DOka25X9IthTsAKz7znAdlDhFDKLE+uNqM9tl3R0yxc3TnU/dkDixIBAjcIND9fbpj4eVvMOaMwSVGp4rTXRq2YpGLPkK65XdEvhjkBKzzzngdkDxFCKbM8udqM9th2RU+zcHXnUPdnDyxKBL4RaP62fDPBbh8Rm39ic84oTLLR6yGkmH8Z/jlhc7rQruhKhI7/xFn4g+Z2ecIwTHMpzxmqYc6wSulKoNnzse2KnmZXx/rr16851P3ZA8uTS81XYidqNK+eFrFXxfr/fs4ZhUk2ej2EFP2He3vH5nShXdGVCB1vx+z/BZYjhOzNpTxnqIY5wyqlK4Fmz8e2K3qaXR1r/5MnnGx/9sDy5FI4oyez/D87mldvALFXxfr/fs4ZhUk2ej2EFP2He3vH5nShXdGVCB1vx5z2TgnZm0vL1GHO5T2fvLDZ87Htip5m4erOoe7PHlieXGq+EjtRo3n1tIi9Ktb/93POKEyy0eshpOg/3Ns7NqcL7YquROh4O6Z/+11pL1NfbVh0W5bn3GVhs+dj2/XfzznU/dl3+fY1z9l8JZrTvdUOzat8xF4V6//7OWcUJtno9RBS9B/u7R2b04V2RVcidLwd07/9rrSXqa82LLoty3PusrDZ87Ht+u/nHOr+7Lt8+5rnbL4SzeneaofmVT5ir4r1//2cMwqTbPR6CCn6D/f2js3pQruiKxE63o7p335X2svUVxsW3ZblOXdZ2Oz52Hb993MOdX/2Xb59zXM2X4nmdG+1Q/MqH7FXxfr/fs4ZhUk2ej2EFP2He3vH5nShXdGVCB1vx/RvvyvtZeqrDYtuy/Kcuyxs9nxsu/77OYe6P/su377mOZuvRHO6t9qheZWP2Kti/X8/54zCJBu9HkKK/sO9vWNzutCu6EqEjrdj+rfflfYy9dWGRbdlec5dFjZ7PrZd//2cQ92ffZdvX/OczVeiOd1b7dC8ykfsVbH+v59zRmGSjV4PIUX/4d7esTldaFd0JULH2zH92+9Ke5n6asOi27I85y4Lmz0f267/fs6h7s++y7evec7mK9Gc7v/tQsLl0gdi7NAyeO4w/iNmnHNGYZKNXg8hxQH3qTldaFd0JULHiuNrbpcjjBomj3pVPSDCVbSPfN7s+dh2RU+zcGfmUPdnDyxPLoUrkUvboOUYa9VtwvcOGjB7B9HtUmDOGYVJNno9hBSXZ7BPoTldaFd0JULHilNqbpcjjBomj3pVPSDCVbSPfN7s+dh2RU+zcGfmUPdnDyxPLoUrkUvboOUYa9VtwvcOGjB7B9HtUmDOGYVJNno9hBSXZ7BPoTldaFd0JULHilNqbpcjjBomj3pVPSDCVbSPfN7s+dh2RU+zcGfmUPdnDyxPLoUrkUvboOUYa9VtwvcOGjB7B9HtUmDOGYVJNno9hBSXZ7BPoTldaFd0JULHilNqbpcjjBomj3pVPSDCVbSPfN7s+dh2RU+zcGfmUPdnDyxPLoUrkUvboOUYa9VtwvcOGjB7B9HtUmDOGYVJNno9hBSXZ7BPoTldaFd0JULHilNqbpcjjBomj3pVPSDCVbSPfN7s+dh2RU+zcGfmUPdnDyxPLoUrkUvboOUYa9VtwvcOGjB7B9HtUmDOGYVJNno9hBSXZ7BPoTldaFd0JULHilNqbpcjjBomj3pVPSDCVbSPfN7s+dh2RU+zcGfmUPdnDyxPLoUrkUvboOUYa9VtwvcOGjB7B9HtUmDOGYVJNno9hBSXZ7BPoTldaFd0JULHilNqbpcjjBomj3pVPSDCVbSPfN7s+dh2RU+zcGfmUPdnDyxPLoUrkUvboOUYa9VtwvcOGjB7B9HtUmDOGYVJNno9hBSXZ7BPoTldaFd0JULHilNqbpcjjBomj3pVPSDCVbSPfN7s+dh2RU+zcGfmUPdnDyxPLoUrkUvboOUYa9VtwvcOGjB7B9HtUmDOGYVJNno9hBSXZ7BPoTldaFd0JULHilNqbpcjjBomj3pVPSDCVbSPfN7s+dh2RU+zcGfmUPdnDyxPLoUrkUvboOUYa9VtwvcOGjB7B9HtUmDOGYVJNno9hBSXZ7BPoTldaFd0JULHilNqbpcjjBomj3pVPSDCVbSPfN7s+dh2RU+zcGfmUPdnDyxPLoUrkUvdaHmaA6rdoL398gH1zvIrD9NcnZN9ziQbvR7CbWn2rGjXnC60K7oSoeMBnjnCAdmbI2TPA6rNno9tV/Q0CzdwDnV/9sAyqhTOaJdSiecu4ZfnLFEbs2lmaR4zD9NcnZN9ziQbvR7CbWn2rGjXnC60K7oSoeMBnjnCAdmbI2TPA6rNno9tV/Q0CzdwDnV/9sAyqhTOaJdSiecu4ZfnLFEbs2lmaR4zD9NcnZN9ziQbvR7CbWn2rGjXnC60K7oSoeMBnjnCAdmbI2TPA6rNno9tV/Q0CzdwDnV/9sAyqhTOaJdSiecu4ZfnLFEbs2lmaR4zD9NcnZN9ziQbvR7CbWn2rGjXnC60K7oSoeMBnjnCAdmbI2TPA6rNno9tV/Q0CzdwDnV/9sAyqhTOaJdSiecu4ZfnLFEbs2lmaR4zD9NcnZN9ziQbvR7CbWn2rGjXnC60K7oSoeMBnjnCAdmbI2TPA6rNno9tV/Q0CzdwDnV/9sAyqhTOaJdSiecu4ZfnLFEbs2lmaR4zD9NcnZN9ziQbvR7CbWn2rGjXnC60K7oSoeMBnjnCAdmbI2TPA6rNno9tV/Q0CzdwDnV/9sAyqhTOaJdSiecu4ZfnLFEbs2lmaR4zD9NcnZN9ziQbvR7CbWn2rGjXnC60K7oSoeMBnjnCAdmbI2TPA6rNno9tV/Q0CzdwDnV/9sAyqhTOaJdSiecu4ZfnLFEbs2lmaR4zD9NcnZN9ziQbvR7CbWn2rGjXnC60K7oSoeMBnjnCAdmbI2TPA6rNno9tV/Q0CzdwDnV/9sAyqhTOaJdSiecu4ZfnLFEbs2lmaR4zD9NcnZN9ziQbvR7CbWn2rGjXnC60K7oSoeMBnjnCAdmbI2TPA6rNno9tV/Q0CzdwDnV/9sAyqhTOaJfSBzx3oQlzfkBtTMvAUlEak/v/g1QEDHvOyR6G3Oj1EFLMoV6epDldaFd0JULHZbS1hWGSXFprl1fljmvV3HGtGiZZ2/Dhq5o9H9uu6Gm2dnvDKSyX1iZ5+Kpl7S0WVh3uFuHzkFU0O+ybZW6vjiK5PV3ecE72XebMYiFFXrhFtTldaFf0ayl0bD6gMEkuVcyZO65Vm+esaHf8nuFkK7I/tl3R02ztjMIpLJfWJnn4qmXtLRZWHe4W4fOQVTQ77Jtlbq+OIrk9Xd5wTvZd5sxiIUVeuEW1OV1oV/RrKXRsPqAwSS5VzJk7rlWb56xod/ye4WQrsj+2XdHTbO2Mwiksl9YmefiqZe0tFlYd7hbh85BVNDvsm2Vur44iuT1d3nBO9l3mzGIhRV64RbU5XWhX9GspdGw+oDBJLlXMmTuuVZvnrGh3/J7hZCuyP7Zd0dNs7YzCKSyX1iZ5+Kpl7S0WVh3uFuHzkFU0O+ybZW6vjiK5PV3ecE72XebMYiFFXrhFtTldaFf0ayl0bD6gMEkuVcyZO65Vm+esaHf8nuFkK7I/tl3R02ztjMIpLJfWJnn4qmXtLRZWHe4W4fOQVTQ77Jtlbq+OIrk9Xd5wTvZd5sxiIUVeuEW1OV1oV/RrKXRsPqAwSS5VzJk7rlWb56xod/ye4WQrsj+2XdHTbO2Mwiksl9YmefiqZe0tFlYd7hbh85BVNDvsm2Vur44iuT1d3nBO9l3mzGIhRV64RbU5XWhX9GspdGw+oDBJLlXMmTuuVZvnrGh3/J7hZCuyP7Zd0dNs7YzCKSyX1iZ5+Kpl7S0WVh3uFuHzkFU0O+ybZW6vjiK5PV3ecE72XebMYiFFXrhFtTldaFf0ayl0bD6gMEkuVcyZO65Vm+esaHf8nuFkK7I/tl3R02ztjMIpLJfWJnn4qmXtLRZWHe4W4fOQVTQ77Jtlbq+OIrk9Xd5wTvZd5sxiIUVeuEW1OV1oV/RrKXRsPqAwSS5VzJk7rlWb56xod/ye4WQrsj+2XdHTbO2Mwiksl9YmefiqZe0tFn7gcCtcPhBDyxcFwrm/uFPtn+8yZ62C3QkQIECAAAECBOoFwi/PXKof7aYOOcZa9abRbFMoEE62sOvrW+8y5+vJrCBAgAABAgQIEJglEH555tKsGGGaHGOtGtopDREIJztkwj9j7DLnKDTDECBAgAABAgQILAiEX565tNDrM0tyjLXqZ5Lo+opAONlXtin/213mLIfQgAABAgQIECBAoFgg/PLMpeK57ts+x1ir3jednaoEwslWtVzad5c5l8JZRIAAAQIECBAgMEgg/PLMpUEZ8ig5xlo1d1SdIBBOdsJ4/82wy5z/Dew/CBAgQIAAAQIENhUIvzxzaZu8OcZadZvwDx40nOwolV3mHIVmGAIECBAgQIAAgQWB8MszlxZ6fWZJjrFW/UwSXV8RCCf7yjblf7vLnOUQGhAgQIAAAQIECBQLhF+euVQ8133b5xhr1fums1OVQDjZqpZL++4y51I4iwgQIECAAAECBAYJhF+euTQoQx4lx1ir5o6qEwTCyU4Y778Zdpnzv4H9BwECBAgQIECAwKYC4ZdnLm2a94WxQ/4XdvGnHxKYc3xhklz6kJy2BAgQIECAAAECZwqEH59nBv55KjQ/txr4l3OOL0ySSwNVjUSAAAECBAgQILCvQPjxuW+oeyZHc4/jh3aZc3xhklz6kJy2BAgQIECAAAECZwqEH59nBv55KjQ/txr4l3OOL0ySSwNVjUSAAAECBAgQILCvQPjxuW+oeyZHc4/jh3aZc3xhklz6kJy2BAgQIECAAAECZwqEH59nBv55KjQ/txr4l3OOL0ySSwNVjUSAAAECBAgQILCvQPjxuW+oeyZHc4/jh3aZc3xhklz6kJy2BAgQIECAAAECZwqEH59nBv55KjQ/txr4l3OOL0ySSwNVjUSAAAECBAgQILCvQPjxuW+oeyZHc4/jh3aZc3xhklz6kJy2BAgQIECAAAECZwqEH59nBpbqIQLhZjeXHgIuJgECBAgQIECAAAECBD4g0PwPvNDuA+G1JECAAAECBAgQIECAwEMEwj/GmksPAReTAAECBAgQIECAAAECHxBo/gdeaPeB8FoSIECAAAECBAgQIEDgIQLhH2PNpYeAi0mAAAECBAgQIMfVEAkAAAc8SURBVECAAIEPCDT/Ay+0+0B4LQkQIECAAAECBAgQIPAQgfCPsebSQ8DFJECAAAECBAgQIECAwAcEmv+BF9p9ILyWBAgQIECAAAECBAgQeIhA+MdYc+kh4GISIECAAAECBAgQIECAAAECBAgQIECAAAECBAgQIECAAAECBAgQIECAAAECBAgQIECAAAECBAgQIECAAAECBAgQIECAAAECBAgQIECAAAECBAgQIECAAAECBAgQIECAAAECBAgQIECAAAECBAgQIECAAAECBAgQIECAAAECBAgQIECAAAECBAgQIECAAAECBAgQIECAAAECBAgQIECAAAECBAgQIECAAAECBAgQIECAAAECBAgQIECAAAECBAgQIECAAAECBAgQIECAAAECBAgQIECAAAECBAgQIECAAAECBAgQIECAAAECBAgQIECAAAECBAgQIECAAAECBAgQIECAAAECBAgQIECAAAECBAgQIECAAAECBAgQIECAAAECBAgQIECAAAECBAgQIECAAAECBAgQIECAAAECBAgQIECAAAECBAgQIECAAAECBAgQIECAAAECBAgQIECAAAECBAgQIECAAAECBAgQIECAAAECBAgQIECAAAECBAgQIECAAAECBAgQIECAAAECBAgQIECAAAECBAgQIECAAAECBAgQIECAAAECBAgQIECAAAECBAgQIECAAAECBAgQIECAAAECBAgQIECAAAECBAgQIECAAAECBAgQIECAAAECBAgQIECAAAECBAgQIECAAAECBAgQIECAAAECBAgQIECAAAECBAgQIECAAAECBAgQIECAAAECBAgQIECAAAECBAgQIECAAAECBAgQIECAAAECBAgQIECAAAECBAgQIECAAAECBAgQIECAAAECBAgQIECAAAECBAgQIECAAAECBAgQIECAAAECBAgQIECAAAECBAgQIECAAAECBAgQIECAAAECBAgQIECAAAECBAgQIECAAAECBAgQIECAAAECBAgQIECAAAECBAgQIECAAAECBAgQIECAAAECBAgQIECAAAECBAgQIECAAAECBAgQIECAAAECBAgQIECAAAECBAgQIECAAAECBAgQIECAAAECBAgQIECAAAECBAgQIECAAAECBAgQIECAAAECBAgQIECAAAECBAgQIECAAAECBAgQIECAAAECBAgQIECAAAECBAgQIECAAAECBAgQIECAAAECBAgQIECAAAECBAgQIECAAAECBAgQIECAAAECBAgQIECAAAECBAgQIECAAAECBAgQIECAAAECBAgQIECAAAECBAgQIECAAAECBAgQIECAAAECBAgQIECAAAECBAgQIECAAAECBAgQIECAAAECBAgQIECAAAECBAgQIECAAAECBAgQIECAAAECBAgQIECAAAECBAgQIECAAAECBAgQIECAAAECBAgQIECAAAECBAgQIECAAAECBAgQIECAAAECBAgQIECAAAECBAgQIECAAAECBAgQIECAAAECBAgQIECAAAECBAgQIECAAAECBAgQIECAAAECBAgQIECAAAECBAgQIECAAAECBAgQIECAAAECBAgQIECAAAECBAgQIECAAAECBAgQIECAAAECBAgQIECAAAECBAgQIECAAAECBAgQIECAAAECBAgQIECAAAECBAgQIECAAAECBAgQIECAAAECBAgQIECAAAECBAgQIECAAAECBAgQIECAAAECBAgQIECAAAECBAgQIECAAAECBAgQIECAAAECBAgQIECAAAECBAgQIECAAAECBAgQIECAAAECBAgQIECAAAECBAgQIECAAAECBAgQIECAAAECBAgQIECAAAECBAgQIECAAAECBAgQIECAAAECBAgQIECAAAECBAgQIECAAAECBAgQIECAAAECBAgQIECAAAECBAgQIECAAAECBAgQIECAAAECBAgQIECAAAECBAgQIECAAAECBAgQIECAAAECBAgQIECAAAECBAgQIECAAAECBAgQIECAAAECBAgQIECAAAECBAgQIECAAAECBAgQIECAAAECBAgQIECAAAECBAgQIECAAAECBAgQIECAAAECBAgQIECAAAECBAgQIECAAAECBAgQIECAAAECBAgQIECAAAECBAgQIECAAAECBAgQIECAAAECBAgQIECAAAECBAgQIECAAAECBAgQIECAAAECBAgQIECAAAECBAgQIECAAAECBAgQIECAAAECBAgQIECAAAECBAgQIECAAAECBAgQIECAAAECBAgQIECAAAECBAgQIECAAAECBAgQIECAAAECBAgQIECAAAECBAgQIECAAAECBAgQIECAAAECBAgQIECAAAECBAgQIECAAAECBAgQIECAAAECBAgQIECAAAECBAgQIECAAAECBAgQIECAAAECBAgQIECAAAECBAgQIECAAAECBAgQIECAAAECBAgQIECAAAECBAgQIEDgFoH/ARZw6jN56N5ZAAAAAElFTkSuQmCC;" vertex="1" parent="1">
          <mxGeometry x="399.84" y="200" width="200.16" height="50" as="geometry" />
        </mxCell>
        <mxCell id="LmYF8_jIb47NEIPZJP37-38" style="edgeStyle=orthogonalEdgeStyle;shape=connector;rounded=0;orthogonalLoop=1;jettySize=auto;html=1;exitX=0;exitY=0.75;exitDx=0;exitDy=0;entryX=1;entryY=0.75;entryDx=0;entryDy=0;labelBackgroundColor=default;strokeColor=#336600;strokeWidth=5;align=center;verticalAlign=middle;fontFamily=Helvetica;fontSize=11;fontColor=default;endArrow=classic;" edge="1" parent="1" source="LmYF8_jIb47NEIPZJP37-29" target="LmYF8_jIb47NEIPZJP37-28">
          <mxGeometry relative="1" as="geometry" />
        </mxCell>
        <mxCell id="LmYF8_jIb47NEIPZJP37-39" style="edgeStyle=orthogonalEdgeStyle;shape=connector;rounded=0;orthogonalLoop=1;jettySize=auto;html=1;exitX=1;exitY=0.25;exitDx=0;exitDy=0;entryX=0;entryY=0.25;entryDx=0;entryDy=0;labelBackgroundColor=default;strokeColor=#336600;strokeWidth=5;align=center;verticalAlign=middle;fontFamily=Helvetica;fontSize=11;fontColor=default;endArrow=classic;" edge="1" parent="1" source="LmYF8_jIb47NEIPZJP37-29" target="LmYF8_jIb47NEIPZJP37-30">
          <mxGeometry relative="1" as="geometry" />
        </mxCell>
        <mxCell id="LmYF8_jIb47NEIPZJP37-29" value="" style="shape=image;verticalLabelPosition=bottom;labelBackgroundColor=default;verticalAlign=top;aspect=fixed;imageAspect=0;image=data:image/png,iVBORw0KGgoAAAANSUhEUgAABKoAAAEqCAIAAAC6Ci87AAAgAElEQVR4Ae3ZgXIst40FUH1KnOT/f9G7Va+ek8iaOyNMA2KTZ2urbA2HBHDAbgnxx4f/I0CAAAECBAgQIECAAIHdBf7973/vXqL6CBAgQIAAAQIECBAgQODj41//+hcGAgQIECBAgAABAgQIENhfwPi3f49VSIAAAQIECBAgQIAAgQ//9c8lIECAAAECBAgQIECAwCEC/uvfIY1WJgECBAgQIECAAAECpwsY/06/AeonQIAAAQIECBAgQOAQgX/+85+HVKpMAgQIECBAgAABAgQIHC1g/Du6/YonQIAAAQIECBAgQOAcAePfOb1WKQECBAgQIECAAAECRwsY/45uv+IJECBAgAABAgQIEDhHwPh3Tq9VSoAAAQIECBAgQIDA0QJ//PHH0fUrngABAgQIECBAgAABAocIGP8OabQyCRAgQIAAAQIECBA4XcD4d/oNUD8BAgQIECBAgAABAocIGP8OabQyCRAgQIAAAQIECBA4XcD4d/oNUD8BAgQIECBAgAABAocIGP8OabQyCRAgQIAAAQIECBA4XeAf//jH6QTqJ0CAAAECBAgQIECAwAkCxr8TuqxGAgQIECBAgAABAgQIfBj/XAICBAgQIECAAAECBAgcIWD8O6LNiiRAgAABAgQIECBAgIDxzx0gQIAAAQIECBAgQIDAEQLGvyParEgCBAgQIECAAAECBAgY/9wBAgQIECBAgAABAgQIHCFg/DuizYokQIAAAQIECBAgQICA8c8dIECAAAECBAgQIECAwBECxr8j2qxIAgQIECBAgAABAgQIGP/cAQIECBAgQIAAAQIECBwhYPw7os2KJECAAAECBAgQIECAgPHPHSBAgAABAgQIECBAgMARAsa/I9qsSAIECBAgQIAAAQIECBj/3AECBAgQIECAAAECBAgcIWD8O6LNiiRAgAABAgQIECBAgIDxzx0gQIAAAQIECBAgQIDAEQLGvyParEgCBAgQIECAAAECBAgY/9wBAgQIECBAgAABAgQIHCFg/DuizYokQIAAAQIECBAgQICA8c8dIECAAAECBAgQIECAwBECxr8j2qxIAgQIECBAgAABAgQIGP/cAQIECBAgQIAAAQIECBwhYPw7os2KJECAAAECBAgQIECAgPHPHSBAgAABAgQIECBAgMARAsa/I9qsSAIECBAgQIAAAQIECBj/3AECBAgQIECAAAECBAgcIWD8O6LNiiRAgAABAgQIECBAgIDxzx0gQIAAAQIECBAgQIDAEQLGvyParEgCBAgQIECAAAECBAgY/9wBAgQIECBAgAABAgQIHCFg/DuizYokQIAAAQIECBAgQICA8c8dIECAAAECBAgQIECAwBECxr8j2qxIAgQIECBAgAABAgQIGP/cAQIECBAgQIAAAQIECBwhYPw7os2KJECAAAECBAgQIECAgPHPHSBAgAABAgQIECBAgMARAsa/I9qsSAIECBAgQIAAAQIECBj/3AECBAgQIECAAAECBAgcIWD8O6LNiiRAgAABAgQIECBAgIDxzx0gQIAAAQIECBAgQIDAEQLGvyParEgCBAgQIECAAAECBAgY/9wBAgQIECBAgAABAgQIHCFg/DuizYokQIAAAQIECBAgQICA8c8dIECAAAECBAgQIECAwBECxr8j2qxIAgQIECBAgAABAgQIGP/cAQIECBAgQIAAAQIECBwhYPw7os2KJECAAAECBAgQIECAgPHPHSBAgAABAgQIECBAgMARAsa/I9qsSAIECBAgQIAAAQIECBj/3AECBAgQIECAAAECBAgcIWD8O6LNiiRAgAABAgQIECBAgIDxzx0gQIAAAQIECBAgQIDAEQLGvyParEgCBAgQIECAAAECBAgY/9wBAgQIECBAgAABAgQIHCFg/DuizYokQIAAAQIECBAgQICA8c8dIECAAAECBAgQIECAwBECxr8j2nxlkX/++TH8/1dm7ywCBAgQIECAAAEC5woY/87tfbHy4dnvzz+LedpGgAABAgQIECBAgMD/Chj//tfDT08FjH9PiXyBAAECBAgQIECAwJICxr8l27JyUsa/lbsjNwIECBAgQIAAAQKPBYx/j22sfClg/PuSxYcECBAgQIAAAQIElhcw/i3fotUSNP6t1hH5ECBAgAABAgQIEHhNwPj3mpNv/SVg/PuLwr8QIECAAAECBAgQuJWA8e9W7VohWePfCl2QAwECBAgQIECAAIHvCxj/vm92+A7j3+EXQPkECBAgQIAAAQK3FTD+3bZ1ryTeMaq9Evfa7+xRxbUmTiNAgAABAgQIECDwfQHj3/fNbrRjj8FpjypudG2kSoAAAQIECBAgsKmA8W/Txv4qa4/BaY8qtr5oiiNAgAABAgQIELiFgPHvFm2qJrnH4LRHFdUe2keAAAECBAgQIEDgKgHj31WSS56zx+C0RxVLXhBJESBAgAABAgQIHCVg/Nu63XsMTntUsfVFUxwBAgQIECBAgMAtBIx/t2hTNck9Bqc9qqj20D4CBAgQIECAAAECVwkY/66SXPKcPQanPapY8oJIigABAgQIECBA4CgB49/W7d5jcNqjiq0vmuIIECBAgAABAgRuIWD8u0WbYpJhOor7jl6EdnT7FU+AAAECBAgQOFTA+Hf/xptkCj2EVkCzhQABAgQIECBA4OYCxr+bN/Dj48MkU+ghtAKaLQQIECBAgAABAjcXMP7dvIHGv1oDjX81N7sIECBAgAABAgTuLGD8u3P3fuVukin0EFoBzRYCBAgQIECAAIGbCxj/bt5A//Wv1kDjX83NLgIECBAgQIAAgTsLGP/u3L1fuZtkCj2EVkCzhQABAgQIECBA4OYCxr+bN9B//as10PhXc7OLAAECBAgQIEDgzgLGvzt371fuJplCD6EV0GwhQIAAAQIECBC4uYDx7yYNNK6MNepk6lB7eWmscQIRIECgVSC8BlvjHnh4oA5LB0IpmUBJwPhXYpvf5H03Zn4ydai9vDTWOIEIECDQKhBeg61xDzw8UIelA6GUTKAkYPwrsc1v8r4bMz+ZOtReXhprnEAECBBoFQivwda4Bx4eqMPSgVBKJlASMP6V2OY3ed+NmZ9MHWovL401TiACBAi0CoTXYGvcAw8P1GHpQCglEygJGP9KbPObvO/GzE+mDrWXl8YaJxABAgRaBcJrsDXugYcH6rB0IJSSCZQEjH8ltvlN3ndj5idTh9rLS2ONE4gAAQKtAuE12Br3wMMDdVg6EErJBEoCxr8S2/wm77sx85OpQ+3lpbHGCUSAAIFWgfAabI174OGBOiwdCKVkAiUB41+JbX6T992Y+cnUofby0ljjBCJAgECrQHgNtsY98PBAHZYOhFIygZKA8a/ENr/J+27M/GTqUHt5aaxxAhEgQKBVILwGW+MeeHigDksHQimZQEnA+Fdim9/kfTdmfjJ1qL28NNY4gQgQINAqEF6DrXEPPDxQh6UDoZRMoCRg/CuxzW+6y/vuLnmGDm5QQq26P/8M++pLe3vWXbbeGZredM225lTcKgLhYq+S4n3yCJjeEvdpo0xvKmD8u0njwotyqQrukmdA26CEWnVNv3H39gzUJy+Fpjdds5O11T4mEC72WA7bBAqY3hLbdFkhqwoY/1btzKe8wovy0zd/9se75BmUNiihVl3Tb9y9PQP1yUuh6U3X7GRttY8JhIs9lsM2gQKmt8Q2XVbIqgLGv1U78ymv8KL89M2f/fEueQalDUqoVdf0G3dvz0B98lJoetM1O1lb7WMC4WKP5bBNoIDpLbFNlxWyqoDxb9XOfMorvCg/ffNnf7xLnkFpgxJq1TX9xt3bM1CfvBSa3nTNTtZW+5hAuNhjOWwTKGB6S2zTZYWsKmD8W7Uzn/IKL8pP3/zZH++SZ1DaoIRadU2/cff2DNQnL4WmN12zk7XVPiYQLvZYDtsECpjeEtt0WSGrChj/Vu3Mp7zCi/LTN3/2x7vkGZQ2KKFWXdNv3L09A/XJS6HpTdfsZG21jwmEiz2WwzaBAqa3xDZdVsiqAsa/VTvzKa/wovz0zZ/98S55BqUNSqhV1/Qbd2/PQH3yUmh60zU7WVvtYwLhYo/lsE2ggOktsU2XFbKqgPFv1c58yiu8KD9982d/vEueQWmDEmrVNf3G3dszUJ+8FJredM1O1lb7mEC42GM5bBMoYHpLbNNlhawqsN74F94IqyJek1co3KvwGuK3T9mgRxuU8PHxEap4u8lfHLBOuJBJXvqiqrc/yhEvX3073y8OuDzJpnf1cJ7lcF8Q7/VRkOkoNITrWOooIZyZSwgbh5dynrXV4RKEW0Qg3JbxDI1/4+SPAoZr0fQnxaNMfP5IYIMebVCC8S838cvVR1f6nc+/DNT34TupPtrbke2jWO98PpxnOdw7Nd5ib5DpyD+E61jqKCGcmUsIG4eXcp611eEShFtEINyW8QyNf+PkjwKGa2H8e4Q2/PkGPdqgBONfbuKXqx1PypeB+j68Swkb5FluYkftS50ZZDryDOE6ljpKCGfmEsLG4aWcZ211uAThFhEIt2U8Q+PfOPmjgOFaGP8eoQ1/vkGPNijB+Jeb+OVqx5PyZaC+D+9SwgZ5lpvYUftSZwaZjjxDuI6ljhLCmbmEsHF4KedZWx0uQbhFBMJtGc/Q+DdO/ihguBbGv0dow59v0KMNSjD+5SZ+udrxpHwZqO/Du5SwQZ7lJnbUvtSZQaYjzxCuY6mjhHBmLiFsHF7KedZWh0sQbhGBcFvGMzT+jZM/ChiuhfHvEdrw5xv0aIMSjH+5iV+udjwpXwbq+/AuJWyQZ7mJHbUvdWaQ6cgzhOtY6ighnJlLCBuHl3KetdXhEoRbRCDclvEMjX/j5I8Chmth/HuENvz5Bj3aoATjX27il6sdT8qXgfo+vEsJG+RZbmJH7UudGWQ68gzhOpY6Sghn5hLCxuGlnGdtdbgE4RYRCLdlPEPj3zj5o4DhWhj/HqENf75BjzYowfiXm/jlaseT8mWgvg/vUsIGeZab2FH7UmcGmY48Q7iOpY4Swpm5hLBxeCnnWVsdLkG4RQTCbRnP0Pg3Tv4oYLgWxr9HaMOfb9CjDUow/uUmfrna8aR8Gajvw7uUsEGe5SZ21L7UmUGmI88QrmOpo4RwZi4hbBxeynnWVodLEG4RgXBbxjNsG/9CkeWlcZ3RgJllNJU3goUq3jh1la2huruM6BuUsMf4FxrRcd3XCTf/pGxQeyih7BnOLN/AjjPLyXRsHC5wg3ChhI6lctNDMuUzw8YQrvxEh3CWFhHIfQ+rDfkb/xpQa0eGxt/odRCqqLEstStUd5cebVCC8a/wUIS+F057uiWEm39SQjJPCyl8IYQr1z58ZqHqX1tCnuUzl9o4XOAG4UIJHUvl2xKSKZ8ZNoZw5bdECGdpEYHc97DakL/xrwG1dmRo/I1eB6GKGstSu0J1d+nRBiUY/woPReh74bSnW0K4+SclJPO0kMIXQrhy7cNnFqr+tSXkWT5zqY3DBW4QLpTQsVS+LSGZ8plhYwhXfkuEcJYWEch9D6sN+Rv/GlBrR4bG3+h1EKqosSy1K1R3lx5tUILxr/BQhL4XTnu6JYSbf1JCMk8LKXwhhCvXPnxmoepfW0Ke5TOX2jhc4AbhQgkdS+XbEpIpnxk2hnDlt0QIZ2kRgdz3sNqQv/GvAbV2ZGj8jV4HoYoay1K7QnV36dEGJRj/Cg9F6HvhtKdbQrj5JyUk87SQwhdCuHLtw2cWqv61JeRZPnOpjcMFbhAulNCxVL4tIZnymWFjCFd+S4RwlhYRyH0Pqw35G/8aUGtHhsbf6HUQqqixLLUrVHeXHm1QgvGv8FCEvhdOe7olhJt/UkIyTwspfCGEK9c+fGah6l9bQp7lM5faOFzgBuFCCR1L5dsSkimfGTaGcOW3RAhnaRGB3Pew2pC/8a8BtXZkaPyNXgehihrLUrtCdXfp0QYlGP8KD0Xoe+G0p1tCuPknJSTztJDCF0K4cu3DZxaq/rUl5Fk+c6mNwwVuEC6U0LFUvi0hmfKZYWMIV35LhHCWFhHIfQ+rDfkb/xpQa0eGxt/odRCqqLEstStUd5cebVCC8a/wUIS+F057uiWEm39SQjJPCyl8IYQr1z58ZqHqX1tCnuUzl9o4XOAG4UIJHUvl2xKSKZ8ZNoZw5bdECGdpEYHc97DakL/xrwG1dmRo/I1eB6GKGstSu0J1d+nRBiUY/woPReh74bSnW0K4+SclJPO0kMIXQrhy7cNnFqr+tSXkWT5zqY3DBW4QLpTQsVS+LSGZ8plhYwhXfkuEcJYWEch9D6sN+Rv/GlBrR4bG3+h1EKqosSy1K1R3lx5tUILxr/BQhL4XTnu6JYSbf1JCMk8LKXwhhCvXPnxmoepfW0Ke5TOX2jhc4AbhQgkdS+XbEpIpnxk2hnDlt0QIZ2kRgdz3sNqQ/7PxL2Szx1KDafHI7Fk8dHxbqGI8l+sDhur2eGXnAmur17fh4yNkcpdwwyV0sIQzQ3XzT0pIJpRQXgrhyrUPn9lRe/nMpTaGRnTkeWy48pNS7sI61PO1l9E22Bj6fpelaheMf1W5y/flq3Z5uKYDQxVNESePDdXt8crOBdZWOxoUMrlLuOESOljCmaG6+SclJBNKKC+FcOXah8/sqL185lIbQyM68jw2XPlJKXdhHer52stoG2wMfb/LUrULxr+q3OX78lW7PFzTgaGKpoiTx4bq9nhl5wJrqx0NCpncJdxwCR0s4cxQ3fyTEpIJJZSXQrhy7cNndtRePnOpjaERHXkeG678pJS7sA71fO1ltA02hr7fZanaBeNfVe7yffmqXR6u6cBQRVPEyWNDdXu8snOBtdWOBoVM7hJuuIQOlnBmqG7+SQnJhBLKSyFcufbhMztqL5+51MbQiI48jw1XflLKXViHer72MtoGG0Pf77JU7YLxryp3+b581S4P13RgqKIp4uSxobo9Xtm5wNpqR4NCJncJN1xCB0s4M1Q3/6SEZEIJ5aUQrlz78JkdtZfPXGpjaERHnseGKz8p5S6sQz1fexltg42h73dZqnbB+FeVu3xfvmqXh2s6MFTRFHHy2FDdHq/sXGBttaNBIZO7hBsuoYMlnBmqm39SQjKhhPJSCFeuffjMjtrLZy61MTSiI89jw5WflHIX1qGer72MtsHG0Pe7LFW7YPyryl2+L1+1y8M1HRiqaIo4eWyobo9Xdi6wttrRoJDJXcINl9DBEs4M1c0/KSGZUEJ5KYQr1z58Zkft5TOX2hga0ZHnseHKT0q5C+tQz9deRttgY+j7XZaqXTD+VeUu35ev2uXhmg4MVTRFnDw2VLfHKzsXWFvtaFDI5C7hhkvoYAlnhurmn5SQTCihvBTClWsfPrOj9vKZS20MjejI89hw5Sel3IV1qOdrL6NtsDH0/S5L1S4Y/6pyl+/LV+3ycE0HhiqaIk4eG6rb45WdC6ytdjQoZHKXcMMldLCEM0N1809KSCaUUF4K4cq1D5/ZUXv5zKU2hkZ05HlsuPKTUu7COtTztZfRNtgY+n6XpWoXno1/+dy76IQ8c4GTqyHJG70OQhWTmE2xQnU36lETzqNjA9qjLU8/7zgzBF0nXMgkL4XqOpZulExO9fLVmnZO4/Izawd+fHyEPMtnLrVxuMBjw83/Pl2Her72pR6x4WRC3zdYipjGv8gzuZiv2mQm78QKVbxz7CJ7Q3Ve2Y96FNAebXn6eceZIeg64UImeSlU17F0o2Ryqpev1rRzGpefWTvQ+Fd2e7Qx9P3Rlnc+Xyfc/O/Tk2t/587cfW/o+wZLsTvGv8gzuZiv2mQm78QKVbxz7CJ7Q3Xzv64WMXmaRkB7uvfRFzrOfBRr/o/aUF15KVTXsZTz7IgYzszJDK+GPMNSTjJsDEvhzLArL3WcmSMOrw4XeGy4+d+n61DP1z78EC0VLvR9g6VIbfyLPJOL+apNZvJOrFDFO8cusjdU55X9qEcB7dGWp593nBmCrhMuZJKXQnUdSzdKJqd6+WpNO6dx+Zm1A+f/h5JynuWNoRHlM8PGY8PN/z5dh3q+9nADt18Kfd9gKbbP+Bd5JhfzVZvM5J1YoYp3jl1kb6jOK/tRjwLaoy1PP+84MwRdJ1zIJC+F6jqWbpRMTvXy1Zp2TuPyM2sHGv/Kbo82hr4/2vLO5+uEm/99enLt79yZu+8Nfd9gKXbH+Bd5JhfzVZvM5J1YoYp3jl1kb6hu/tfVIiZP0whoT/c++kLHmY9izf9RG6orL4XqOpZynh0Rw5k5meHVkGdYykmGjWEpnBl25aWOM3PE4dXhAo8NN//7dB3q+dqHH6KlwoW+b7AUqY1/kWdyMV+1yUzeiRWqeOfYRfaG6ryyH/UooD3a8vTzjjND0HXChUzyUqiuY+lGyeRUL1+taec0Lj+zduD8/1BSzrO8MTSifGbYeGy4+d+n61DP1x5u4PZLoe8bLMX2Gf8iz+RivmqTmbwTK1TxzrGL7A3VeWU/6lFAe7Tl6ecdZ4ag64QLmeSlUF3H0o2SyalevlrTzmlcfmbtQONf2e3RxtD3R1ve+XydcPO/T0+u/Z07c/e9oe8bLMXuGP8iz+RivmqTmbwTK1TxzrGL7A3Vzf+6WsTkaRoB7eneR1/oOPNRrPk/akN15aVQXcdSzrMjYjgzJzO8GvIMSznJsDEshTPDrrzUcWaOOLw6XOCx4eZ/n65DPV/78EO0VLjQ9w2WIvV74184ugMuhNtgKYvdpcBQxV1KCHmG6ryyH7kFtEdbnn7ecWYIOhwuZFJeGi4hhJt/UkIyZc/hjaGEsmc4s1xdx5nlZDo2Dhd4bLjyrS43fR3q+drLaDZ+VyBcs7z03UAvfN/49wLSzFfGe99SVqiiJd7soaE6r+xHrQhoj7Y8/bzjzBB0OFzIpLw0XEIIN/+khGTKnsMbQwllz3BmubqOM8vJdGwcLvDYcOVbXW76OtTztZfRbPyuQLhmeem7gV74vvHvBaSZr4z3vqWsUEVLvNlDQ3Ve2Y9aEdAebXn6eceZIehwuJBJeWm4hBBu/kkJyZQ9hzeGEsqe4cxydR1nlpPp2Dhc4LHhyre63PR1qOdrL6PZ+F2BcM3y0ncDvfB9498LSDNfGe99S1mhipZ4s4eG6ryyH7UioD3a8vTzjjND0OFwIZPy0nAJIdz8kxKSKXsObwwllD3DmeXqOs4sJ9OxcbjAY8OVb3W56etQz9deRrPxuwLhmuWl7wZ64fvGvxeQZr4y3vuWskIVLfFmDw3VeWU/akVAe7Tl6ecdZ4agw+FCJuWl4RJCuPknJSRT9hzeGEooe4Yzy9V1nFlOpmPjcIHHhivf6nLT16Ger72MZuN3BcI1y0vfDfTC941/LyDNfGW89y1lhSpa4s0eGqrzyn7UioD2aMvTzzvODEGHw4VMykvDJYRw809KSKbsObwxlFD2DGeWq+s4s5xMx8bhAo8NV77V5aavQz1fexnNxu8KhGuWl74b6IXvG/9eQJr5ynjvW8oKVbTEmz00VOeV/agVAe3Rlqefd5wZgg6HC5mUl4ZLCOHmn5SQTNlzeGMooewZzixX13FmOZmOjcMFHhuufKvLTV+Her72MpqN3xUI1ywvfTfQC983/r2ANPOV8d63lBWqaIk3e2ioziv7USsC2qMtTz/vODMEHQ4XMikvDZcQws0/KSGZsufwxlBC2TOcWa6u48xyMh0bhws8Nlz5Vpebvg71fO1lNBu/KxCuWV76bqAXvm/8ewFp5ivjvW8pK1TREm/20FCdV/ajVgS0R1ueft5xZgg6HC5kUl4aLiGEm39SQjJlz+GNoYSyZzizXF3HmeVkOjYOF3hsuPKtLjd9Her52stoNn5XIFyzvPTdQC983/j3AtLMV8Z731JWqKIl3uyhoTqv7EetCGiPtjz9vOPMEHQ4XMikvDRcQgg3/6SEZMqewxtDCWXPcGa5uo4zy8l0bBwu8Nhw5Vtdbvo61PO1l9Fs/K5AuGZ56buBXvh+2/j3QuyvvxIIvt6wy6eh8Bu9DkIVGzQqVHeXHs2XECJ2XIkQrmOpXEJIpnxm2LhOuPknZYPaQwnznutcs5BJ01JoREfEY8PN3+p1qOdr77i6zvxSYPiafZnD7w+Nf78lfvyf4Vrc6HUQqvhx4fcTCNXdpUfzJYSI73fk7yeEcB1Lf0/gxU9CMi+e8K2vrRNu/knZoPZQwrxnuHghz7DrRkvDBR4bbv5Wr0M9X/uNHsC7pzp8zSKX8S/yTC6Ga3Gj10GoYhKzKVao7i49mi8hROxoUwjXsVQuISRTPjNsXCfc/JOyQe2hhHnPda5ZyKRpKTSiI+Kx4eZv9TrU87V3XF1nfikwfM2+zOH3h8a/3xI//s9wLW70OghV/Ljw+wmE6u7So/kSQsT3O/L3E0K4jqW/J/DiJyGZF0/41tfWCTf/pGxQeyhh3jNcvJBn2HWjpeECjw03f6vXoZ6v/UYP4N1THb5mkcv4F3kmF8O1uNHrIFQxidkUK1R3lx7NlxAidrQphOtYKpcQkimfGTauE27+Sdmg9lDCvOc61yxk0rQUGtER8dhw87d6Her52juurjO/FBi+Zl/m8PtD499viR//Z7gWN3odhCp+XPj9BEJ1d+nRfAkh4vsd+fsJIVzH0t8TePGTkMyLJ3zra+uEm39SNqg9lDDvGS5eyDPsutHScIHHhpu/1etQz9d+owfw7qkOX7PIZfyLPJOL4Vrc6HUQqpjEbIoVqrtLj+ZLCBE72hTCdSyVSwjJlM8MG9cJN/+kbFB7KGHec51rFjJpWgqN6Ih4bLj5W70O9XztHVfXmV8KDF+zL3P4/aHx77fEj/8zXIsbvQ5CFT8u/H4Cobq79Gi+hBDx/Y78/YQQrmPp7wm8+ElI5sUTvvW1dcLNPykb1B5KmPcMFy/kGXbdaGm4wGPDzd/qdajna7/RA3j3VIevWeQy/kWeycVwLW70OghVTGI2xUHBJu8AAA2+SURBVArV3aVH8yWEiB1tCuE6lsolhGTKZ4aN64Sbf1I2qD2UMO+5zjULmTQthUZ0RDw23PytXod6vvaOq+vMLwWGr9mXOfz+cL3x73dm/vk/Aitdmv9JbL8fTqYOtZeXNrghofaO6kK48lJHnuUza1WUw4WNtUzyrhCuvDQfsZZqyLN24Gq7hgs8NtxSI1DoQnlptYstn/MEjH836Xl4y9ykgtukeTJ1qL28dJvGP0401P54U30lhCsv1bNp2FmroiGRj1omedd8nh0Ra2cGmdqBq+0aLvDYcMa/1W6+fLYTMP7dpKXDvwZuotKS5snUofbyUkuTZg8NtXckEsKVlzryLJ9Zq6IcLmysZZJ3hXDlpfmItVRDnrUDV9s1XOCx4Yx/q918+WwnYPy7SUuHfw3cRKUlzZOpQ+3lpZYmzR4aau9IJIQrL3XkWT6zVkU5XNhYyyTvCuHKS/MRa6mGPGsHrrZruMBjwxn/Vrv58tlOwPh3k5YO/xq4iUpLmidTh9rLSy1Nmj001N6RSAhXXurIs3xmrYpyuLCxlkneFcKVl+Yj1lINedYOXG3XcIHHhjP+rXbz5bOdgPHvJi0d/jVwE5WWNE+mDrWXl1qaNHtoqL0jkRCuvNSRZ/nMWhXlcGFjLZO8K4QrL81HrKUa8qwduNqu4QKPDWf8W+3my2c7AePfTVo6/GvgJiotaZ5MHWovL7U0afbQUHtHIiFceakjz/KZtSrK4cLGWiZ5VwhXXpqPWEs15Fk7cLVdwwUeG874t9rNl892Asa/m7R0+NfATVRa0jyZOtReXmpp0uyhofaOREK48lJHnuUza1WUw4WNtUzyrhCuvDQfsZZqyLN24Gq7hgs8Npzxb7WbL5/tBIx/N2np8K+Bm6i0pHkydai9vNTSpNlDQ+0diYRw5aWOPMtn1qoohwsba5nkXSFceWk+Yi3VkGftwNV2DRd4bDjj32o3Xz7bCRj/btLS4V8DN1FpSRN1C+ulhw73aDjcpVQOI0CAAAECBAj8t4Dx7781Fv53f4CONQf1GHU50HCPhsOVWWwkQIAAAQIECDwTMP49E1pk3R+gY41APUZdDjTco+FwZRYbCRAgQIAAAQLPBIx/z4QWWfcH6FgjUI9RlwMN92g4XJnFRgIECBAgQIDAMwHj3zOhRdb9ATrWCNRj1OVAwz0aDldmsZEAAQIECBAg8EzA+PdMaJF1f4CONQL1GHU50HCPhsOVWWwkQIAAAQIECDwTMP49E1pk3R+gY41APUZdDjTco+FwZRYbCRAgQIAAAQLPBIx/z4QWWfcH6FgjUI9RlwMN92g4XJnFRgIECBAgQIDAMwHj3zOhRdb9ATrWCNRj1OVAwz0aDldmsZEAAQIECBAg8EzA+PdMaJF1f4CONQL1GHU50HCPhsOVWWwkQIAAAQIECDwTMP49E1p/3d+mhR5BK6DdYkvobHnpFoVLkgABAgQIECDwgoDx7wWkxb8S/qhdPPMfTA/aD+K3hg6dLS+1JuxwAgQIECBAgMCggPFvELspVPijtiniBsdC26CJX5YQOlte+jKQDwkQIECAAAECNxQw/t2waZ9SDn/UfvqmH/8SgPYXxWb/EjpbXtqMSDkECBAgQIDAwQLGv/s3P/xRe//iuiqA1iX70+eGzpaXfrom8QkQIECAAAECVwkY/66S/Llzwh+1P5fU6pGhrd6han6hs+Wlai72ESBAgAABAgRWEzD+rdaR7+cT/qj9/mGn7IC2a6dDZ8tLu1qpiwABAgQIEDhPwPh3/56HP2rvX1xXBdC6ZH/63NDZ8tJP1yQ+AQIECBAgQOAqAePfVZI/d074o/bnklo9MrTVO1TNL3S2vFTNxT4CBAgQIECAwGoCxr/VOnJpPuW/d8PGSxN86bCQTHnppcC+RIAAAQIECBAgQGArAePfVu38XEx5OgobP8fo/zkkU17qz1oEAgQIECBAgAABAqsJGP9W68il+ZSno7Dx0gRfOiwkU156KbAvESBAgAABAgQIENhKwPi3VTs/F1OejsLGzzH6fw7JlJf6sxaBAAECBAgQIECAwGoCxr/VOnJpPuXpKGy8NMGXDgvJlJdeCuxLBAgQIECAAAECBLYSMP5t1c7PxZSno7Dxc4z+n0My5aX+rEUgQIAAAQIECBAgsJqA8W+1jlyaT3k6ChsvTfClw0Iy5aWXAvsSAQIECBAgQIAAga0EjH9btfNzMeXpKGz8HKP/55BMeak/axEIECBAgAABAgQIrCZg/FutI5fmU56OwsZLE3zpsJBMeemlwL5EgAABAgQIECBAYCsB499W7ZwopjxxlTdOVCUGAQIECBAgQIAAgf0FjH/79/jiCstTXHnjxQU4jgABAgQIECBAgMChAsa/QxtfL7s8xZU31nO1kwABAgQIECBAgACB/wgY//5j4d9eEihPceWNL6XlSwQIECBAgAABAgQIPBEw/j0BsvxZoDzFlTd+zsDPBAgQIECAAAECBAhUBIx/FbWj95SnuPLGo7kVT4AAAQIECBAgQOAyAePfZZSnHFSe4sobT5FVJwECBAgQIECAAIFeAeNfr++Gp5enuPLGDRGVRIAAAQIECBAgQOAHBIx/P4B+75DlKa688d5esidAgAABAgQIECCwioDxb5VO3CaP8hRX3ngbGokSIECAAAECBAgQWFrA+Ld0eyRHgAABAgQIECBAgACBqwSMf1dJOocAAQIECBAgQIAAAQJLCxj/lm6P5AgQIECAAAECBAgQIHCVgPHvKknnECBAgAABAgQIECBAYGkB49/S7ZEcAQIECBAgQIAAAQIErhIw/l0l6RwCBAgQIECAAAECBAgsLWD8W7o9kiNAgAABAgQIECBAgMBVAsa/qySdQ4AAAQIECBAgQIAAgaUFjH9Lt0dyBAgQIECAAAECBAgQuErA+HeVpHMIECBAgAABAgQIECCwtIDxb+n2SI4AAQIECBAgQIAAAQJXCRj/rpJ0DgECBAgQIECAAAECBJYWMP4t3R7JESBAgAABAgQIECBA4CoB499Vks4hQIAAAQIECBAgQIDA0gLGv6XbIzkCBAgQIECAAAECBAhcJWD8u0rSOQQIECBAgAABAgQIEFhawPi3dHskR4AAAQIECBAgQIAAgasEjH9XSTqHAAECBAgQIECAAAECSwsY/5Zuj+QIECBAgAABAgQIECBwlYDx7ypJ5xAgQIAAAQIECBAgQGBpAePf0u2RHAECBAgQIECAAAECBK4SMP5dJekcAgQIECBAgAABAgQILC1g/Fu6PZIjQIAAAQIECBAgQIDAVQLGv6sknUOAAAECBAgQIECAAIGlBYx/S7dHcgQIECBAgAABAgQIELhKwPh3laRzCBAgQIAAAQIECBAgsLSA8W/p9kiOAAECBAgQIECAAAECVwkY/66SdA4BAgQIECBAgAABAgSWFjD+Ld0eyREgQIAAAQIECBAgQOAqAePfVZLOIUCAAAECBAgQIECAwNICxr+l2yM5AgQIECBAgAABAgQIXCVg/LtK0jkECBAgQIAAAQIECBBYWsD4t3R7JEeAAAECBAgQIECAAIGrBIx/V0k6hwABAgQIECBAgAABAksLGP+Wbo/kCBAgQIAAAQIECBAgcJWA8e8qSecQIECAAAECBAgQIEBgaQHj39LtkRwBAgQIECBAgAABAgSuEjD+XSXpHAIECBAgQIAAAQIECCwtYPxbuj2SI0CAAAECBAgQIECAwFUCxr+rJJ1DgAABAgQIECBAgACBpQWMf0u3R3IECBAgQIAAAQIECBC4SsD4d5WkcwgQIECAAAECBAgQILC0gPFv6fZIjgABAgQIECBAgAABAlcJGP+uknQOAQIECBAgQIAAAQIElhYw/i3dHskRIECAAAECBAgQIEDgKgHj31WSziFAgAABAgQIECBAgMDSAsa/pdsjOQIECBAgQIAAAQIECFwlYPy7StI5BAgQIECAAAECBAgQWFrA+Ld0eyRHgAABAgQIECBAgACBqwSMf1dJOocAAQIECBAgQIAAAQJLCxj/lm6P5AgQIECAAAECBAgQIHCVgPHvKknnECBAgAABAgQIECBAYGkB49/S7ZEcAQIECBAgQIAAAQIErhIw/l0l6RwCBAgQIECAAAECBAgsLWD8W7o9kiNAgAABAgQIECBAgMBVAsa/qySdQ4AAAQIECBAgQIAAgaUFjH9Lt0dyBAgQIECAAAECBAgQuErA+HeVpHMIECBAgAABAgQIECCwtIDxb+n2SI4AAQIECBAgQIAAAQJXCRj/rpJ0DgECBAgQIECAAAECBJYWMP4t3R7JESBAgAABAgQIECBA4CoB499Vks4hQIAAAQIECBAgQIDA0gLGv6XbIzkCBAgQIECAAAECBAhcJWD8u0rSOQQIECBAgAABAgQIEFhawPi3dHskR4AAAQIECBAgQIAAgasEjH9XSTqHAAECBAgQIECAAAECSwsY/5Zuj+QIECBAgAABAgQIECBwlYDx7ypJ5xAgQIAAAQIECBAgQGBpAePf0u2RHAECBAgQIECAAAECBK4SMP5dJekcAgQIECBAgAABAgQILC3wxx9/LJ2f5AgQIECAAAECBAgQIEDgEgHj3yWMDiFAgAABAgQIECBAgMDqAsa/1TskPwIECBAgQIAAAQIECFwiYPy7hNEhBAgQIECAAAECBAgQWF3g/8e//wPfslyUYDZXnQAAAABJRU5ErkJggg==;" vertex="1" parent="1">
          <mxGeometry x="720" y="200" width="200.34" height="50" as="geometry" />
        </mxCell>
        <mxCell id="LmYF8_jIb47NEIPZJP37-41" style="edgeStyle=orthogonalEdgeStyle;shape=connector;rounded=0;orthogonalLoop=1;jettySize=auto;html=1;exitX=1;exitY=0.25;exitDx=0;exitDy=0;entryX=0;entryY=0.25;entryDx=0;entryDy=0;labelBackgroundColor=default;strokeColor=#336600;strokeWidth=5;align=center;verticalAlign=middle;fontFamily=Helvetica;fontSize=11;fontColor=default;endArrow=classic;" edge="1" parent="1" source="LmYF8_jIb47NEIPZJP37-30" target="LmYF8_jIb47NEIPZJP37-31">
          <mxGeometry relative="1" as="geometry" />
        </mxCell>
        <mxCell id="LmYF8_jIb47NEIPZJP37-30" value="" style="shape=image;verticalLabelPosition=bottom;labelBackgroundColor=default;verticalAlign=top;aspect=fixed;imageAspect=0;image=data:image/png,iVBORw0KGgoAAAANSUhEUgAABKkAAAErCAIAAACaYUedAAAgAElEQVR4Ae3a7Y7rOHYF0HqRzKTf/yE7QBIUPIC0+5rWpkVqNfLDo2Oej0VdFwnk58d/BAgQIECAAAECBAgQIECAAAECBAgQIECAAAECBAgQIECAAAECBAgQIECAAAECBAgQIECAAAECBAgQIECAAAECBAgQIECAAAECBAgQIECAAAECBAgQIECAAAECBAgQIECAAAECBAgQIECAAAECBAgQIECAAAECBAgQIECAAAECBAgQIECAAAECBAgQIECAAAECBAgQIECAAAECBAgQIECAAAECBAgQIECAAAECBAgQIECAAAECBAgQIECAAAECBAgQIECAAAECBAgQIECAAAECBAgQIECAAAECBAgQIECAAAECBAgQIECAAAECBAgQIECAAAECBAgQIECAAAECBAgQIECAAAECBAgQIECAAAECBAgQIECAAAECBAgQIECAAAECBAgQIECAAAECBAgQIECAAAECBAgQIECAAAECBAgQIECAAAECBAgQIECAAAECBAgQIECAAAECBAgQIECAAAECBAgQIECAAAECBAgQIECAAAECBAgQIECAAAECBAgQIECAAAECBAgQIECAAAECBAgQIECAAAECBAgQIECAAAECBAgQIECAAAECBAgQIECAAAECBAgQIECAAAECBAgQIECAAAECBAgQIECAAAECBAgQIECAAAECBAgQIECAAAECBAgQIECAAAECBAgQIECAAAECBAgQIECAAAECBAgQIECAAAECBAgQIECAAAECBAgQIECAAAECBAgQIECAAAECBAgQIECAAAECBAgQIECAAAECBAgQIECAAAECBAgQIECAAAECBAgQIECAAAECBAgQIECAAAECBAgQIECAAAECBAgQIECAAAECBAgQIECAAAECBAgQIECAAAECBAgQIECAAAECBAgQIECAAAECBAgQIECAAAECBAgQIECAAAECBAgQIECAAAECBAgQIECAAAECBAgQIECAAAECBAgQIECAAAECBAgQIECAAAECBAgQIECAAAECBAgQIECAAAECBAgQIECAAAECBAgQIECAAAECBAgQIECAAAECBAgQIECAAAECBAgQIECAAAECBAgQIECAAAECBAgQIECAAAECBAgQIECAAAECBAgQIECAAAECBAgQIECAAAECBAgQIECAAAECBAgQIECAAAECBAgQIECAAAECBAgQIECAAAECBAgQIECAAAECBAgQIECAAAECBAgQIECAAAECBAgQIECAAAECBAgQIECAAAECBAgQIECAAAECBAgQIECAAAECBAgQIECAAAECBAgQIECAAAECBAgQIECAAAECBAgQIECAAAECBAgQIECAAAECBAgQIECAAAECBAgQIECAAAECBAgQIECAAAECBAgQIECAAAECBAgQIECAAAECBAgQIECAAAECBAgQIECAAAECBAgQIECAAAECBAgQIECAAAECBAgQIECAAAECBAgQIECAAAECBAgQIECAAAECBAgQIECAAAECBAgQIECAAAECBAgQIECAAAECBAgQIECAAAECBAgQIECAAAECBAgQIECAAAECBAgQIECAAAECBAgQIECAAAECBAgQIECAAAECBAgQIECAAAECBAgQIECAAAECBAgQuK3A33//TP6/21J8t7GwC99tTHUCBAgQIECAAAECBHYQCFeOUmgHtcIMQbtQTUoCBAgQIECAAAECBB4mEK4cpdDDgP903KD9pyl8jwABAgQIECBAgAABAmcC4cpRCp118vDnQfvhMsYnQIAAAQIECBAgQOACgXDlKIUuaHrHFEF7x3HNRIAAAQIECBAgQIDAXIFw5SiF5s63TLWgvcwMGiVAgAABAgQIECBA4LYC4cpRCt2W4ruNBe3vNqY6AQIECBAgQIAAAQI7CIQrRym0g1phhqBdqCYlAQIECBAgQIAAAQIPEwhXjlLoYcB/Om7Q/tMUvkeAAAECBAgQIEDgDwXC6TOE/jD5W18L5f7++61MvvwPAvOpQ8V/6HXrMJatt/cuw3nN7rIT+iBAgAABAl8XCMeCEGq0Hcq5+10LPp86VLx2tLWyYVlrvxbt1mu26MZpmwABAgQIXC8QjgUhdH0fPz+hnLvfteDzqUPFa0dbKxuWtfZr0W69ZotunLYJECBAgMD1AuFYEELX9+Hu1zA9yRl2tnTNDhVPenzEYyyP2OZvD+k1+/YOqE+AAAECBG4jEI4FIdRoP5QrXUgaUyyRcz51qLiEWKlJLCVYaV8FvGavGj4TIECAAIFHC4RjQQg1yEI5d79rwedTh4rXjrZWNixr7dei3XrNFt04bRMgQIAAgesFwrEghK7vw//PZ8P0JGfY2dI1O1Q86fERj7E8Ypu/PaTX7Ns7oD4BAgQIELiNQDgWhFCj/VCudCFpTLFEzvnUoeISYqUmsZRgpX0V8Jq9avhMgAABAgQeLRCOBSHUIAvl3P2uBZ9PHSpeO9pa2bCstV+Ldus1W3TjtE2AAAECBKYKhBNDDjW6zBXPoo1ONsh5xvV/zxsDhoqTy4VOcmiVPsMUjRFCztDJcCiUK4WGWw0LG62Gco1QYwQ5CRAgQIAAgW8KDJ8YGk2PNdPoZIOcGbMxYKg4uVzoJIdW6TNM0Rgh5AydDIdCuVJouNWwsNFqKNcINUaQkwABAgQIEPimwPCJodH0WDONTjbImTEbA4aKk8uFTnJolT7DFI0RQs7QyXAolCuFhlsNCxuthnKNUGMEOQkQIECAAIFvCgyfGBpNjzXT6GSDnBmzMWCoOLlc6CSHVukzTNEYIeQMnQyHQrlSaLjVsLDRaijXCDVGkJMAAQIECBD4psDwiaHR9FgzjU42yJkxGwOGipPLhU5yaJU+wxSNEULO0MlwKJQrhYZbDQsbrYZyjVBjBDkJECBAgACBbwoMnxgaTY810+hkg5wZszFgqDi5XOgkh1bpM0zRGCHkDJ0Mh0K5Umi41bCw0Woo1wg1RpCTAAECBAgQ+KbA8Imh0fRYM41ONsiZMRsDhoqTy4VOcmiVPsMUjRFCztDJcCiUK4WGWw0LG62Gco1QYwQ5CRAgQIAAgW8KDJ8YGk2PNdPoZIOcGbMxYKg4uVzoJIdW6TNM0Rgh5AydDIdCuVJouNWwsNFqKNcINUaQkwABAgQIEPimwPCJodH0WDONTjbImTEbA4aKk8uFTnJolT7DFI0RQs7QyXAolCuFhlsNCxuthnKNUGMEOQkQIECAAIELBBp/+IdzXjDPOylyn+9k2uq781lCxWHZRs7QTKNcI+djR/j77zB6CoVdGM6Z6v38hIp54Vh0crmxJq0iQIAAAQIErhEIf/jnh64Z6Y+z5AH/OM1uX5zPEioO4zZyhmYa5Ro5HzvC8D0t7MJwzrALP+5+WUeUAAECBAgQ+EQgn2wmRz8ZZGBtnm4g4R5L5rOEisOkjZyhmUa5Rs7HjjB8Twu7MJwz7IK7X8YRJUCAAAECBD4SyCebydGPJnl/cZ7u/XybrJjPEioOmzZyhmYa5Ro5HzvC8D0t7MJwzrAL7n4ZR5QAAQIECBD4SCCfbCZHP5rk/cV5uvfzbbJiPkuoOGzayBmaaZRr5HzsCMP3tLALwznDLrj7ZRxRAgQIECBA4COBfLKZHP1okvcX5+nez7fJivksoeKwaSNnaKZRrpHzsSMM39PCLgznDLvg7pdxRAkQIECAAIGPBPLJZnL0o0neX5ynez/fJivms4SKw6aNnKGZRrlGzseOMHxPC7swnDPsgrtfxhElQIAAAQIEPhLIJ5vJ0Y8meX9xnu79fJusmM8SKg6bNnKGZhrlGjkfO8LwPS3swnDOsAvufhlHlAABAgQIEPhIIJ9sJkc/muT9xXm69/NtsmI+S6g4bNrIGZpplGvkfOwIw/e0sAvDOcMuuPtlHFECBAgQIEDgI4F8spkc/WiS9xfn6d7Pt8mK+Syh4rBpI2doplGukfOxIwzf08IuDOcMu+Dul3FECRAgQIAAgX8WCMeXf1588o2QM4dO8t3ucZjidr1e2lAYvBS6tP3/TxZaXaWcEd7dqSA2fE9r5MxzhYp54Vh0crmxJq0iQIAAAQIE3hBo/HUPOXPojb6/+tUwxVf7qhcPg5dCjZFCq6uUM8K7OxXE3P3OMAPa2RLPCRAgQIAAgVsLNP66h5w5dGupl+bCFC/f2vBjGLwUaiCGVlcpZ4R3dyqIufudYQa0syWeEyBAgAABArcWaPx1Dzlz6NZSL82FKV6+teHHMHgp1EAMra5Szgjv7lQQc/c7wwxoZ0s8J0CAAAECBG4t0PjrHnLm0K2lXpoLU7x8a8OPYfBSqIEYWl2lnBHe3akg5u53hhnQzpZ4ToAAAQIECNxaoPHXPeTMoVtLvTQXpnj51oYfw+ClUAMxtLpKOSO8u1NBzN3vDDOgnS3xnAABAgQIELi1QOOve8iZQ7eWemkuTPHyrQ0/hsFLoQZiaHWVckZ4d6eCmLvfGWZAO1viOQECBAgQIHBrgcZf95Azh24t9dJcmOLlWxt+DIOXQg3E0Ooq5Yzw7k4FMXe/M8yAdrbEcwIECBAgQODWAo2/7iFnDt1a6qW5MMXLtzb8GAYvhRqIodVVyhnh3Z0KYu5+Z5gB7WyJ5wQIECBAYKqAv1WH3A2WkDOEDtvb6eHes4fp8gE6LJy/+6GZyaHh2UOfwznDwka5Rs6xEfKrOzlnKPfz83MftNynKAECBAhcKzD59//a5rvZ0Bz6NlhCzhA6bG+nh3vPHqbLB+iwcP7uh2Ymh4ZnD30O5wwLG+UaOcdGyK/u5JyhnLtfxhElQIDAxgKT/2iuJInmcLcaLCFnCB22t9PDvWcP0+UDdFg4f/dDM5NDw7OHPodzhoWNco2cYyPkV3dyzlDO3S/jiBIgQGBjgcl/NFeSRHO4Ww2WkDOEDtvb6eHes4fp8gE6LJy/+6GZyaHh2UOfwznDwka5Rs6xEfKrOzlnKOful3FECRAgsLHA5D+aK0miOdytBkvIGUKH7e30cO/Zw3T5AB0Wzt/90Mzk0PDsoc/hnGFho1wj59gI+dWdnDOUc/fLOKIECBDYWGDyH82VJNEc7laDJeQMocP2dnq49+xhunyADgvn735oZnJoePbQ53DOsLBRrpFzbIT86k7OGcq5+2UcUQIECGwsMPmP5kqSaA53q8EScobQYXs7Pdx79jBdPkCHhfN3PzQzOTQ8e+hzOGdY2CjXyDk2Qn51J+cM5dz9Mo4oAQIENhaY/EdzJUk0h7vVYAk5Q+iwvZ0e7j17mC4foMPC+bsfmpkcGp499DmcMyxslGvkHBshv7qTc4Zy7n4ZR5QAAQIbC0z+o7mSJJrD3WqwhJwhdNjeTg/3nj1Mlw/QYeH83Q/NTA4Nzx76HM4ZFjbKNXKOjZBf3ck5Qzl3v4wjSoAAgY0FJv/R/IJkmHA49IUxblMyoN2mx00a2Zs6TOcAPfMNDhvRaKNRrpEzzB7KeXXP3ALa2RLPCRAgQKAhEH6Qc6jRTCVnHmMsWml0kaRBbJEJlmlzb+ownQP0zHc0bESjjUa5Rs4weyjn1T1zC2hnSzwnQIAAgYZA+EHOoUYzlZx5jLFopdFFkgaxRSZYps29qcN0DtAz39GwEY02GuUaOcPsoZxX98wtoJ0t8ZwAAQIEGgLhBzmHGs1UcuYxxqKVRhdJGsQWmWCZNvemDtM5QM98R8NGNNpolGvkDLOHcl7dM7eAdrbEcwIECBBoCIQf5BxqNFPJmccYi1YaXSRpEFtkgmXa3Js6TOcAPfMdDRvRaKNRrpEzzB7KeXXP3ALa2RLPCRAgQKAhEH6Qc6jRTCVnHmMsWml0kaRBbJEJlmlzb+ownQP0zHc0bESjjUa5Rs4weyjn1T1zC2hnSzwnQIAAgYZA+EHOoUYzlZx5jLFopdFFkgaxRSZYps29qcN0DtAz39GwEY02GuUaOcPsoZxX98wtoJ0t8ZwAAQIEGgLhBzmHGs1UcuYxxqKVRhdJGsQWmWCZNvemDtM5QM98R8NGNNpolGvkDLOHcl7dM7eAdrbEcwIECBBoCIQf5BxqNFPJmccYi1YaXSRpEFtkgmXa3Js6TOcAPfMdDRvRaKNRrpEzzB7KeXXP3ALa2RLPCRAgQKAhEH6Qc6jRTCVnHmMsWml0kaRBbJEJlmlzb+ownQP0zHc0bESjjUa5Rs4weyjn1T1zC2hnSzwnQIAAgYZA+EHOoUYzKWfuZoNoGv5OsUB9pzZ36GVv6jDd8AE673qomBeGaCPn5HJGCOCHoSA2/Oo2ch42//swVPz9zoUfJpe7sHOpCBAg0BYIv5CrhCpEqww/3GdFrZA0DFio9uiUe1OH6YYP0Pl1CRXzwhBt5JxczggB/DAUxIZf3UbOw+Z/H4aKv9+58MPkchd2LhUBAgTaAuEXcpVQhWiV4Yf7rKgVkoYBC9UenXJv6jDd8AE6vy6hYl4Yoo2ck8sZIYAfhoLY8KvbyHnY/O/DUPH3Oxd+mFzuws6lIkCAQFsg/EKuEqoQrTL8cJ8VtULSMGCh2qNT7k0dphs+QOfXJVTMC0O0kXNyOSME8MNQEBt+dRs5D5v/fRgq/n7nwg+Ty13YuVQECBBoC4RfyFVCFaJVhh/us6JWSBoGLFR7dMq9qcN0wwfo/LqEinlhiDZyTi5nhAB+GApiw69uI+dh878PQ8Xf71z4YXK5CzuXigABAm2B8Au5SqhCtMrww31W1ApJw4CFao9OuTd1mG74AJ1fl1AxLwzRRs7J5YwQwA9DQWz41W3kPGz+92Go+PudCz9MLndh51IRIECgLRB+IVcJVYhWGX64z4paIWkYsFDt0Sn3pg7TDR+g8+sSKuaFIdrIObmcEQL4YSiIDb+6jZyHzf8+DBV/v3Phh8nlLuxcKgIECLQFwi/kKqEK0SrDD/dZUSskDQMWqj065d7UYbrhA3R+XULFvDBEGzknlzNCAD8MBbHhV7eR87D534eh4u93LvwwudyFnUtFgACBtkD4hVwlVCFaZfjhPitqhaRhwEK1R6fcmzpMN3yAzq9LqJgXhmgj5+RyRgjgh6EgNvzqNnIeNv/7MFT8/c6FHyaXu7BzqQgQINAWCL+Qq4TaRAf5V6EJfR5MdctHG4xwS9eDpvamDtMNH6APEF8ehYov37rsYyg3HLqsuZdEw82MLXypPOPjWJN51Yy+/7NG7mcs+p8Vvvm/xvov/Up8E0JtAgSeKjD8M7jEwtauLjF8brJFc3XeMMXVpZ6eb2/qMF3pVBcqNl61UG44tEqfYcDGCCFn6GQ4FMqVQsOthoWlVgfShiZzaKCWJQQIELihQP6tWz3aAl/dpXTYbXAH6ka5J+fcmzpMV/rnECo2XrNQbji0Sp9hwMYIIWfoZDgUypVCw62GhaVWB9KGJnNooJYlBAgQuKFA/q1bPdoCX92ldNhtcAfqRrkn59ybOkxX+ucQKjZes1BuOLRKn2HAxgghZ+hkOBTKlULDrYaFpVYH0oYmc2igliUECBC4oUD+rVs92gJf3aV02G1wB+pGuSfn3Js6TFf65xAqNl6zUG44tEqfYcDGCCFn6GQ4FMqVQsOthoWlVgfShiZzaKCWJQQIELihQP6tWz3aAl/dpXTYbXAH6ka5J+fcmzpMV/rnECo2XrNQbji0Sp9hwMYIIWfoZDgUypVCw62GhaVWB9KGJnNooJYlBAgQuKFA/q1bPdoCX92ldNhtcAfqRrkn59ybOkxX+ucQKjZes1BuOLRKn2HAxgghZ+hkOBTKlULDrYaFpVYH0oYmc2igliUECBC4oUD+rVs92gJf3aV02G1wB+pGuSfn3Js6TFf65xAqNl6zUG44tEqfYcDGCCFn6GQ4FMqVQsOthoWlVgfShiZzaKCWJQQIELihQP6tWz3aAl/dpXTYbXAH6ka5J+fcmzpMV/rnECo2XrNQbji0Sp9hwMYIIWfoZDgUypVCw62GhaVWB9KGJnNooJYlBAgQuKFA/q1bPfoF8AbZF8a4TcngeZseN2kE9SYbaQwCBAgQIECAwD0EwvEyh+7R/h90kccYi/5B2W2/EsS2nflLg6H+EryyBAgQIECAAIE9BcLxMoeW4chjjEWXGb7QaBArVHt0StSP3n7DEyBAgAABAgSuFgjHyxy6upFavjzGWLTW7AKJg9gC3S/VIuqltkuzBAgQIECAAIG7C4TjZQ7dfbDf/vIYY9Hf5A/8EMQeqFEdGXWVV3ICBAgQIECAwNMEwvEyh5aBymOMRZcZvtBoECtUe3RK1I/efsMTIECAAAECBK4WCMfLHLq6kVq+PMZYtNbsAomD2ALdL9Ui6qW2S7MECBAgQIAAgbsLhONlDt19sN/+8hhj0d/kD/wQxB6oUR0ZdZVXcgIECBAgQIDA0wTC8TKHloHKY4xFlxm+0GgQK1R7dErUj95+wxMgQIAAAQIErhYIx8scurqRWr48xli01uwCiYPYAt0v1SLqpbZLswQIECBAgACBuwuE42UO3X2wz/sL83+efN0MWKbtHepp1AoRIECAAAECBJ4g4Hh5ustoDmmwHLI0HqJuqMpJgAABAgQIEHisgOPl6dajOaTBcsjSeIi6oSonAQIECBAgQOCxAo6Xp1uP5pAGyyFL4yHqhqqcBAgQIECAAIHHCjhenm49mkMaLIcsjYeoG6pyEiBAgAABAgQeK+B4ebr1aA5psByyNB6ibqjKSYAAAQIECBB4rIDj5enWozmkwXLI0niIuqEqJwECBAgQIEDgsQKOl6dbj+aQBsshS+Mh6oaqnAQIECBAgACBxwo4Xp5uPZpDGiyHLI2HqBuqchIgQIAAAQIEHivgePnYrb9+cC/TgCm0ATRLCBAgQIAAAQIECBD4poBrzIA+tAE0SwgQIECAAAECBAgQ+KaAa8yAPrQBNEsIECBAgAABAgQIEPimgGvMgD60ATRLCBAgQIAAAQIECBD4poBrzIA+tAE0SwgQIECAAAECBAgQ+KaAa8yAPrQBNEsIECBAgAABAgQIEPimgGvMgD60ATRLCBAgQIAAAQIECBD4poBrzIA+tAE0SwgQIECAAAECBAgQ+KaAa8yAPrQBNEsIECBAgAABAgQIELipQLjh/P33TXu+qq0nz36VoTwECBAgQIAAAQIECKwh8OT7z5NnX+Pt1CUBAgQIECBAgAABAlcJPPn+8+TZr3p/5CFAgAABAgQIECBAYA2BJ99/njz7Gm+nLgkQIECAAAECBAgQuErgyfefJ89+1fsjDwECBAgQIECAAAECawg8+f7z5NnXeDt1SYAAAQIECBAgQIDAVQJPvv88efar3h95CBAgQIAAAQIECBBYQ+DJ958nz77G26lLAgQIECBAgAABAgSuEnjy/efJs1/1/shDgAABAgQIECBAgMAaAk++/zx59jXeTl0SIECAAAECBAgQIDBHINyO5jTweZUNRvgcQQYCBAgQIECAAAECBAgkgQ0uThuMkHZIjAABAgQIECBAgAABAp8LbHBx2mCEz/dRBgIECBAgQIAAAQIECCSBDS5OG4yQdkiMAAECBAgQIECAAAECnwtscHHaYITP91EGAgQIECBAgAABAgQIJIENLk4bjJB2SIwAAQIECBAgQIAAAQKfC2xwcdpghM/3UQYCBAgQIECAAAECBAgkgQ0uThuMkHZIjAABAgQIECBAgAABAp8LbHBx2mCEz/dRBgIECBAgQIAAAQIECAwKhDvVrUKD41lGgAABAgQIECBAgAABAj8/P7e64IVmbBYBAgQIECBAgAABAgQIjAuE69atQuMTWkmAAAECBAgQIECAAAECt7rghWbsFAECBAgQIECAAAECBAiMC4Tr1q1C4xNaSYAAAQIECBAgQIAAAQK3uuCFZuwUAQIECBAgQIAAAQIECIwLhOvWrULjE1pJgAABAgQIECBAgAABAre64IVm7BQBAgQIECBAgAABAgQIjAuE69atQuMTWkmAAAECBAgQIECAAAECBAgQIECAAAECBAgQIECAAAECBAgQIECAAAECBAgQIECAAAECBAgQIECAAAECBAgQIECAAAECBAgQIECAAAECBAgQIECAAAECBAgQIECAAAECBAgQIECAAAECBAgQIECAAAECBAgQIECAAAECBAgQIECAAAECBAgQIECAAAECBAgQIECAAAECBAgQIECAAAECBAgQIECAAAECBAgQIECAAAECBAgQIECAAAECBAgQIECAAAECBAgQIECAAAECBAgQIECAAAECBAgQIECAAAECBAgQIECAAAECBAgQIECAAAECBAgQIECAAAECBAgQIECAAAECBAgQIECAAAECBAgQIECAAAECBAgQIECAAAECBAgQIECAAAECBAgQIECAAAECBAgQIECAAAECBAgQIECAAAECBAgQIECAAAECBAgQIECAAAECBAgQIECAAAECBAgQIECAAAECBAgQIECAAAECBAgQIECAAAECBAgQIECAAAECBAgQIECAAAECBAgQIECAAAECBAgQIECAAAECBAgQIECAAAECBAgQIECAAAECBAgQIECAAAECBAgQIECAAAECBAgQIECAAAECBAgQIECAAAECBAgQIECAAAECBAgQIECAAAECBAgQIECAAAECBAgQIECAAAECBAgQIECAAAECBAgQIECAAAECBAgQIECAAAECBAgQIECAAAECBAgQIECAAAECBAgQIECAAAECBAgQIECAAAECBAgQIECAAAECBAgQIECAAAECBAgQIECAAAECBAgQIECAAAECBAgQIECAAAECBAgQIECAAAECBAgQIECAAAECBAgQIECAAAECBAgQIECAAAECBAgQIECAAAECBAgQIECAAAECBAgQIECAAAECBAgQIECAAAECBAgQIECAAAECBAgQIECAAAECBAgQIECAAAECBAgQIECAAAECBAgQIECAAAECBAgQIECAAAECBAgQIECAAAECBAgQIECAAEqSWBYAAAJ2SURBVAECBAgQIECAAAECBAgQIECAAAECBAgQIECAAAECBAgQIECAAAECBAgQIECAAAECBAgQIECAAAECBAgQIECAAAECBAgQIECAAAECBAgQIECAAAECBAgQIECAAAECBAgQIECAAAECBAgQIECAAAECBAgQIECAAAECBAgQIECAAAECBAgQIECAAAECBAgQIECAAAECBAgQIECAAAECBAgQIECAAAECBAgQIECAAAECBAgQIECAAAECBAgQIECAAAECBAgQIECAAAECBAgQIECAAAECBAgQIECAAAECBAgQIECAAAECBAgQIECAAAECBAgQIECAAAECBAgQIECAAAECBAgQIECAAAECBAgQIECAAAECBAgQIECAAAECBAgQIECAAAECBAgQIECAAAECBAgQIECAAAECBAgQIECAAAECBAgQIECAAAECBAgQIECAAAECBAgQIECAAAECBAgQIECAAAECBAgQIECAAAECBAgQIECAAAECBAgQIECAAAECBAgQIECAAAECBAgQIECAAAECBAgQIECAAAECBAgQIECAAAECBAgQIECAAAECBAgQIECAAAECBAgQIECAAAECBAgQIECAAAECBAgQIECAAAECBAgQIECAAAECBAgQIECAAAECBAgQIECAAAECBAgQIECAAAECBAgQIECAAAECBAgQIECAAAECBAgQIECAAAECBAgQIECAAAECBAgQIECAAAECBAgQIECAAAECBAgQIECAAAECBAgQIECAAAECBAgQuIfAX3/99d8v//375b9/Hf33X/4jQIAAAQIECBAgQIAAgW8LHF3X/vVyn/v37z3vr//9738Ap4YRyNtFygsAAAAASUVORK5CYII=;" vertex="1" parent="1">
          <mxGeometry x="1040" y="200" width="199.51" height="50" as="geometry" />
        </mxCell>
        <mxCell id="LmYF8_jIb47NEIPZJP37-42" style="edgeStyle=orthogonalEdgeStyle;shape=connector;rounded=0;orthogonalLoop=1;jettySize=auto;html=1;exitX=0;exitY=0.75;exitDx=0;exitDy=0;entryX=1;entryY=0.75;entryDx=0;entryDy=0;labelBackgroundColor=default;strokeColor=#336600;strokeWidth=5;align=center;verticalAlign=middle;fontFamily=Helvetica;fontSize=11;fontColor=default;endArrow=classic;" edge="1" parent="1" source="LmYF8_jIb47NEIPZJP37-31" target="LmYF8_jIb47NEIPZJP37-30">
          <mxGeometry relative="1" as="geometry" />
        </mxCell>
        <mxCell id="LmYF8_jIb47NEIPZJP37-43" style="edgeStyle=orthogonalEdgeStyle;shape=connector;rounded=0;orthogonalLoop=1;jettySize=auto;html=1;exitX=1;exitY=0.25;exitDx=0;exitDy=0;entryX=0;entryY=0.25;entryDx=0;entryDy=0;labelBackgroundColor=default;strokeColor=#336600;strokeWidth=5;align=center;verticalAlign=middle;fontFamily=Helvetica;fontSize=11;fontColor=default;endArrow=classic;" edge="1" parent="1" source="LmYF8_jIb47NEIPZJP37-31" target="LmYF8_jIb47NEIPZJP37-32">
          <mxGeometry relative="1" as="geometry" />
        </mxCell>
        <mxCell id="LmYF8_jIb47NEIPZJP37-31" value="" style="shape=image;verticalLabelPosition=bottom;labelBackgroundColor=default;verticalAlign=top;aspect=fixed;imageAspect=0;image=data:image/png,iVBORw0KGgoAAAANSUhEUgAABKkAAAEqCAIAAABRPZQ4AAAgAElEQVR4Ae3X0ZJjN44FwP7/n/aG147e2B7pjAoiIJLKiXlwF0QCJ3lVxfvrl/8RIECAAAECBAgQIECAAAECBAgQIECAAAECBAgQIECAAAECBAgQIECAAAECBAgQIECAAAECBAgQIECAAAECBAgQIECAAAECBAgQIECAAAECBAgQIECAAAECBAgQIECAAAECBAgQIECAAAECBAgQIECAAAECBAgQIECAAAECBAgQIECAAAECBAgQIECAAAECBAgQIECAAAECBAgQIECAAAECBAgQIECAAAECBAgQIECAAAECBAgQIECAAAECBAgQIECAAAECBAgQIECAAAECBAgQIECAAAECBAgQIECAAAECBAgQIECAAAECBAgQIECAAAECBAgQIECAAAECBAgQIECAAAECBAgQIECAAAECBAgQIECAAAECBAgQIECAAAECBAgQIECAAAECBAgQIECAAAECBAgQIECAAAECBAgQIECAAAECBAgQIECAAAECBAgQIECAAAECBAgQIECAAAECBAgQIECAAAECBAgQIECAAAECBAgQIECAAAECBAgQIECAAAECBAgQIECAAAECBAgQIECAAAECBAgQIECAAAECBAgQIECAAAECBAgQIECAAAECBAgQIECAAAECBAgQIECAAAECBAgQIECAAAECBAgQIECAAAECBAgQIECAAAECBAgQIECAAAECBAgQIECAAAECBAgQIECAAAECBAgQIECAAAECBAgQIECAAAECBAgQIECAAAECBAgQIECAAAECBAgQIECAAAECBAgQIECAAAECBAgQIECAAAECBAgQIECAAAECBAgQIECAAAECBAgQIECAAAECBAgQIECAAAECBAgQIECAAAECBAgQIECAAAECBAgQIECAAAECBAgQIECAAAECBAgQIECAAAECBAgQIECAAAECBAgQIECAAAECBAgQIECAAAECBAgQIECAAAECBAgQIECAAAECBAgQIECAAAECBAgQIECAAAECBAgQIECAAAECBAgQIECAAAECBAgQIECAAAECBP5D4K+/fg3//z9G8IP/IhAO6L+sVCZAgAABAgQIECBAgMA/AuG9oqlE/qcC4SB+upXPEyBAgAABAgQIECDwpQLhvaKp9KXQb8QOB/HGrpYSIECAAAECBAgQIPBNAuG9oqn0TbprsoaDWNPALgQIECBAgAABAgQIXC8Q3iuaSteTLg8YDmJ5LxsSIECAAAECBAgQIHCnQHivaCrd6diZKhxEZ1t7EyBAgAABAgQIECBwkUB4r2gqXYQ3FCUcxNAE2hAgQIAAAQIECBAgcLpAeK9oKp0uNj9/OIj5YXQkQIAAAQIECBAgQOBIgfBe0VQ6kumjQ4eD+OhcmhMgQIAAAQIECBAgcI5AeK/466+WGKFjSz+bEvj/Ap7A/+/hXwQIECBAgAABAt8hEO7B3v2+4xH4upThmf86C4EJECBAgAABAgS+RyDcg737fc9j8FVJwzP/VQ7CEiBAgAABAgQIfJdAuAd79/uuR+Fr0oZn/msMBCVAgAABAgQIEPg+gXAP9u73fY/DVyQOz/xX5BeSAAECBAgQIEDgOwXCPdi733c+EtenDs/89dkFJECAAAECBAgQ+F6BcA/27ve9j8XVycMzf3Vu4QgQIECAAAECBL5bINyDvft996NxbfrwzF+bWTACBAgQIECAAAEC4R7s3c/jcaVAeOavzCsUAQIECBAgQIAAgb8Fwj34oHe/kKJ8zGHPUCq3Cwv3aRcmeacUspdL78xTWFue00ICBAgQIECAAAECQwL5mtsxROhYbje8Z0e7kH2fdmGSd0ohe7n0zjyFteU5LSRAgAABAgQIECAwJJCvuR1DhI7ldsN7drQL2fdpFyZ5pxSyl0vvzFNYW57TQgIECBAgQIAAAQJDAvma2zFE6FhuN7xnR7uQfZ92YZJ3SiF7ufTOPIW15TktJECAAAECBAgQIDAkkK+5HUOEjuV2w3t2tAvZ92kXJnmnFLKXS+/MU1hbntNCAgQIECBAgAABAkMC+ZrbMUToWG43vGdHu5B9n3ZhkndKIXu59M48hbXlOS0kQIAAAQIECBAgMCSQr7kdQ4SO5XbDe3a0C9n3aRcmeacUspdL78xTWFue00ICBAgQIECAAAECQwL5mtsxROhYbje8Z0e7kH2fdmGSd0ohe7n0zjyFteU5LSRAgAABAgQIECAwJJCvuR1DhI7ldsN7drQL2fdpFyZ5pxSyl0vvzFNYW57TQgIECBAgQIAAAQJDAvma2zFE6FhuN7xnR7uQfZ92YZJ3SiF7ufTOPIW15TktJECAAAECBAicJFC4J/UtOQluj1nzWXTMGDqW29X2DKv++qs8y/qFYc71zX79Cu2aWELH4YAd7exJgAABAgQIELhHINzb5kv3sE4lyWfUMUXoWG5X2zOsanrJqQUMc9Y2zKtCuyaW0DGPWqsOt6sNaRUBAgQIECBAYEeBcJGaL+0ItPdM+Yw6Zg8dy+1qe4ZVTS85tYBhztqGeVVo18QSOuZRa9XhdrUhrSJAgAABAgQI7CgQLlLzpR2B9p4pn1HH7KFjuV1tz7Cq6SWnFjDMWdswrwrtmlhCxzxqrTrcrjakVQQIECBAgACBHQXCRWq+tCPQ3jPlM+qYPXQst6vtGVY1veTUAoY5axvmVaFdE0vomEetVYfb1Ya0igABAgQIECCwo0C4SM2XdgTae6Z8Rh2zh47ldrU9w6qml5xawDBnbcO8KrRrYgkd86i16nC72pBWESBAgAABAgR2FAgXqfnSjkB7z5TPqGP20LHcrrZnWNX0klMLGOasbZhXhXZNLKFjHrVWHW5XG9IqAgQIECBAgMCOAuEiNV/aEWjvmfIZdcweOpbb1fYMq5pecmoBw5y1DfOq0K6JJXTMo9aqw+1qQ1pFgAABAgQIENhRIFyk5ks7Au09Uz6jjtlDx3K72p5hVdNLTi1gmLO2YV4V2jWxhI551Fp1uF1tSKsIECBAgAABAjsKhIvUHTfFHdHXzZSPr6O6bvb/26k25/+t3/u/QrqOwUO7O77RIWCHpz0JECBAgAABAvcIhIvUHTfFe47qUZJ8fB3VR1O8+7PanO92nVof0nWMENrd8Y0OATs87UmAAAECBAgQuEcgXKTuuCnec1SPkuTj66g+muLdn9XmfLfr1PqQrmOE0O6Ob3QI2OFpTwIECBAgQIDAPQLhInXHTfGeo3qUJB9fR/XRFO/+rDbnu12n1od0HSOEdnd8o0PADk97EiBAgAABAgTuEQgXqTtuivcc1aMk+fg6qo+mePdntTnf7Tq1PqTrGCG0u+MbHQJ2eNqTAAECBAgQIHCPQLhI3XFTvOeoHiXJx9dRfTTFuz+rzflu16n1IV3HCKHdHd/oELDD054ECBAgQIAAgXsEwkXqjpviPUf1KEk+vo7qoyne/Vltzne7Tq0P6TpGCO3u+EaHgB2e9iRAgAABAgQI3CMQLlJ33BTvOapHSfLxdVQfTfHuz2pzvtt1an1I1zFCaHfHNzoE7PC0JwECBAgQIEDgHoFwkbrjpnjPUT1Kko+vo/poind/Vpvz3a5T60O6jhFCuzu+0SFgh6c9CRAgQIAAAQL3CISL1B03xXuO6lGS+eN7NMW7Pwsp3t16g/XD6UK7O77RIeAGp20EAgQIECBAgMDGAuEidcdNcWP7BaPNH9+Cof9ji5DiPz573g+G04V2d3yjQ8DzHg4TEyBAgAABAgQmBcJF6o6b4iTmfK/54+vIGFJ0tBveczhdaHfHNzoEHD5Z7QgQIECAAAEChwmEi9QdN8XDzuOH484f3w8HfOnjIcVL6/f+0HC60O6Ob3QIuPeDYDoCBAgQIECAwKcFwkXqjpvip4F7+88fX0eekKKj3fCew+lCuzu+0SHg8MlqR4AAAQIECBA4TCBcpO64KR52Hj8cd/74fjjgSx8PKV5av/eHhtOFdnd8o0PAvR8E0xEgQIAAAQIEPi0QLlJ33BQ/Ddzbf/74OvKEFB3thvccThfa3fGNDgGHT1Y7AgQIECBAgMBhAuEidcdN8bDz+OG488f3wwFf+nhI8dL6vT80nC60u+MbHQLu/SCYjgABAgQIECDwaYFwkbrjpvhp4N7+88fXkSek6Gg3vOdwutDujm90CDh8stoRIECAAAECBA4TCBepO26Kh53HD8edP74fDvjSx0OKl9bv/aHhdKHdHd/oEHDvB8F0BAgQIECAAIFPC4SL1B03xU8D9/afP76OPCFFR7vhPYfThXZ3fKNDwOGT1Y4AAQIECBAgcJhAuEjdcVM87Dx+OO788f1wwJc+HlK8tH7vDw2nC+3u+EaHgHs/CKYjQIAAAQIECHxaIFyk7rgpfhq4t//88XXkCSk62g3vOZwutLvjGx0CDp+sdgQIECBAgACBwwTCReqOm+Jh5/HDceeP74cDvvTxkOKl9Xt/aDhdaHfHNzoE3PtBMB0BAgQIECBA4NMC4SJ1x03x08C9/eePryNPSNHRbnjP4XSh3R3f6BBw+GS1I0CAAAECBAgcJhAuUnfcFA87jx+OO398PxzwpY+HFC+t3/tDw+lCuzu+0SHg3g+C6QgQIECAAAECnxYIF6k7boqfBu7tP398HXlCio52w3sOpwvt7vhGh4DDJ6sdAQIECBAgQOAwgXCRuuOmeNh5/HDc+eP74YAvfTykeGn93h8aThfa3fGNDgH3fhBMR4AAAQIECBD4tEC4SN1xU/w0cG//+ePryBNSdLQb3nM4XWh3xzc6BBw+We0IECBAgAABAo0C4dLTVOoI0zFqx5xH7Jkxj4jw69evkOKUCGHO4XShnXe/cExKBAgQIECAAIG9BPKtrqPakf+UOTuyL98zYy5v17RhSNHUcXLb4XShnXe/yXPXiwABAgQIECDwlkC+1XVU3xr3yeJT5nwy/l4/zph7zfp8mpDi+aJjKsPpQjvvfsc8NAYlQIAAAQIECORbXUe1w/yUOTuyL98zYy5v17RhSNHUcXLb4XShnXe/yXPXiwABAgQIECDwlkC+1XVU3xr3yeJT5nwy/l4/zph7zfp8mpDi+aJjKsPpQjvvfsc8NAYlQIAAAQIECORbXUe1w/yUOTuyL98zYy5v17RhSNHUcXLb4XShnXe/yXPXiwABAgQIECDwlkC+1XVU3xr3yeJT5nwy/l4/zph7zfp8mpDi+aJjKsPpQjvvfsc8NAYlQIAAAQIECORbXUe1w/yUOTuyL98zYy5v17RhSNHUcXLb4XShnXe/yXPXiwABAgQIECDwlkC+1XVU3xr3yeJT5nwy/l4/zph7zfp8mpDi+aJjKsPpQjvvfsc8NAYlQIAAAQKHCoSLyKGJPjh2wCzf6jr2zEShY14Yqh17hnb7lELw8iMxny6kmB9mecfhdKFd0yMROi7HzBuGSXIpb6tKgAABAgT+EAh/Vv745Nf9E83CIw+Y5Vtdx545cuiYF4Zqx56h3T6lELz8SMynCynmh1necThdaNf0SISOyzHzhmGSXMrbqhIgQIAAgT8Ewp+VPz75df9Es/DIA2b5VtexZ44cOuaFodqxZ2i3TykELz8S8+lCivlhlnccThfaNT0SoeNyzLxhmCSX8raqBAgQIEDgD4HwZ+WPT37dP9EsPPKAWb7VdeyZI4eOeWGoduwZ2u1TCsHLj8R8upBifpjlHYfThXZNj0TouBwzbxgmyaW8rSoBAgQIEPhDIPxZ+eOTX/dPNAuPPGCWb3Ude+bIoWNeGKode4Z2+5RC8PIjMZ8upJgfZnnH4XShXdMjEToux8wbhklyKW+rSoAAAQIE/hAIf1b++OTX/RPNwiMPmOVbXceeOXLomBeGaseeod0+pRC8/EjMpwsp5odZ3nE4XWjX9EiEjssx84ZhklzK26oSIECAAIE/BMKflT8++XX/RLPwyANm+VbXsWeOHDrmhaHasWdot08pBC8/EvPpQor5YZZ3HE4X2jU9EqHjcsy8YZgkl/K2qgQIECBA4A+B8Gflj09+3T/RLDzygFm+1XXsmSOHjnlhqHbsGdrtUwrBy4/EfLqQYn6Y5R2H04V2TY9E6LgcM28YJsmlvK0qAQIECBD4QyD8Wfnjk1/3TzQLjzxglm91HXvmyKFjXhiqHXuGdvuUQvDyIzGfLqSYH2Z5x+F0oV3TIxE6LsfMG4ZJcilvq0qAAAECBP4QCH9W/vjkqf8MCculUy2a5y57WvhQoPm4bE+AAAECBAgQIPBdAg/vnK/88BimV8L89DPHhJ8d9KeMPp8FZk9PNwIECBAgQIAAgcsF8uUzVI9xCRnKpWPCzw5a9rTwocDs6elGgAABAgQIECBwucDDO+crPzzG5ZUwP/3MMeFnB/0po89ngdnT040AAQIECBAgQOBygXz5DNVjXEKGcumY8LODlj0tfCgwe3q6ESBAgAABAgQIXC7w8M75yg+PcXklzE8/c0z42UF/yujzWWD29HQjQIAAAQIECBC4XCBfPkP1GJeQoVw6JvzsoGVPCx8KzJ6ebgQIECBAgAABApcLPLxzvvLDY1xeCfPTzxwTfnbQnzL6fBaYPT3dCBAgQIAAAQIELhfIl89QPcYlZCiXjgk/O2jZ08KHArOnpxsBAgQIECBAgMDlAg/vnK/88BiXV8L89DPHhJ8d9KeMPp8FZk9PNwIECBAgQIAAgcsF8uUzVKddwih3lKZBq/2CdnVL6x4LoH7s4qcECBAgQIAAgVsEwn3vlFLLUZwSvjxni1rDpiFgQ7ev3hL1Vx+/8AQIECBAgMAXCIT73imlllM6JXx5zha1hk1DwIZuX70l6q8+fuEJECBAgACBLxAI971TSi2ndEr48pwtag2bhoAN3b56S9RfffzCEyBAgAABAl8gEO57p5RaTumU8OU5W9QaNg0BG7p99Zaov/r4hSdAgAABAgS+QCDc904ptZzSKeHLc7aoNWwaAjZ0++otUX/18QtPgAABAgQIfIFAuO+dUmo5pVPCl+dsUWvYNARs6PbVW6L+6uMXngABAgQIEPgCgXDfO6XUckqnhC/P2aLWsGkI2NDtq7dE/dXHLzwBAgQIECDwBQLhvndKqeWUTglfnrNFrWHTELCh21dvifqrj194AgQIECBA4AsEwn3vlNIHTukUmjDnB9RKLS+IUMq916JwCn/9tdeoz6bJEYarz4b0cwLnCgx/iU75zXPugZqcAIFbBeZ/XU927Dq1yQxNvbpoVu8b4q9uZb+nAuEUTrmB5QjD1afQCgSOFRj+Ep3ym+fY8zQ4AQLXCsz/up7s2HVskxmaenXRrN43xF/dyn5PBcIpnHIDyxGGq0+hFQgcKzD8JTrlN8+x52lwAgSuFZj/dT3ZsevYJjM09eqiWb1viL+6lf2eCoRTOOUGliMMV59CKxA4VmD4S3TKb55jz9PgBAhcKzD/63qyY9exTWZo6tVFs3rfEH91K/s9FQincMoNLEcYrj6FViBwrMDwl+iU3zzHnqfBCRC4VmD+1/Vkx65jm8zQ1KuLZvW+If7qVvZ7KhBO4ZQbWI4wXH0KrUDgWIHhL9Epv3mOPU+DEyBwrcD8r+vJjl3HNpmhqVcXzep9Q/zVrez3VCCcwik3sBxhuPoUWoHAsQLDX6JTfvMce54GJ0DgWoH5X9eTHbuObTJDU68umtX7hvirW9nvqUA4hVNuYDnCcPUptAKBYwWGv0Sn/OY59jwNToDAtQLzv64nO3Yd22SGpl5dNKv3DfFXt7LfU4FwCqfcwHKE4epTaAUCxwoMf4lO+c1z7HkanACBawXmf11PdvzAsXXE+0CMbVoGz21m/HuQMGdHaTh7jjA8zHC7kH14Eu32FwhPy/XvKvPZQ8f9HxUTEiBA4EsEwu/qXDrGJ8eoVY8J3zBoEGvoVt8yzNlRqg9aWpkjlLY8ZlHIfkwGg04JhKfFu9/yQwjay3vZkAABAgRqAuF3dS7V2n1gVY5Rq34gxjYtg9g2M/49SJizozScPUcYHma4Xcg+PIl2+wuEp8W73/LjC9rLe9mQAAECBGoC4Xd1LtXafWBVjlGrfiDGNi2D2DYz/j1ImLOjNJw9RxgeZrhdyD48iXb7C4Snxbvf8uML2st72ZAAAQIEagLhd3Uu1dp9YFWOUat+IMY2LYPYNjP+PUiYs6M0nD1HGB5muF3IPjyJdvsLhKfFu9/y4wvay3vZkAABAgRqAuF3dS7V2n1gVY5Rq34gxjYtg9g2M/49SJizozScPUcYHma4Xcg+PIl2+wuEp8W73/LjC9rLe9mQAAECBGoC4Xd1LtXafWBVjlGrfiDGNi2D2DYz/j1ImLOjNJw9RxgeZrhdyD48iXb7C4Snxbvf8uML2st72ZAAAQIEagLhd3Uu1dp9YFWOUat+IMY2LYPYNjP+PUiYs6M0nD1HGB5muF3IPjyJdvsLhKfFu9/y4wvay3vZkAABAgRqAuF3dS7V2n1gVY5Rq34gxjYtg9g2M/49SJizozScPUcYHma4Xcg+PIl2+wuEp8W73/LjC9rLe9mQAAECBGoC4Xd1LtXafWBVjlGrfiDGNi2D2DYz/j1ImLOjNJw9RxgeZrhdyD48iXb7C4Snxbvf8uML2st72ZAAAQIEagLhd3Uu1dqdtCrkPynG6llPYQlzhlLWKi/M2xaqYZJvvtEWJPuW5DOqVfumfbhzbci86mGjN3+YOy6vvjnt2PIcvGOM0HG4XZgklzrmDHvmYZZXwyTl0vIhr/8TVqa2kMAqgfC1XdXi1H3QPDy5U1jCnKH0MPLvH5YX/t5h1X+ESa7/wxmyr+Jdsk+Ys1xaMtjrm5TnDAtf7/76J0O7jtLrg332kzl7x2yh43C7MEkudcwZ9szDLK+GScql5UNe/yesTG0hgVUC4Wu7qsWp+6B5eHKnsIQ5Q+lh5N8/LC/8vcOq/wiTXP+HM2RfxbtknzBnubRksNc3Kc8ZFr7e/fVPhnYdpdcH++wnc/aO2ULH4XZhklzqmDPsmYdZXg2TlEvLh7z+T1iZ2kICqwTC13ZVi1P3QfPw5E5hCXOG0sPIv39YXvh7h1X/ESa5/g9nyL6Kd8k+Yc5yaclgr29SnjMsfL37658M7TpKrw/22U/m7B2zhY7D7cIkudQxZ9gzD7O8GiYpl5YPef2fsDK1hQRWCYSv7aoWp+6D5uHJncIS5gylh5F//7C88PcOq/4jTHL9H86QfRXvkn3CnOXSksFe36Q8Z1j4evfXPxnadZReH+yzn8zZO2YLHYfbhUlyqWPOsGceZnk1TFIuLR/y+j9hZWoLCawSCF/bVS1O3QfNw5M7hSXMGUoPI//+YXnh7x1W/UeY5Po/nCH7Kt4l+4Q5y6Ulg72+SXnOsPD17q9/MrTrKL0+2Gc/mbN3zBY6DrcLk+RSx5xhzzzM8mqYpFxaPuT1f8LK1BYSWCUQvrarWpy6D5qHJ3cKS5gzlB5G/v3D8sLfO6z6jzDJ9X84Q/ZVvEv2CXOWS0sGe32T8pxh4evdX/9kaNdRen2wz34yZ++YLXQcbhcmyaWOOcOeeZjl1TBJubR8yOv/hJWpLSSwSiB8bVe1OHUfNA9P7hSWMGcoPYz8+4flhb93WPUfYZLr/3CG7Kt4l+wT5iyXlgz2+iblOcPC17u//snQrqP0+mCf/WTO3jFb6DjcLkySSx1zhj3zMMurYZJyafmQ1/8JK1NbSGCVQPjarmpx6j5oHp7cKSxhzlB6GPn3D8sLf++w6j/CJNf/4QzZV/Eu2SfMWS4tGez1TcpzhoWvd3/9k6FdR+n1wT77yZy9Y7bQcbhdmCSXOuYMe+ZhllfDJOXS8iGv/xNWpraQwCqB8LVd1cI+3yKw1cPUMUzHnrWHI0xy/R/OkL2G+c6q4WE62nXsGUj3affN35Sm7MsPN2x4SoRfv36FFOGbUi51tOvYMwQcbhcmUSJAgACBJLDV7+uOYTr2TKDPa2GSpivR81mmKyH79ChudT8XHz6+0O6bvylN2YP2z5+Uv1eEDU+JkFPUWPKqgJYXhmrHnvu0C5MoESBAgEASGP7zkEaJl4a8MFT3CRgmaboSBZbhUsg+PIlbXQF8+PhCu2/+pjRlD9qFRyV/v06JkFPUWPKq5adwR4SMpkqAAAECFYGOPzmVOf53TccwHXvWAoZJmq5EtTk7VoXsHe3ynsPDdLTr2DOg7dPum78pTdmXH27Y8JQId7w4hYMIX/ZyabhdeU4LCRAg8O0CW/2+7himY8/aQxMmaboS1ebsWBWyd7TLew4P09GuY8+Atk+7b/6mNGVffrhhw1MiePcLvw2elcK5P1vi5wQIECDwAYGtfl93DNOxZ+2cwiRNV6LanB2rQvaOdnnP4WE62nXsGdD2affN35Sm7MsPN2x4SgTvfuG3wbNSOPdnS/ycAAECBD4gsNXv645hOvasnVOYpOlKVJuzY1XI3tEu7zk8TEe7jj0D2j7tvvmb0pR9+eGGDU+J4N0v/DZ4Vgrn/myJnxMgQIDABwS2+n3dMUzHnrVzCpM0XYlqc3asCtk72uU9h4fpaNexZ0Dbp903f1Oasi8/3LDhKRG8+4XfBs9K4dyfLfFzAgQIEPiAwFa/rzuG6dizdk5hkqYrUW3OjlUhe0e7vOfwMB3tOvYMaPu0++ZvSlP25YcbNjwlgne/8NvgWSmc+7Mlfk6AAAECewmEX+XzpTLN/KjPOpYjXLDwmUnTXTCLDQ/T0a5jz4w2WQ3pPvLA7JM9y9Sqk+maeoXg5Y4de4ZhOtp17DkcIbRTIkCAAIH1AuEvx3ypHG9+1GcdyxEuWPjM5CNX+eFhOtp17LnPYxbSfeSBmZTJ2Tuqk+maegWWcseOPcMwHe069hyOENopESBAgMB6gfCXY75Ujjc/6rOO5QgXLHxm8pGr/PAwHe069tznMQvpPvLATMrk7B3VyXRNvQJLuWPHnmGYjnYdew5HCO2UCBAgQGC9QPjLMaQg1xsAAA5vSURBVF8qx5sf9VnHcoQLFj4z+chVfniYjnYde+7zmIV0H3lgJmVy9o7qZLqmXoGl3LFjzzBMR7uOPYcjhHZKBAgQILBeIPzlmC+V482P+qxjOcIFC5+ZfOQqPzxMR7uOPfd5zEK6jzwwkzI5e0d1Ml1Tr8BS7tixZximo13HnsMRQjslAgQIEFgvEP5yzJfK8eZHfdaxHOGChc9MPnKVHx6mo13Hnvs8ZiHdRx6YSZmcvaM6ma6pV2Apd+zYMwzT0a5jz+EIoZ0SAQIECKwXCH855kvlePOjPutYjnDBwmcmH7nKDw/T0a5jz30es5DuIw/MpEzO3lGdTNfUK7CUO3bsGYbpaNex53CE0E6JAAECBNYLhL8c86VyvPlRn3UsR7hg4TOTj1zlh4fpaNex5z6PWUj3kQdmUiZn76hOpmvqFVjKHTv2DMN0tOvYczhCaKdEgAABAusFwl+O+VI53vyozzqWI1yw8JnJR67yw8N0tOvYc5/HLKT7yAMzKZOzd1Qn0zX1Cizljh17hmE62nXsORwhtFMiQIAAgfUC4S/HfKkcb37UZx3LES5Y+MzkI1f54WE62nXsuc9jFtJ95IGZlMnZO6qT6Zp6BZZyx449wzAd7Tr2HI4Q2ikRIECAwA0C4W9VR+kGskMyhOObTxCGGS51ZO+I0DFn2DNHCAsvKF2fPQdcXi0/EmGS8p5hYUe7sOdwKQRXIkCAAIGvFvAH6dbjDyc7HzkMM1zqyN4RoWPOsGeOEBZeULo+ew64vFp+JMIk5T3Dwo52Yc/hUgiuRIAAAQJfLeAP0q3HH052PnIYZrjUkb0jQsecYc8cISy8oHR99hxwebX8SIRJynuGhR3twp7DpRBciQABAgS+WsAfpFuPP5zsfOQwzHCpI3tHhI45w545Qlh4Qen67Dng8mr5kQiTlPcMCzvahT2HSyG4EgECBAh8tYA/SLcefzjZ+chhmOFSR/aOCB1zhj1zhLDwgtL12XPA5dXyIxEmKe8ZFna0C3sOl0JwJQIECBD4agF/kG49/nCy85HDMMOljuwdETrmDHvmCGHhBaXrs+eAy6vlRyJMUt4zLOxoF/YcLoXgSgQIECDw1QL+IN16/OFk5yOHYYZLHdk7InTMGfbMEcLCC0rXZ88Bl1fLj0SYpLxnWNjRLuw5XArBlQgQIEDgqwX8Qbr1+MPJzkcOwwyXOrJ3ROiYM+yZI4SFF5Suz54DLq+WH4kwSXnPsLCjXdhzuBSCKxEgQIDAVwv4g3Tr8YeTnY8chhkudWTviNAxZ9gzRwgLLyhdnz0HXF4tPxJhkvKeYWFHu7DncCkEVyJAgAABAgQuFAhXjfm0Ww0zH7/QcVgstPvrr8L4Jy25IPt8hNCxfPYde4ZhOtp17BkiKBEgQIAAAQIE/hXY6hay1TBHPCLDYqGdd7/9H5j54wsdy1wde4ZhOtp17BkiKBEgQIAAAQIE/hXY6hay1TBHPCLDYqGdd7/9H5j54wsdy1wde4ZhOtp17BkiKBEgQIAAAQIE/hXY6hay1TBHPCLDYqGdd7/9H5j54wsdy1wde4ZhOtp17BkiKBEgQIAAAQIE/hXY6hay1TBHPCLDYqGdd7/9H5j54wsdy1wde4ZhOtp17BkiKBEgQIAAAQIE/hXY6hay1TBHPCLDYqGdd7/9H5j54wsdy1wde4ZhOtp17BkiKBEgQIAAAQIE/hXY6hay1TBHPCLDYqGdd7/9H5j54wsdy1wde4ZhOtp17BkiKBEgQIAAAQIE/hXY6hay1TBHPCLDYqGdd7/9H5j54wsdy1wde4ZhOtp17BkiKBEgQIAAAQIE/hXY6hay1TBHPCLDYqGdd7/9H5j54wsdy1wde4ZhOtp17BkiKBEgQIAAAQIE/hXY6hYyPExHu449w8O6TzvvfuGYNimFp6Xp+ELHDpPQrqNUjhCGKe8ZFg63C5MoESBAgAABAh8W2OpaMDxMR7uOPcMjsk+7ppeHkH24FKhPyT4fIXTsOL7QrqNUjhCGKe8ZFg63C5MoESBAgAABAh8W2OpaMDxMR7uOPcMjsk+7U95/AmYuBepTss9HCB2zdq0a2nWUakP++vUrDFPeMywcbhcmUSJAgAABAgQ+LLDVtWB4mI52HXuGR2Sfdqe8/wTMXArUp2SfjxA6Zu1aNbTrKNWG9O5XdrOQAAECBAgQeFcgXIne3frn64eH6WjXsWeA3KfdKe8/ATOXAvUp2ecjhI5Zu1YN7TpKtSG9+5XdLCRAgAABAgTeFQhXone3/vn64WE62nXsGSD3aXfK+0/AzKVAfUr2+QihY9auVUO7jlJtSO9+ZTcLCRAgQIAAgXcFwpXo3a1/vn54mI52HXsGyH3anfL+EzBzKVCfkn0+QuiYtWvV0K6jVBvSu1/ZzUICBAgQIEDgXYFwJXp365+vHx6mo13HngFyn3anvP8EzFwK1Kdkn48QOmbtWjW06yjVhvTuV3azkAABAgQIEHhXIFyJ3t365+uHh+lo17FngNyn3SnvPwEzlwL1KdnnI4SOWbtWDe06SrUhvfuV3SwkQIAAAQIE3hUIV6J3t/75+uFhOtp17Bkg92l3yvtPwMylQH1K9vkIoWPWrlVDu45SbUjvfmU3CwkQIECAAIF3BcKV6N2tl64Pc5ZLSwf875uV5wwL/3vXwU+EOUNpcMC3WoUIp7z75fw54PJqHmafagjeMWRoVy51zGlPAgQIECBA4EiBcJ/YKk+Ys1waDlieMywcjpDbhTlDKe+5TzVE8O6XcR5W9znZPMnD4f/5YV5Yq4Z25VJtEqsIECBAgACBCwXCfWKrtGHOcmk4YHnOsHA4Qm4X5gylvOc+1RDBu1/GeVjd52TzJA+H/+eHeWGtGtqVS7VJrCJAgAABAgQuFAj3ia3ShjnLpeGA5TnDwuEIuV2YM5TynvtUQwTvfhnnYXWfk82TPBz+nx/mhbVqaFcu1SaxigABAgQIELhQINwntkob5iyXhgOW5wwLhyPkdmHOUMp77lMNEbz7ZZyH1X1ONk/ycPh/fpgX1qqhXblUm8QqAgQIECBA4EKBcJ/YKm2Ys1waDlieMywcjpDbhTlDKe+5TzVE8O6XcR5W9znZPMnD4f/5YV5Yq4Z25VJtEqsIECBAgACBCwXCfWKrtGHOcmk4YHnOsHA4Qm4X5gylvOc+1RDBu1/GeVjd52TzJA+H/+eHeWGtGtqVS7VJrCJAgAABAgQuFAj3ia3ShjnLpeGA5TnDwuEIuV2YM5TynvtUQwTvfhnnYXWfk82TPBz+nx/mhbVqaFcu1SaxigABAgQIELhQINwntkob5iyXhgOW5wwLhyPkdmHOUMp77lMNEbz7ZZyH1X1ONk/ycPh/fpgX1qqhXblUm8QqAgQIECBAgAABAgQIfFIgvAJ1jDXcriOCPQkQIECAAAECBAgQIHCewPDL2HC7887DxAQIECBAgAABAgQIEOgQGH4ZG27XIWZPAgQIECBAgAABAgQInCcw/DI23O688zAxAQIECBAgQIAAAQIEOgSGX8aG23WI2ZMAAQIECBAgQIAAAQLnCQy/jA23O+88TEyAAAECBAgQIECAAIEOgeGXseF2HWL2JECAAAECBAgQIECAwHkCwy9jw+3OOw8TEyBAgAABAgQIECBAoENg+GVsuF2HmD0JECBAgAABAgQIECBwlUB4TyuXrgIShgABAgQIECBAgAABAhcIlF/wwsILWEQgQIAAAQIECBAgQIDAVQLhFa5cugpIGAIECBAgQIAAAQIECFwgUH7BCwsvYBGBAAECBAgQIECAAAECVwmEV7hy6SogYQgQIECAAAECBAgQIHCBQPkFLyy8gEUEAgQIECBAgAABAgQIXCUQXuHKpauAhCFAgAABAgQIECBAgMAFAuUXvLDwAhYRCBAgQIAAAQIECBAgcJVAeIUrl64CEoYAAQIECBAgQIAAAQIXCJRf8MLCC1hEIECAAAECBAgQIECAAAECBAgQIECAAAECBAgQIECAAAECBAgQIECAAAECBAgQIECAAAECBAgQIECAAAECBAgQIECAAAECBAgQIECAAAECBAgQIECAAAECBAgQIECAAAECBAgQIECAAAECBAgQIECAAAECBAgQIECAAAECBAgQIECAAAECBAgQIECAAAECBAgQIECAAAECBAgQIECAAAECBAgQIECAAAECBAgQIECAAAECBAgQIECAAAECBAgQIECAAAECBAgQIECAAAECBAgQIECAAAECBAgQIECAAAECBAgQIECAAAECBAgQIECAAAECBAgQIECAAAECBAgQIECAAAECBAgQIECAAAECBAgQIECAAAECBAgQIECAAAECBAgQIECAAAECBAgQIECAAAECBAgQIECAAAECBAgQIECAAAECBAgQIECAAAECBAgQIECAAAECBAgQIECAAAECBAgQIECAAAECBAgQIECAAAECBAgQIECAAAECBAgQIECAAAECBAgQIECAAAECBAgQIECAAAECBAgQIECAAAECBAgQIECAAAECBAgQIECAAAECBAgQIECAAAECBAgQIECAAAECBAgQIECAAAECBAgQIECAAAECBAgQIECAAAECBAgQIECAAAECBAgQIECAAAECBAgQIECAAAECBAgQIECAAAECBAgQIECAAAECBAgQIECAAAECBAgQIECAAAECBAgQIECAAAECBAgQIECAAAECBAgQIECAAAECBAgQIECAAAECBAgQIECAAAECBAgQIECAAAECBAgQIECAAAECBAgQIECAAAECBAgQIECAAAECBAgQIECAAAECBAgQIECAAAECBAgQIECAAAECBAgQIECAAAECBAgQIECAAAECBAgQIECAAAECBAgQIECAAAECBAgQIECAAAECBAgQIECAAAECBAgQIECAAAECBAgQIECAAAECBAgQIFAQ+B+2LiJYjpEwwgAAAABJRU5ErkJggg==;" vertex="1" parent="1">
          <mxGeometry x="1360" y="200" width="200.17" height="50" as="geometry" />
        </mxCell>
        <mxCell id="LmYF8_jIb47NEIPZJP37-44" style="edgeStyle=orthogonalEdgeStyle;shape=connector;rounded=0;orthogonalLoop=1;jettySize=auto;html=1;exitX=0;exitY=0.75;exitDx=0;exitDy=0;entryX=1;entryY=0.75;entryDx=0;entryDy=0;labelBackgroundColor=default;strokeColor=#336600;strokeWidth=5;align=center;verticalAlign=middle;fontFamily=Helvetica;fontSize=11;fontColor=default;endArrow=classic;" edge="1" parent="1" source="LmYF8_jIb47NEIPZJP37-32" target="LmYF8_jIb47NEIPZJP37-31">
          <mxGeometry relative="1" as="geometry" />
        </mxCell>
        <mxCell id="LmYF8_jIb47NEIPZJP37-65" style="edgeStyle=orthogonalEdgeStyle;shape=connector;rounded=0;orthogonalLoop=1;jettySize=auto;html=1;exitX=0.5;exitY=1;exitDx=0;exitDy=0;entryX=0.5;entryY=0;entryDx=0;entryDy=0;labelBackgroundColor=default;strokeColor=#336600;strokeWidth=5;align=center;verticalAlign=middle;fontFamily=Helvetica;fontSize=11;fontColor=default;endArrow=classic;jumpStyle=arc;" edge="1" parent="1" source="LmYF8_jIb47NEIPZJP37-32" target="LmYF8_jIb47NEIPZJP37-15">
          <mxGeometry relative="1" as="geometry" />
        </mxCell>
        <mxCell id="LmYF8_jIb47NEIPZJP37-32" value="" style="shape=image;verticalLabelPosition=bottom;labelBackgroundColor=default;verticalAlign=top;aspect=fixed;imageAspect=0;image=data:image/png,iVBORw0KGgoAAAANSUhEUgAABKkAAAErCAIAAACaYUedAAAgAElEQVR4Ae3d3Y7jSHIG0H4R73re/yFnAcsoDKoU30pBRRaTPANfdDMUfyepFrk3/vPHfwQIECBAgAABAgQIECBAgAABAgQIECBAgAABAgQIECBAgAABAgQIECBAgAABAgQIECBAgAABAgQIECBAgAABAgQIECBAgAABAgQIECBAgAABAgQIECBAgAABAgQIECBAgAABAgQIECBAgAABAgQIECBAgAABAgQIECBAgAABAgQIECBAgAABAgQIECBAgAABAgQIECBAgAABAgQIECBAgAABAgQIECBAgAABAgQIECBAgAABAgQIECBAgAABAgQIECBAgAABAgQIECBAgAABAgQIECBAgAABAgQIECBAgAABAgQIECBAgAABAgQIECBAgAABAgQIECBAgAABAgQIECBAgAABAgQIECBAgAABAgQIECBAgAABAgQIECBAgAABAgQIECBAgAABAgQIECBAgAABAgQIECBAgAABAgQIECBAgAABAgQIECBAgAABAgQIECBAgAABAgQIECBAgAABAgQIECBAgAABAgQIECBAgAABAgQIECBAgAABAgQIECBAgAABAgQIECBAgAABAgQIECBAgAABAgQIECBAgAABAgQIECBAgAABAgQIECBAgAABAgQIECBAgAABAgQIECBAgAABAgQIECBAgAABAgQIECBAgAABAgQIECBAgAABAgQIECBAgAABAgQIECBAgAABAgQIECBAgAABAgQIECBAgAABAgQIECBAgAABAgQIECBAgAABAgQIECBAgAABAgQIECBAgAABAgQIECBAgAABAgQIECBAgAABAgQIECBAgAABAgQIECBAgAABAgQIECBAgAABAgQIECBAgAABAgQIECBAgAABAgQIECBAgAABAgQIECBAgAABAgQIECBAgAABAgQIECBAgAABAgQIECBAgAABAgQIECBAgAABAgQIECBAgAABAgQIECBAgAABAgQIECBAgAABAgQIECBAgAABAgQIECBAgAABAgQIECBAgAABAgQIECBAgAABAgQIECBAgAABAgQIECBAgAABAgQIECBAgAABAgQIECBAgAABAgQIECBAgAABAgQIECBAgAABAgQIECBAgAABAgQIECBAgAABAgQIECBAgAABAgQIECBAgAABAgQIECBAgAABAgQIECBAgAABAgQIECBAgAABAgQIECBAgAABAgQIECBAgAABAgQIECBAgAABAgQIECBAgAABAgQIECBAgAABAgQIECBAgAABAgQIECBAgAABAgQIECBAgAABAgQIECBAgAABAgQIECBAgAABAgQIECBAgAABAgQIECBAgAABAgQIECBAgAABAgQIECBAgAABAgQIECBAgAABAgQIECBAgAABAgQIECBAgAABAgQIECBAgAABAgQIECBAgAABAgQIECBAgAABAgQIECBAgAABAgQIECBAgAABAgQIECBAgAABAgQIECBAgAABAgQIECBAgAABAgQIECBAgAABAgQIECBAgAABAgQIECBAgAABAgQIECBAgAABAgQIECBAgAABAgQIECBAgAABAgQIECBAgAABAgQIECBAgAABAgQIECBAgAABAgQIECBAgAABAgQIECBAgAABAgQIENhU4O+//3z8/yYowpAT7dQk8LpAuDn//vv1Mj5JgAABAgQIECBAYFIgP7b2ohPzhkkm2qlJ4HWBcHN693ud0ScJECBAgAABAgRmBfJjay86MXGYZKKdmgReFwg3p3e/1xl9kgABAgQIECBAYFYgP7b2ohMTh0km2qlJ4HWBcHN693ud0ScJECBAgAABAgRmBfJjay86MXGYZKKdmgReFwg3p3e/1xl9kgABAgQIECBAYFYgP7b2ohMTh0km2qlJ4HWBcHN693ud0ScJECBAgAABAgRmBfJjay86MXGYZKKdmgReFwg3p3e/1xl9kgABAgQIECBAYFYgP7b2ohMTh0km2qlJ4HWBcHN693ud0ScJECBAgAABAgRmBfJjay86MXGYZKKdmgReFwg3p3e/1xl9kgABAgQIENhAID/3VNENFrvKiNURPK5PbBk6tttN1GwPI/GnQDigy7//3Hn3n3eCKwQIECBAgMCVBfJzTxW9ssjJdquO4HF9YtjQsd1uomZ7GIk/BcIBeff7yeUKAQIECBAgQGBLgfzMV0W3XHXPoasjeFyf2Cl0bLebqNkeRuJPgXBA3v1+crlCgAABAgQIENhSID/zVdEtV91z6OoIHtcndgod2+0maraHkfhTIByQd7+fXK4QIECAAAECBLYUyM98VXTLVfccujqCx/WJnULHdruJmu1hJP4UCAfk3e8nlysECBAgQIAAgS0F8jNfFd1y1T2Hro7gcX1ip9Cx3W6iZnsYiT8FwgF59/vJ5QoBAgQIECBAYEuB/MxXRbdcdc+hqyN4XJ/YKXRst5uo2R5G4k+BcEDe/X5yuUKAAAECBAgQ2FIgP/NV0S1X3XPo6gge1yd2Ch3b7SZqtoeR+FMgHJB3v59crhAgQIAAAQIEthTIz3xVdMtV9xy6OoLH9YmdQsd2u4ma7WEk/hQIB+Td7yeXKwQIECBAgACBLQXyM18V3XLVPYeujuBxfZed8hYfj06whCF3aRdWmAgtZplYYei99+Ojrqee6NirmTEnauaOvWhvTlkECBAgQOBtAT9Ub5OtTcgHtHaWfre8xcej/UHrzDBkndSPTLQLNSdC/eXrzIk5c816ln4kd2xE+6PUmXmMOm91ZGLOXHMiulpNPwIECBC4rUDvZ+y2XOsXzwe0fp5ex7zFx6O9IXNWGDIn9qIT7ULNiVBv8Zw1MWeumefpRXPHRrQ3Rs7KY+TcldGJOXPNiehKMb0IECBA4NYCvZ+xW5OtXT4f0NpZ+t3yFh+P9getM8OQdVI/MtEu1JwI9ZevMyfmzDXrWfqR3LER7Y9SZ+Yx6rzVkYk5c82J6Go1/QgQIEDgtgK9n7Hbcq1fPB/Q+nl6HfMWH4/2hsxZYcic2ItOtAs1J0K9xXPWxJy5Zp6nF80dG9HeGDkrj5FzV0Yn5sw1J6IrxfQiQIAAgVsL9H7Gbk22dvl8QGtn6XfLW3w82h+0zgxD1kn9yES7UHMi1F++zpyYM9esZ+lHcsdGtD9KnZnHqPNWRybmzDUnoqvV9CNAgACB2wr0fsZuy7V+8XxA6+fpdcxbfDzaGzJnhSFzYi860S7UnAj1Fs9ZE3PmmnmeXjR3bER7Y+SsPEbOXRmdmDPXnIiuFNOLAAECBG4t0PsZuzXZ2uXzAa2dpd8tb/HxaH/QOjMMWSf1IxPtQs2JUH/5OnNizlyznqUfyR0b0f4odWYeo85bHZmYM9eciK5W048AAQIEbivQ+xm7Ldf6xfMBrZ+n1zFv8fFob8icFYbMib3oRLtQcyLUWzxnTcyZa+Z5etHcsRHtjZGz8hg5d2V0Ys5ccyK6UkwvAgQIELi1QO9n7NZka5fPB7R2ln63sEW/aJ050W6iZr3Bn/O0G/r/b37t3cPxTXhOtJuoGQ69HZqYc6JmXjB0zImiBAgQIEDgPYHwkxNC7/Xw6QMC4RQmHiIPTJpSwxYprRubaDdRM+x3nnbrb7ML7B5WmPCcaDdRM9zw7dDEnBM184KhY04UJUCAAAEC7wmEn5wQeq+HTx8QCKcw8RB5YNKUGrZIad3YRLuJmmG/87Rbf5tdYPewwoTnRLuJmuGGb4cm5pyomRcMHXOiKAECBAgQeE8g/OSE0Hs9fPqAQDiFiYfIA5Om1LBFSuvGJtpN1Az7nafd+tvsAruHFSY8J9pN1Aw3fDs0MedEzbxg6JgTRQkQIECAwHsC4ScnhN7r4dMHBMIpTDxEHpg0pYYtUlo3NtFuombY7zzt1t9mF9g9rDDhOdFuoma44duhiTknauYFQ8ecKEqAAAECBN4TCD85IfReD58+IBBOYeIh8sCkKTVskdK6sYl2EzXDfudpt/42u8DuYYUJz4l2EzXDDd8OTcw5UTMvGDrmRFECBAgQIPCeQPjJCaH3evj0AYFwChMPkQcmTalhi5TWjU20m6gZ9jtPu/W32QV2DytMeE60m6gZbvh2aGLOiZp5wdAxJ4oSIECAAIH3BMJPTgi918OnDwiEU5h4iDwwaUoNW6S0bmyi3UTNsN952q2/zS6we1hhwnOi3UTNcMO3QxNzTtTMC4aOOVGUAAECBAi8JxB+ckLovR4+fUAgnMLEQ+SBSVNq2CKldWMT7SZqhv3O0279bXaB3cMKE54T7SZqhhu+HZqYc6JmXjB0zImiBAgQIEDgPYHwkxNC7/Xw6QMC4RQmHiIPTJpSwxYprRubaDdRM+x3nnbrb7ML7B5WmPCcaDdRM9zw7dDEnBM184KhY04UJUCAAIErC4SfhxDKIiExhNbXzB1vGw1n1A5NYIZhdml3gRUCddhu4l0lTPLnz58wTE7sRUO79u4TNcN2E+3UrATCQbRDVa/2HdieRCIBAgQInEgg/DyEUF4gJIbQ+pq5422j4YzaoQnMMMwu7S6wQqAO261/+gzDhBXaodCuvftEzbDgRDs1K4FwEO1Q1at9B7YnkUiAAAECJxIIPw8hlBcIiSG0vmbueNtoOKN2aAIzDLNLuwusEKjDduufPsMwYYV2KLRr7z5RMyw40U7NSiAcRDtU9Wrfge1JJBIgQIDAiQTCz0MI5QVCYgitr5k73jYazqgdmsAMw+zS7gIrBOqw3fqnzzBMWKEdCu3au0/UDAtOtFOzEggH0Q5Vvdp3YHsSiQQIECBwIoHw8xBCeYGQGELra+aOt42GM2qHJjDDMLu0u8AKgTpst/7pMwwTVmiHQrv27hM1w4IT7dSsBMJBtENVr/Yd2J5EIgECBAicSCD8PIRQXiAkhtD6mrnjbaPhjNqhCcwwzC7tLrBCoA7brX/6DMOEFdqh0K69+0TNsOBEOzUrgXAQ7VDVq30HtieRSIAAAQInEgg/DyGUFwiJIbS+Zu5422g4o3ZoAjMMs0u7C6wQqMN2658+wzBhhXYotGvvPlEzLDjRTs1KIBxEO1T1at+B7UkkEiBAgMCJBMLPQwjlBUJiCK2vmTveNhrOqB2awAzD7NLuAisE6rDd+qfPMExYoR0K7dq7T9QMC060U7MSCAfRDlW92ndgexKJBAgQIHAigfDzEEJ5gZAYQutr5o63jYYzaocmMMMwu7S7wAqBOmy3/ukzDBNWaIdCu/buEzXDghPt1KwEwkG0Q1Wv9h3YnkQiAQIE/ruAf7P+u9HLnwiYQ78BuWMVfXmhNz5Y9Xpcf6OQjx4TCAfRLjxRMwwz0W6i5uIVeu2G/uXpDROy2qFwsu3dJ2qGBSfaqVkJhINoh6pe7TuwPYlEAgS+BHwxvyi+/wHNd5EDfw+YQ78BuWMVPbBimVr1elwv0wQ+LRAOot1qomYYZqLdRM3FK/TaDf3L0xsmZLVD4WTbu0/UDAtOtFOzEggH0Q5Vvdp3YHsSiQQIfAn4Yn5RfP8Dmu8iB/4eMId+A3LHKnpgxTK16vW4XqYJfFogHES71UTNMMxEu4mai1fotRv6l6c3TMhqh8LJtnefqBkWnGinZiUQDqIdqnq178D2JBIJEPgS8MX8ovj+BzTfRQ78PWAO/QbkjlX0wIplatXrcb1ME/i0QDiIdquJmmGYiXYTNRev0Gs39C9Pb5iQ1Q6Fk23vPlEzLDjRTs1KIBxEO1T1at+B7UkkEiDwJeCL+UXx/Q9ovosc+HvAHPoNyB2r6IEVy9Sq1+N6mSbwaYFwEO1WEzXDMBPtJmouXqHXbuhfnt4wIasdCifb3n2iZlhwop2alUA4iHao6tW+A9uTSCRA4EvAF/OL4vsf0HwXOfD3gDn0G5A7VtEDK5apVa/H9TJN4NMC4SDarSZqhmEm2k3UXLxCr93Qvzy9YUJWOxROtr37RM2w4EQ7NSuBcBDtUNWrfQe2J5FIgMCXgC/mF8X3P6D5LnLg7wFz6Dcgd6yiB1YsU6tej+tlmsCnBcJBtFtN1AzDTLSbqLl4hV67oX95esOErHYonGx794maYcGJdmpWAuEg2qGqV/sObE8ikQCBLwFfzC+K739A813kwN8D5tBvQO5YRQ+sWKZWvR7XyzSBTwuEg2i3mqgZhploN1Fz8Qq9dkP/8vSGCVntUDjZ9u4TNcOCE+3UrATCQbRDVa/2HdieRCIBAl8CvphfFN//gOa7yIG/B8yh34DcsYoeWLFMrXo9rpdpAp8WCAfRbjVRMwwz0W6i5uIVeu2G/uXpDROy2qFwsu3dJ2qGBSfaqVkJhINoh6pe7TuwPYlEAgS+BK7/xQwbtkNffP7wokCmfrHIWx/LHavoWy1e/HDV63H9xSI+dlwgHES7+ETNMMxEu4mai1fotVv/9Hke6vbuYYV2zcXHN7HCnWuG4/vz50+QyYmiBAjMCYQvZg7NjfThynmNXvTDI96gXHaeAMgdq+j6SSY6qvlUoDr0I8+sEzWfDv+4ONFuoubiFXrtjpx76BhC56Fu7x5WaNfsibXbTaxw55rh+Lz7ZRxRAr8lkP/JCtHfGvjtvmGHdujtIW6fkKkneHLHKrp+komOaj4VqA69/RC5/snGCk9PNlwMYkfOPXQMoTBMyGqHQrv27hM1w4IT7dSsBMJBtENVr/Yd2J5EIgECXwLhi5lDXxXO/oe8Ri969p3PN192npg3d6yi6yeZ6KjmU4Hq0I88hUzUfDr84+JEu4mai1fotTty7qFjCJ2Hur17WKFdsyfWbjexwp1rhuNb/7+O5WFECRB4COR/skJ0G8CwQzu0zfKnGTRTT4yZO1bR9ZNMdFTzqUB16O2HyPVPNlZ4erLhYhA7cu6hYwiFYUJWOxTatXefqBkWnGinZiUQDqIdqnq178D2JBIJEPgSCF/MHPqqcPY/5DV60bPvfL75svPEvLljFV0/yURHNZ8KVId+5ClkoubT4R8XJ9pN1Fy8Qq/dkXMPHUPoPNTt3cMK7Zo9sXa7iRXuXDMc3/r/dSwPI0qAwEMg/5MVotsAhh3aoW2WP82gmXpizNyxiq6fZKKjmk8FqkNvP0Suf7KxwtOTDReD2JFzDx1DKAwTstqh0K69+0TNsOBEOzUrgXAQ7VDVq30HtieRSIDAl0D4YubQV4Wz/yGv0YuefefzzZedJ+bNHavo+kkmOqr5VKA69CNPIRM1nw7/uDjRbqLm4hV67Y6ce+gYQuehbu8eVmjX7Im1202scOea4fjW/69jeRhRAgQeAvmfrBDdBjDs0A5ts/xpBs3UE2PmjlV0/SQTHdV8KlAdevshcv2TjRWenmy4GMSOnHvoGEJhmJDVDoV27d0naoYFJ9qpWQmEg2iHql7tO7A9iUQCBL4Ewhczh74qnP0PeY1e9Ow7n2++7Dwxb+5YRddPMtFRzacC1aEfeQqZqPl0+MfFiXYTNRev0Gt35NxDxxA6D3V797BCu2ZPrN1uYoU71wzHt/5/HcvDiBIg8BDI/2SF6GrAMMo1QqtBB/qFgxjodpGSt0ULi7ef6vI9ETrmxBCdqLm43QVW6IkN3Wa9YUJWOxROtr37RM2w4EQ7NSuBcBDtUNWrfQe2J5FI4MwC4ZuyS2iEd5fl23OOqK0tGnZfO8hO3W6LFhYfeiwIHdt3zETNMMxEu4mai1fotRu6zXrDhKx2KJxse/eJmmHBiXZqVgLhINqhqlf7DmxPIpHAmQXCN2WX0AjvLsu35xxRW1s07L52kJ263RYtLD70WBA6tu+YiZphmIl2EzUXr9BrN3Sb9YYJWe1QONn27hM1w4IT7dSsBMJBtENVr/Yd2J5EIoEzC4Rvyi6hEd5dlm/POaK2tmjYfe0gO3W7LVpYfOixIHRs3zETNcMwE+0mai5eoddu6DbrDROy2qFwsu3dJ2qGBSfaqVkJhINoh6pe7TuwPYlEAmcWCN+UXUIjvLss355zRG1t0bD72kF26nZbtLD40GNB6Ni+YyZqhmEm2k3UXLxCr93QbdYbJmS1Q+Fk27tP1AwLTrRTsxIIB9EOVb3ad2B7EokEziwQvim7hEZ4d1m+PeeI2tqiYfe1g+zU7bZoYfGhx4LQsX3HTNQMw0y0m6i5eIVeu6HbrDdMyGqHwsm2d5+oGRacaKdmJRAOoh2qerXvwPYkEgmcWSB8U3YJjfDusnx7zhG1tUXD7msH2anbbdHC4kOPBaFj+46ZqBmGmWg3UXPxCr12Q7dZb5iQ1Q6Fk23vPlEzLDjRTs1KIBxEO1T1at+B7UkkEjizQPim7BIa4d1l+facI2pri4bd1w6yU7fbooXFhx4LQsf2HTNRMwwz0W6i5uIVeu2GbrPeMCGrHQon2959omZYcKKdmpVAOIh2qOrVvgPbk0gkcGaB8E3ZJTTCu8vy7TlH1NYWDbuvHWSnbrdFC4sPPRaEju07ZqJmGGai3UTNxSv02g3dZr1hQlY7FE62vftEzbDgRDs1K4FwEO1Q1at9B7YnkUjgzALhm7JL6Bd4d6EJc/6C2qdbXnu7T2v9fz1oT2EDSzv0tNHBi2GYg5Wfpp+nXZgkh57u9VsX86hVdGLaqtfc9S22mBgy1+yBr6+ZO1bRvF2VdeR66HikrFwCFxMI35QLhKYOC82U7Dt1wym8U+Zen4X29LwDSzv0tNHBi2GYg5Wfpp+nXZgkh57u9VsX86hVdGLaqtfc9S22mBgy1+yBr6+ZO1bRvF2VdeR66HikrFwCFxMI35QLhKYOC82U7Dt1wym8U+Zen4X29LwDSzv0tNHBi2GYg5Wfpp+nXZgkh57u9VsX86hVdGLaqtfc9S22mBgy1+yBr6+ZO1bRvF2VdeR66HikrFwCFxMI35QLhKYOC82U7Dt1wym8U+Zen4X29LwDSzv0tNHBi2GYg5Wfpp+nXZgkh57u9VsX86hVdGLaqtfc9S22mBgy1+yBr6+ZO1bRvF2VdeR66HikrFwCFxMI35QLhKYOC82U7Dt1wym8U+Zen4X29LwDSzv0tNHBi2GYg5Wfpp+nXZgkh57u9VsX86hVdGLaqtfc9S22mBgy1+yBr6+ZO1bRvF2VdeR66HikrFwCFxMI35QLhKYOC82U7Dt1wym8U+Zen4X29LwDSzv0tNHBi2GYg5Wfpp+nXZgkh57u9VsX86hVdGLaqtfc9S22mBgy1+yBr6+ZO1bRvF2VdeR66HikrFwCFxMI35QLhKYOC82U7Dt1wym8U+Zen4X29LwDSzv0tNHBi2GYg5Wfpp+nXZgkh57u9VsX86hVdGLaqtfc9S22mBgy1+yBr6+ZO1bRvF2VdeR66HikrFwCFxMI35QLhKYOC82U7Dt1wym8U+Zen4X29LwDSzv0tNHBi2GYg5Wfpp+nXZgkh57u9VsX86hVdGLaqtfc9S22mBgy1+yBr6+ZO1bRvF2VdeR66HikrFwCFxMI35QLhKYOC82U7Dt1wym8U+Zen4X29LwDSzv0tNHBi2GYg5Wfpp+nXZgkh57u9VsX86hVdGLaqtfc9S22mBgy1+yBr6+ZO1bRvF2VdeR66HikrFwCFxMI35QLhH7hsCbUfmGNHVoG6h3G/50Zof2Ou64ECBAgQIAAgfsJhCfPHNqGKq/Ri26z/NpBA+baQXbqBm2n0zIrAQIECBAgQGBngfDkmUPbLJ3X6EW3WX7toAFz7SA7dYO202mZlQABAgQIECCws0B48syhbZbOa/Si2yy/dtCAuXaQnbpB2+m0zEqAAAECBAgQ2FkgPHnm0DZL5zV60W2WXztowFw7yE7doO10WmYlQIAAAQIECOwsEJ48c2ibpfMaveg2y68dNGCuHWSnbtB2Oi2zEiBAgAABAgR2FghPnjm0zdJ5jV50m+XXDhow1w6yUzdoO52WWQkQIECAAAECOwuEJ88c2mbpvEYvus3yawcNmGsH2akbtJ1Oy6wECBAgQIAAgZ0FwpNnDm2zdF6jF91m+bWDBsy1g+zUDdpOp2VWAgQIECBAgMDOAuHJM4e2WTqv0Ytus/zaQQPm2kF26gZtp9MyKwECBAgQIEBgZ4Hw5JlDOy/92uxh/9cK3O5TxBpHDq2BJoUAAQIECBAgQKAh4MmzRENT0hQBYgVMugwt6YgRIECAAAECBAh8TsCTZ2mJpqQpAsQKmHQZWtIRI0CAAAECBAgQ+JyAJ8/SEk1JUwSIFTDpMrSkI0aAAAECBAgQIPA5AU+epSWakqYIECtg0mVoSUeMAAECBAgQIEDgcwKePEtLNCVNESBWwKTL0JKOGAECBAgQIECAwOcEPHmWlmhKmiJArIBJl6ElHTECBAgQIECAAIHPCXjyLC3RlDRFgFgBky5DSzpiBAgQIECAAAECnxPw5FlaoilpigCxAiZdhpZ0xAgQIECAAAECBD4n4Mnzc5Yq1QLhPvv77zrtEpE7736JA7QEAQIECBAgQIAAAQIvC9z5/efOu798g/ggAQIECBAgQIAAAQKXELjz+8+dd7/EzWsJAgQIECBAgAABAgReFrjz+8+dd3/5BvFBAgQIECBAgAABAgQuIXDn9587736Jm9cSBAgQIECAAAECBAi8LHDn95877/7yDeKDBAgQIECAAAECBAhcQuDO7z933v0SN68lCBAgQIAAAQIECBB4WeDO7z933v3lG8QHCRAgQIAAAQIECBC4hMCd33/uvPslbl5LECBAgAABAgQIECDwssCd33/uvPvLN4gPEiBAgAABAgQIECBwCYE7v//cefdL3LyWIECAAAECBAgQIEDgZYE7v//cefeXbxAfJECAAAECBAgQIEDgEgJ3fv+58+6XuHktQYAAAQIECBAgQIDAywJ3fv+58+4v3yA+SIAAAQIECBAgQIDAJQTu/P5z590vcfNaggABAgQIECBAgACBlwXu/P5z591fvkF8kAABAgQIECBAgACBSwjc+f3nzrtf4ua1BAECBAgQIECAAAECLwvc+f3nzru/fNMYktEAAAdTSURBVIP4IAECBAgQIECAAAEClxC48/vPnXe/xM1rCQIECBAgQIAAAQIEPiSQ346q6Ieav1GmmiRff6OBjxIgQIAAAQIECBAgQODCAvndqYquB6kmydfXz6kjAQIECBAgQIAAAQIEziiQ352q6PpNqkny9fVz6kiAAAECBAgQIECAAIEzCuR3pyq6fpNqknx9/Zw6EiBAgAABAgQIECBA4IwC+d2piq7fpJokX18/p44ECBAgQIAAAQIECBA4o0B+d6qi6zepJsnX18+pIwECBAgQIECAAAECBM4okN+dquj6TapJ8vX1c+pIgAABAgQIECBAgACBMwrkd6cqun6TapJ8ff2cOhIgQIAAAQIECBAgQOCMAvndqYqu36SaJF9fP6eOBAgQIECAAAECBAgQuI5AfuOaiF7HziYECBAgQIAAAQIECBDYRWDi7S7X3EXGnAQIECBAgAABAgQIELiOQH5Pm4hex84mBAgQIECAAAECBAgQ2EVg4u0u19xFxpwECBAgQIAAAQIECBC4jkB+T5uIXsfOJgQIECBAgAABAgQIENhFYOLtLtfcRcacBAgQIECAAAECBAgQuI5Afk+biF7HziYECBAgQIAAAQIECBDYRWDi7S7X3EXGnAQIECBAgAABAgQIELiOQH5Pm4hex84mBAgQIECAAAECBAgQIECAAAECBAgQIECAAAECBAgQIECAAAECBAgQIECAAAECBAgQIECAAAECBAgQIECAAAECBAgQIECAAAECBAgQIECAAAECBAgQIECAAAECBAgQIECAAAECBAgQIECAAAECBAgQIECAAAECBAgQIECAAAECBAgQIECAAAECBAgQIECAAAECBAgQIECAAAECBAgQIECAAAECBAgQIECAAAECBAgQIECAAAECBAgQIECAAAECBAgQIECAAAECBAgQIECAAAECBAgQIECAAAECBAgQIECAAAECBAgQIECAAAECBAgQIECAAAECBAgQIECAAAECBAgQIECAAAECBAgQIECAAAECBAgQIECAAAECBAgQIECAAAECBAgQIECAAAECBAgQIECAAAECBAgQIECAAAECBAgQIECAAAECBAgQIECAAAECBAgQIECAAAECBAgQIECAAAECBAgQIECAAAECBAgQIECAAAECBAgQIECAAAECBAgQIECAAAECBAgQIECAAAECBAgQIECAAAECBAgQIECAAAECBAgQIECAAAECBAgQIECAAAECBAgQIECAAAECBAgQIECAAAECBAgQIECAAAECBAgQIECAAAECBAgQIECAAAECBAgQIECAAAECBAgQIECAAAECBAgQIECAAAECBAgQIECAAAECBAgQIECAAAECBAgQIECAAAECBAgQIECAAAECBAgQIECAAAECBAgQIECAAAECBAgQIECAAAECBAgQIECAAAECBAgQIECAAAECBAgQIECAAAECBAgQIECAAAECBAgQIECAAAECBAgQIECAAAECBAgQIECAAAECBAgQIECAAAECBAgQIECAAAECBAgQIECAAAECBAgQIECAAAECBAgQIECAAAECBAgQIECAAAECBAgQIECAAAECBAgQIECAAAECBAgQIECAAAECBAgQIECAAAECBAgQIECAAAECBAgQIECAAAECBAgQIECAAAECBAgQIECAAAECBAgQIECAAAECBAgQIECAAAECBAgQIECAAAECBAgQIECAAAECBAgQIECAAAECBAgQIECAAAECBAgQIECAAAECBAgQIECAAAECBAgQIECAAAECBAgQIECAAAECBAgQIECAAAECBAgQIECAAAECBAgQIECAAAECBAgQIECAAAECBAgQIECAAAECBAgQIECAAAECBAgQIECAAAECBAgQIECAAAECBAgQIECAAAECBAgQIECAAAECBAgQIECAAAECBAgQIECAAAECBAgQIECAAAECBAgQIECAAAECBAgQIECAAAECBAgQIECAAAECBAgQIECAAAECBAgQIECAAAECBAgQIECAAAECBAgQIECAAAECBAgQIECAAAECBAgQIECAAAECBAgQIECAAAECBAgQIECAAAECBAgQIECAAAECBAgQIECAAAECBAgQIECAAAECBAgQIECAAAECBAgQIECAAAECBAgQIECAAAECBAgQIECAAAECBAgQIECAAAECBAgQIECAAAECBAgQIECAAAECBAgQIECAAAECBAgQIECAAAECBAgQIECAAAECBAgQIECAAAECBAgQIECAAAECBAgQIECAAAECBAgQIECAAAECBAgQIECAAAECBAgQIECAAAECBAgQIECAAAECBAgQIECAAAECBAgQIECAAAECBAgQIECAAAECBAgQIECAAAECBAgQIECAAAECBAgQIECAAAECBAgQIECAAAECBAgQIECAAAECBAgQIECAAIEfAn/99df//uO/f//jv389++9//EeAAAECBAgQIECAAAECvy3w7HXtX/94n/v313veX//3338A+zeJW63jTrEAAAAASUVORK5CYII=;" vertex="1" parent="1">
          <mxGeometry x="1680" y="200" width="199.5" height="50" as="geometry" />
        </mxCell>
        <mxCell id="LmYF8_jIb47NEIPZJP37-40" style="edgeStyle=orthogonalEdgeStyle;shape=connector;rounded=0;orthogonalLoop=1;jettySize=auto;html=1;exitX=0;exitY=0.75;exitDx=0;exitDy=0;entryX=1;entryY=0.75;entryDx=0;entryDy=0;labelBackgroundColor=default;strokeColor=#336600;strokeWidth=5;align=center;verticalAlign=middle;fontFamily=Helvetica;fontSize=11;fontColor=default;endArrow=classic;" edge="1" parent="1" source="LmYF8_jIb47NEIPZJP37-30" target="LmYF8_jIb47NEIPZJP37-29">
          <mxGeometry relative="1" as="geometry" />
        </mxCell>
        <mxCell id="LmYF8_jIb47NEIPZJP37-47" value="btn_right" style="text;html=1;align=center;verticalAlign=middle;resizable=0;points=[];autosize=1;strokeColor=none;fillColor=none;fontSize=14;fontFamily=Helvetica;fontColor=default;fontStyle=1" vertex="1" parent="1">
          <mxGeometry x="611.71" y="185" width="80" height="30" as="geometry" />
        </mxCell>
        <mxCell id="LmYF8_jIb47NEIPZJP37-49" value="btn_right" style="text;html=1;align=center;verticalAlign=middle;resizable=0;points=[];autosize=1;strokeColor=none;fillColor=none;fontSize=14;fontFamily=Helvetica;fontColor=default;fontStyle=1" vertex="1" parent="1">
          <mxGeometry x="939.58" y="185" width="80" height="30" as="geometry" />
        </mxCell>
        <mxCell id="LmYF8_jIb47NEIPZJP37-50" value="btn_right" style="text;html=1;align=center;verticalAlign=middle;resizable=0;points=[];autosize=1;strokeColor=none;fillColor=none;fontSize=14;fontFamily=Helvetica;fontColor=default;fontStyle=1" vertex="1" parent="1">
          <mxGeometry x="1250" y="185" width="80" height="30" as="geometry" />
        </mxCell>
        <mxCell id="LmYF8_jIb47NEIPZJP37-51" value="btn_right" style="text;html=1;align=center;verticalAlign=middle;resizable=0;points=[];autosize=1;strokeColor=none;fillColor=none;fontSize=14;fontFamily=Helvetica;fontColor=default;fontStyle=1" vertex="1" parent="1">
          <mxGeometry x="1570" y="185" width="80" height="30" as="geometry" />
        </mxCell>
        <mxCell id="LmYF8_jIb47NEIPZJP37-52" value="btn_right" style="text;html=1;align=center;verticalAlign=middle;resizable=0;points=[];autosize=1;strokeColor=none;fillColor=none;fontSize=14;fontFamily=Helvetica;fontColor=default;fontStyle=1" vertex="1" parent="1">
          <mxGeometry x="1900" y="240" width="80" height="30" as="geometry" />
        </mxCell>
        <mxCell id="LmYF8_jIb47NEIPZJP37-53" value="btn_left" style="text;html=1;align=center;verticalAlign=middle;resizable=0;points=[];autosize=1;strokeColor=none;fillColor=none;fontSize=14;fontFamily=Helvetica;fontColor=default;fontStyle=1" vertex="1" parent="1">
          <mxGeometry x="630" y="230" width="70" height="30" as="geometry" />
        </mxCell>
        <mxCell id="LmYF8_jIb47NEIPZJP37-54" value="btn_left" style="text;html=1;align=center;verticalAlign=middle;resizable=0;points=[];autosize=1;strokeColor=none;fillColor=none;fontSize=14;fontFamily=Helvetica;fontColor=default;fontStyle=1" vertex="1" parent="1">
          <mxGeometry x="949.5799999999999" y="230" width="70" height="30" as="geometry" />
        </mxCell>
        <mxCell id="LmYF8_jIb47NEIPZJP37-55" value="btn_left" style="text;html=1;align=center;verticalAlign=middle;resizable=0;points=[];autosize=1;strokeColor=none;fillColor=none;fontSize=14;fontFamily=Helvetica;fontColor=default;fontStyle=1" vertex="1" parent="1">
          <mxGeometry x="1260" y="230" width="70" height="30" as="geometry" />
        </mxCell>
        <mxCell id="LmYF8_jIb47NEIPZJP37-56" value="btn_left" style="text;html=1;align=center;verticalAlign=middle;resizable=0;points=[];autosize=1;strokeColor=none;fillColor=none;fontSize=14;fontFamily=Helvetica;fontColor=default;fontStyle=1" vertex="1" parent="1">
          <mxGeometry x="1580" y="230" width="70" height="30" as="geometry" />
        </mxCell>
        <mxCell id="LmYF8_jIb47NEIPZJP37-57" value="btn_left" style="text;html=1;align=center;verticalAlign=middle;resizable=0;points=[];autosize=1;strokeColor=none;fillColor=none;fontSize=14;fontFamily=Helvetica;fontColor=default;fontStyle=1" vertex="1" parent="1">
          <mxGeometry x="310" y="180" width="70" height="30" as="geometry" />
        </mxCell>
        <mxCell id="LmYF8_jIb47NEIPZJP37-58" style="edgeStyle=orthogonalEdgeStyle;shape=connector;rounded=0;orthogonalLoop=1;jettySize=auto;html=1;entryX=0.5;entryY=0;entryDx=0;entryDy=0;labelBackgroundColor=default;strokeColor=#336600;strokeWidth=5;align=center;verticalAlign=middle;fontFamily=Helvetica;fontSize=11;fontColor=default;endArrow=classic;jumpStyle=arc;exitX=0.25;exitY=1;exitDx=0;exitDy=0;" edge="1" parent="1" source="LmYF8_jIb47NEIPZJP37-29" target="LmYF8_jIb47NEIPZJP37-17">
          <mxGeometry relative="1" as="geometry">
            <mxPoint x="870" y="270" as="sourcePoint" />
          </mxGeometry>
        </mxCell>
        <mxCell id="LmYF8_jIb47NEIPZJP37-59" style="edgeStyle=orthogonalEdgeStyle;shape=connector;rounded=0;orthogonalLoop=1;jettySize=auto;html=1;exitX=0.5;exitY=0;exitDx=0;exitDy=0;entryX=0.75;entryY=1;entryDx=0;entryDy=0;labelBackgroundColor=default;strokeColor=#336600;strokeWidth=5;align=center;verticalAlign=middle;fontFamily=Helvetica;fontSize=11;fontColor=default;endArrow=classic;jumpStyle=arc;" edge="1" parent="1" source="LmYF8_jIb47NEIPZJP37-18" target="LmYF8_jIb47NEIPZJP37-29">
          <mxGeometry relative="1" as="geometry" />
        </mxCell>
        <mxCell id="LmYF8_jIb47NEIPZJP37-60" value="btn_enter" style="text;html=1;align=center;verticalAlign=middle;resizable=0;points=[];autosize=1;strokeColor=none;fillColor=none;fontSize=14;fontFamily=Helvetica;fontColor=default;fontStyle=1" vertex="1" parent="1">
          <mxGeometry x="970" y="340" width="90" height="30" as="geometry" />
        </mxCell>
        <mxCell id="LmYF8_jIb47NEIPZJP37-64" value="btn_enter" style="text;html=1;align=center;verticalAlign=middle;resizable=0;points=[];autosize=1;strokeColor=none;fillColor=none;fontSize=14;fontFamily=Helvetica;fontColor=default;fontStyle=1" vertex="1" parent="1">
          <mxGeometry x="770" y="340" width="90" height="30" as="geometry" />
        </mxCell>
        <mxCell id="LmYF8_jIb47NEIPZJP37-66" value="btn_enter" style="text;html=1;align=center;verticalAlign=middle;resizable=0;points=[];autosize=1;strokeColor=none;fillColor=none;fontSize=14;fontFamily=Helvetica;fontColor=default;fontStyle=1" vertex="1" parent="1">
          <mxGeometry x="1775" y="310" width="90" height="30" as="geometry" />
        </mxCell>
      </root>
    </mxGraphModel>
  </diagram>
</mxfile>
